<mxfile host="Electron" agent="Mozilla/5.0 (X11; Linux x86_64) AppleWebKit/537.36 (KHTML, like Gecko) draw.io/26.0.16 Chrome/132.0.6834.196 Electron/34.2.0 Safari/537.36" version="26.0.16">
  <diagram name="Page-1" id="g2rB14P7A6fs_6gCJQFe">
    <mxGraphModel dx="692" dy="389" grid="1" gridSize="10" guides="1" tooltips="1" connect="1" arrows="1" fold="1" page="0" pageScale="1" pageWidth="850" pageHeight="1100" math="0" shadow="0">
      <root>
        <mxCell id="0" />
        <mxCell id="1" parent="0" />
        <mxCell id="qcMehuqhIoSb4eAEawHX-1" value="" style="group" vertex="1" connectable="0" parent="1">
          <mxGeometry x="280" y="270" width="339.0000000000002" height="250" as="geometry" />
        </mxCell>
        <mxCell id="qcMehuqhIoSb4eAEawHX-2" value="" style="group" vertex="1" connectable="0" parent="qcMehuqhIoSb4eAEawHX-1">
          <mxGeometry width="320" height="250" as="geometry" />
        </mxCell>
        <mxCell id="qcMehuqhIoSb4eAEawHX-3" value="" style="rounded=0;whiteSpace=wrap;html=1;fillColor=#FFF5D6;" vertex="1" parent="qcMehuqhIoSb4eAEawHX-2">
          <mxGeometry width="320" height="250" as="geometry" />
        </mxCell>
        <mxCell id="qcMehuqhIoSb4eAEawHX-4" value="" style="endArrow=none;html=1;rounded=0;strokeColor=#0000FF;" edge="1" parent="qcMehuqhIoSb4eAEawHX-2">
          <mxGeometry width="50" height="50" relative="1" as="geometry">
            <mxPoint x="20" y="50" as="sourcePoint" />
            <mxPoint x="300" y="50" as="targetPoint" />
          </mxGeometry>
        </mxCell>
        <mxCell id="qcMehuqhIoSb4eAEawHX-5" value="-" style="edgeLabel;html=1;align=center;verticalAlign=middle;resizable=0;points=[];labelBackgroundColor=none;" vertex="1" connectable="0" parent="qcMehuqhIoSb4eAEawHX-4">
          <mxGeometry x="-0.9224" y="1" relative="1" as="geometry">
            <mxPoint x="-16" as="offset" />
          </mxGeometry>
        </mxCell>
        <mxCell id="qcMehuqhIoSb4eAEawHX-6" value="-" style="edgeLabel;html=1;align=center;verticalAlign=middle;resizable=0;points=[];labelBackgroundColor=none;" vertex="1" connectable="0" parent="qcMehuqhIoSb4eAEawHX-4">
          <mxGeometry x="0.9709" relative="1" as="geometry">
            <mxPoint x="14" as="offset" />
          </mxGeometry>
        </mxCell>
        <mxCell id="qcMehuqhIoSb4eAEawHX-7" value="" style="rounded=0;whiteSpace=wrap;html=1;strokeColor=#FFF5D6;fillColor=#CFC6AD;" vertex="1" parent="qcMehuqhIoSb4eAEawHX-2">
          <mxGeometry x="20" y="20" width="10" height="10" as="geometry" />
        </mxCell>
        <mxCell id="qcMehuqhIoSb4eAEawHX-8" value="" style="rounded=0;whiteSpace=wrap;html=1;strokeColor=#FFF5D6;fillColor=#CFC6AD;" vertex="1" parent="qcMehuqhIoSb4eAEawHX-2">
          <mxGeometry x="20" y="30" width="10" height="10" as="geometry" />
        </mxCell>
        <mxCell id="qcMehuqhIoSb4eAEawHX-9" value="" style="rounded=0;whiteSpace=wrap;html=1;strokeColor=#FFF5D6;fillColor=#CFC6AD;" vertex="1" parent="qcMehuqhIoSb4eAEawHX-2">
          <mxGeometry x="30" y="20" width="10" height="10" as="geometry" />
        </mxCell>
        <mxCell id="qcMehuqhIoSb4eAEawHX-10" value="" style="rounded=0;whiteSpace=wrap;html=1;strokeColor=#FFF5D6;fillColor=#CFC6AD;" vertex="1" parent="qcMehuqhIoSb4eAEawHX-2">
          <mxGeometry x="30" y="30" width="10" height="10" as="geometry" />
        </mxCell>
        <mxCell id="qcMehuqhIoSb4eAEawHX-11" value="" style="rounded=0;whiteSpace=wrap;html=1;strokeColor=#FFF5D6;fillColor=#CFC6AD;" vertex="1" parent="qcMehuqhIoSb4eAEawHX-2">
          <mxGeometry x="40" y="30" width="10" height="10" as="geometry" />
        </mxCell>
        <mxCell id="qcMehuqhIoSb4eAEawHX-12" value="" style="rounded=0;whiteSpace=wrap;html=1;strokeColor=#FFF5D6;fillColor=#CFC6AD;" vertex="1" parent="qcMehuqhIoSb4eAEawHX-2">
          <mxGeometry x="50" y="30" width="10" height="10" as="geometry" />
        </mxCell>
        <mxCell id="qcMehuqhIoSb4eAEawHX-13" value="" style="endArrow=none;html=1;rounded=0;strokeColor=#CC0000;" edge="1" parent="qcMehuqhIoSb4eAEawHX-2">
          <mxGeometry width="50" height="50" relative="1" as="geometry">
            <mxPoint x="20" y="10" as="sourcePoint" />
            <mxPoint x="300" y="10" as="targetPoint" />
          </mxGeometry>
        </mxCell>
        <mxCell id="qcMehuqhIoSb4eAEawHX-14" value="+" style="edgeLabel;html=1;align=center;verticalAlign=middle;resizable=0;points=[];labelBackgroundColor=none;" vertex="1" connectable="0" parent="qcMehuqhIoSb4eAEawHX-13">
          <mxGeometry x="-0.8299" y="1" relative="1" as="geometry">
            <mxPoint x="-29" as="offset" />
          </mxGeometry>
        </mxCell>
        <mxCell id="qcMehuqhIoSb4eAEawHX-15" value="+" style="edgeLabel;html=1;align=center;verticalAlign=middle;resizable=0;points=[];labelBackgroundColor=none;" vertex="1" connectable="0" parent="qcMehuqhIoSb4eAEawHX-13">
          <mxGeometry x="0.9488" y="2" relative="1" as="geometry">
            <mxPoint x="17" y="2" as="offset" />
          </mxGeometry>
        </mxCell>
        <mxCell id="qcMehuqhIoSb4eAEawHX-16" value="" style="rounded=0;whiteSpace=wrap;html=1;strokeColor=#FFF5D6;fillColor=#CFC6AD;" vertex="1" parent="qcMehuqhIoSb4eAEawHX-2">
          <mxGeometry x="50" y="30" width="10" height="10" as="geometry" />
        </mxCell>
        <mxCell id="qcMehuqhIoSb4eAEawHX-17" value="" style="rounded=0;whiteSpace=wrap;html=1;strokeColor=#FFF5D6;fillColor=#CFC6AD;" vertex="1" parent="qcMehuqhIoSb4eAEawHX-2">
          <mxGeometry x="70" y="30" width="10" height="10" as="geometry" />
        </mxCell>
        <mxCell id="qcMehuqhIoSb4eAEawHX-18" value="" style="rounded=0;whiteSpace=wrap;html=1;strokeColor=#FFF5D6;fillColor=#CFC6AD;" vertex="1" parent="qcMehuqhIoSb4eAEawHX-2">
          <mxGeometry x="80" y="30" width="10" height="10" as="geometry" />
        </mxCell>
        <mxCell id="qcMehuqhIoSb4eAEawHX-19" value="" style="rounded=0;whiteSpace=wrap;html=1;strokeColor=#FFF5D6;fillColor=#CFC6AD;" vertex="1" parent="qcMehuqhIoSb4eAEawHX-2">
          <mxGeometry x="90" y="30" width="10" height="10" as="geometry" />
        </mxCell>
        <mxCell id="qcMehuqhIoSb4eAEawHX-20" value="" style="rounded=0;whiteSpace=wrap;html=1;strokeColor=#FFF5D6;fillColor=#CFC6AD;" vertex="1" parent="qcMehuqhIoSb4eAEawHX-2">
          <mxGeometry x="100" y="30" width="10" height="10" as="geometry" />
        </mxCell>
        <mxCell id="qcMehuqhIoSb4eAEawHX-21" value="" style="rounded=0;whiteSpace=wrap;html=1;strokeColor=#FFF5D6;fillColor=#CFC6AD;" vertex="1" parent="qcMehuqhIoSb4eAEawHX-2">
          <mxGeometry x="110" y="30" width="10" height="10" as="geometry" />
        </mxCell>
        <mxCell id="qcMehuqhIoSb4eAEawHX-22" value="" style="rounded=0;whiteSpace=wrap;html=1;strokeColor=#FFF5D6;fillColor=#CFC6AD;" vertex="1" parent="qcMehuqhIoSb4eAEawHX-2">
          <mxGeometry x="30" y="20" width="10" height="10" as="geometry" />
        </mxCell>
        <mxCell id="qcMehuqhIoSb4eAEawHX-23" value="" style="rounded=0;whiteSpace=wrap;html=1;strokeColor=#FFF5D6;fillColor=#CFC6AD;" vertex="1" parent="qcMehuqhIoSb4eAEawHX-2">
          <mxGeometry x="40" y="20" width="10" height="10" as="geometry" />
        </mxCell>
        <mxCell id="qcMehuqhIoSb4eAEawHX-24" value="" style="rounded=0;whiteSpace=wrap;html=1;strokeColor=#FFF5D6;fillColor=#CFC6AD;" vertex="1" parent="qcMehuqhIoSb4eAEawHX-2">
          <mxGeometry x="50" y="20" width="10" height="10" as="geometry" />
        </mxCell>
        <mxCell id="qcMehuqhIoSb4eAEawHX-25" value="" style="rounded=0;whiteSpace=wrap;html=1;strokeColor=#FFF5D6;fillColor=#CFC6AD;" vertex="1" parent="qcMehuqhIoSb4eAEawHX-2">
          <mxGeometry x="70" y="20" width="10" height="10" as="geometry" />
        </mxCell>
        <mxCell id="qcMehuqhIoSb4eAEawHX-26" value="" style="rounded=0;whiteSpace=wrap;html=1;strokeColor=#FFF5D6;fillColor=#CFC6AD;" vertex="1" parent="qcMehuqhIoSb4eAEawHX-2">
          <mxGeometry x="80" y="20" width="10" height="10" as="geometry" />
        </mxCell>
        <mxCell id="qcMehuqhIoSb4eAEawHX-27" value="" style="rounded=0;whiteSpace=wrap;html=1;strokeColor=#FFF5D6;fillColor=#CFC6AD;" vertex="1" parent="qcMehuqhIoSb4eAEawHX-2">
          <mxGeometry x="90" y="20" width="10" height="10" as="geometry" />
        </mxCell>
        <mxCell id="qcMehuqhIoSb4eAEawHX-28" value="" style="rounded=0;whiteSpace=wrap;html=1;strokeColor=#FFF5D6;fillColor=#CFC6AD;" vertex="1" parent="qcMehuqhIoSb4eAEawHX-2">
          <mxGeometry x="100" y="20" width="10" height="10" as="geometry" />
        </mxCell>
        <mxCell id="qcMehuqhIoSb4eAEawHX-29" value="" style="rounded=0;whiteSpace=wrap;html=1;strokeColor=#FFF5D6;fillColor=#CFC6AD;" vertex="1" parent="qcMehuqhIoSb4eAEawHX-2">
          <mxGeometry x="110" y="20" width="10" height="10" as="geometry" />
        </mxCell>
        <mxCell id="qcMehuqhIoSb4eAEawHX-30" value="" style="rounded=0;whiteSpace=wrap;html=1;strokeColor=#FFF5D6;fillColor=#CFC6AD;" vertex="1" parent="qcMehuqhIoSb4eAEawHX-2">
          <mxGeometry x="130" y="20" width="10" height="10" as="geometry" />
        </mxCell>
        <mxCell id="qcMehuqhIoSb4eAEawHX-31" value="" style="rounded=0;whiteSpace=wrap;html=1;strokeColor=#FFF5D6;fillColor=#CFC6AD;" vertex="1" parent="qcMehuqhIoSb4eAEawHX-2">
          <mxGeometry x="130" y="30" width="10" height="10" as="geometry" />
        </mxCell>
        <mxCell id="qcMehuqhIoSb4eAEawHX-32" value="" style="rounded=0;whiteSpace=wrap;html=1;strokeColor=#FFF5D6;fillColor=#CFC6AD;" vertex="1" parent="qcMehuqhIoSb4eAEawHX-2">
          <mxGeometry x="140" y="20" width="10" height="10" as="geometry" />
        </mxCell>
        <mxCell id="qcMehuqhIoSb4eAEawHX-33" value="" style="rounded=0;whiteSpace=wrap;html=1;strokeColor=#FFF5D6;fillColor=#CFC6AD;" vertex="1" parent="qcMehuqhIoSb4eAEawHX-2">
          <mxGeometry x="140" y="30" width="10" height="10" as="geometry" />
        </mxCell>
        <mxCell id="qcMehuqhIoSb4eAEawHX-34" value="" style="rounded=0;whiteSpace=wrap;html=1;strokeColor=#FFF5D6;fillColor=#CFC6AD;" vertex="1" parent="qcMehuqhIoSb4eAEawHX-2">
          <mxGeometry x="150" y="30" width="10" height="10" as="geometry" />
        </mxCell>
        <mxCell id="qcMehuqhIoSb4eAEawHX-35" value="" style="rounded=0;whiteSpace=wrap;html=1;strokeColor=#FFF5D6;fillColor=#CFC6AD;" vertex="1" parent="qcMehuqhIoSb4eAEawHX-2">
          <mxGeometry x="160" y="30" width="10" height="10" as="geometry" />
        </mxCell>
        <mxCell id="qcMehuqhIoSb4eAEawHX-36" value="" style="rounded=0;whiteSpace=wrap;html=1;strokeColor=#FFF5D6;fillColor=#CFC6AD;" vertex="1" parent="qcMehuqhIoSb4eAEawHX-2">
          <mxGeometry x="170" y="30" width="10" height="10" as="geometry" />
        </mxCell>
        <mxCell id="qcMehuqhIoSb4eAEawHX-37" value="" style="rounded=0;whiteSpace=wrap;html=1;strokeColor=#FFF5D6;fillColor=#CFC6AD;" vertex="1" parent="qcMehuqhIoSb4eAEawHX-2">
          <mxGeometry x="190" y="30" width="10" height="10" as="geometry" />
        </mxCell>
        <mxCell id="qcMehuqhIoSb4eAEawHX-38" value="" style="rounded=0;whiteSpace=wrap;html=1;strokeColor=#FFF5D6;fillColor=#CFC6AD;" vertex="1" parent="qcMehuqhIoSb4eAEawHX-2">
          <mxGeometry x="200" y="30" width="10" height="10" as="geometry" />
        </mxCell>
        <mxCell id="qcMehuqhIoSb4eAEawHX-39" value="" style="rounded=0;whiteSpace=wrap;html=1;strokeColor=#FFF5D6;fillColor=#CFC6AD;" vertex="1" parent="qcMehuqhIoSb4eAEawHX-2">
          <mxGeometry x="210" y="30" width="10" height="10" as="geometry" />
        </mxCell>
        <mxCell id="qcMehuqhIoSb4eAEawHX-40" value="" style="rounded=0;whiteSpace=wrap;html=1;strokeColor=#FFF5D6;fillColor=#CFC6AD;" vertex="1" parent="qcMehuqhIoSb4eAEawHX-2">
          <mxGeometry x="220" y="30" width="10" height="10" as="geometry" />
        </mxCell>
        <mxCell id="qcMehuqhIoSb4eAEawHX-41" value="" style="rounded=0;whiteSpace=wrap;html=1;strokeColor=#FFF5D6;fillColor=#CFC6AD;" vertex="1" parent="qcMehuqhIoSb4eAEawHX-2">
          <mxGeometry x="230" y="30" width="10" height="10" as="geometry" />
        </mxCell>
        <mxCell id="qcMehuqhIoSb4eAEawHX-42" value="" style="rounded=0;whiteSpace=wrap;html=1;strokeColor=#FFF5D6;fillColor=#CFC6AD;" vertex="1" parent="qcMehuqhIoSb4eAEawHX-2">
          <mxGeometry x="150" y="20" width="10" height="10" as="geometry" />
        </mxCell>
        <mxCell id="qcMehuqhIoSb4eAEawHX-43" value="" style="rounded=0;whiteSpace=wrap;html=1;strokeColor=#FFF5D6;fillColor=#CFC6AD;" vertex="1" parent="qcMehuqhIoSb4eAEawHX-2">
          <mxGeometry x="160" y="20" width="10" height="10" as="geometry" />
        </mxCell>
        <mxCell id="qcMehuqhIoSb4eAEawHX-44" value="" style="rounded=0;whiteSpace=wrap;html=1;strokeColor=#FFF5D6;fillColor=#CFC6AD;" vertex="1" parent="qcMehuqhIoSb4eAEawHX-2">
          <mxGeometry x="170" y="20" width="10" height="10" as="geometry" />
        </mxCell>
        <mxCell id="qcMehuqhIoSb4eAEawHX-45" value="" style="rounded=0;whiteSpace=wrap;html=1;strokeColor=#FFF5D6;fillColor=#CFC6AD;" vertex="1" parent="qcMehuqhIoSb4eAEawHX-2">
          <mxGeometry x="190" y="20" width="10" height="10" as="geometry" />
        </mxCell>
        <mxCell id="qcMehuqhIoSb4eAEawHX-46" value="" style="rounded=0;whiteSpace=wrap;html=1;strokeColor=#FFF5D6;fillColor=#CFC6AD;" vertex="1" parent="qcMehuqhIoSb4eAEawHX-2">
          <mxGeometry x="200" y="20" width="10" height="10" as="geometry" />
        </mxCell>
        <mxCell id="qcMehuqhIoSb4eAEawHX-47" value="" style="rounded=0;whiteSpace=wrap;html=1;strokeColor=#FFF5D6;fillColor=#CFC6AD;" vertex="1" parent="qcMehuqhIoSb4eAEawHX-2">
          <mxGeometry x="210" y="20" width="10" height="10" as="geometry" />
        </mxCell>
        <mxCell id="qcMehuqhIoSb4eAEawHX-48" value="" style="rounded=0;whiteSpace=wrap;html=1;strokeColor=#FFF5D6;fillColor=#CFC6AD;" vertex="1" parent="qcMehuqhIoSb4eAEawHX-2">
          <mxGeometry x="220" y="20" width="10" height="10" as="geometry" />
        </mxCell>
        <mxCell id="qcMehuqhIoSb4eAEawHX-49" value="" style="rounded=0;whiteSpace=wrap;html=1;strokeColor=#FFF5D6;fillColor=#CFC6AD;" vertex="1" parent="qcMehuqhIoSb4eAEawHX-2">
          <mxGeometry x="230" y="20" width="10" height="10" as="geometry" />
        </mxCell>
        <mxCell id="qcMehuqhIoSb4eAEawHX-50" value="" style="rounded=0;whiteSpace=wrap;html=1;strokeColor=#FFF5D6;fillColor=#CFC6AD;" vertex="1" parent="qcMehuqhIoSb4eAEawHX-2">
          <mxGeometry x="250" y="20" width="10" height="10" as="geometry" />
        </mxCell>
        <mxCell id="qcMehuqhIoSb4eAEawHX-51" value="" style="rounded=0;whiteSpace=wrap;html=1;strokeColor=#FFF5D6;fillColor=#CFC6AD;" vertex="1" parent="qcMehuqhIoSb4eAEawHX-2">
          <mxGeometry x="250" y="30" width="10" height="10" as="geometry" />
        </mxCell>
        <mxCell id="qcMehuqhIoSb4eAEawHX-52" value="" style="rounded=0;whiteSpace=wrap;html=1;strokeColor=#FFF5D6;fillColor=#CFC6AD;" vertex="1" parent="qcMehuqhIoSb4eAEawHX-2">
          <mxGeometry x="260" y="30" width="10" height="10" as="geometry" />
        </mxCell>
        <mxCell id="qcMehuqhIoSb4eAEawHX-53" value="" style="rounded=0;whiteSpace=wrap;html=1;strokeColor=#FFF5D6;fillColor=#CFC6AD;" vertex="1" parent="qcMehuqhIoSb4eAEawHX-2">
          <mxGeometry x="260" y="20" width="10" height="10" as="geometry" />
        </mxCell>
        <mxCell id="qcMehuqhIoSb4eAEawHX-54" value="" style="rounded=0;whiteSpace=wrap;html=1;strokeColor=#FFF5D6;fillColor=#CFC6AD;" vertex="1" parent="qcMehuqhIoSb4eAEawHX-2">
          <mxGeometry x="270" y="20" width="10" height="10" as="geometry" />
        </mxCell>
        <mxCell id="qcMehuqhIoSb4eAEawHX-55" value="" style="rounded=0;whiteSpace=wrap;html=1;strokeColor=#FFF5D6;fillColor=#CFC6AD;" vertex="1" parent="qcMehuqhIoSb4eAEawHX-2">
          <mxGeometry x="270" y="30" width="10" height="10" as="geometry" />
        </mxCell>
        <mxCell id="qcMehuqhIoSb4eAEawHX-56" value="" style="rounded=0;whiteSpace=wrap;html=1;fillColor=#CFC6AD;strokeColor=#FFF5D6;" vertex="1" parent="qcMehuqhIoSb4eAEawHX-2">
          <mxGeometry x="10" y="70" width="10" height="10" as="geometry" />
        </mxCell>
        <mxCell id="qcMehuqhIoSb4eAEawHX-57" value="" style="rounded=0;whiteSpace=wrap;html=1;fillColor=#CFC6AD;strokeColor=#FFF5D6;" vertex="1" parent="qcMehuqhIoSb4eAEawHX-2">
          <mxGeometry x="10" y="80" width="10" height="10" as="geometry" />
        </mxCell>
        <mxCell id="qcMehuqhIoSb4eAEawHX-58" value="" style="rounded=0;whiteSpace=wrap;html=1;fillColor=#CFC6AD;strokeColor=#FFF5D6;" vertex="1" parent="qcMehuqhIoSb4eAEawHX-2">
          <mxGeometry x="20" y="70" width="10" height="10" as="geometry" />
        </mxCell>
        <mxCell id="qcMehuqhIoSb4eAEawHX-59" value="" style="rounded=0;whiteSpace=wrap;html=1;fillColor=#CFC6AD;strokeColor=#FFF5D6;" vertex="1" parent="qcMehuqhIoSb4eAEawHX-2">
          <mxGeometry x="20" y="80" width="10" height="10" as="geometry" />
        </mxCell>
        <mxCell id="qcMehuqhIoSb4eAEawHX-60" value="" style="rounded=0;whiteSpace=wrap;html=1;fillColor=#CFC6AD;strokeColor=#FFF5D6;" vertex="1" parent="qcMehuqhIoSb4eAEawHX-2">
          <mxGeometry x="30" y="80" width="10" height="10" as="geometry" />
        </mxCell>
        <mxCell id="qcMehuqhIoSb4eAEawHX-61" value="" style="rounded=0;whiteSpace=wrap;html=1;fillColor=#CFC6AD;strokeColor=#FFF5D6;" vertex="1" parent="qcMehuqhIoSb4eAEawHX-2">
          <mxGeometry x="40" y="80" width="10" height="10" as="geometry" />
        </mxCell>
        <mxCell id="qcMehuqhIoSb4eAEawHX-62" value="" style="rounded=0;whiteSpace=wrap;html=1;fillColor=#CFC6AD;strokeColor=#FFF5D6;" vertex="1" parent="qcMehuqhIoSb4eAEawHX-2">
          <mxGeometry x="40" y="80" width="10" height="10" as="geometry" />
        </mxCell>
        <mxCell id="qcMehuqhIoSb4eAEawHX-63" value="" style="rounded=0;whiteSpace=wrap;html=1;fillColor=#CFC6AD;strokeColor=#FFF5D6;" vertex="1" parent="qcMehuqhIoSb4eAEawHX-2">
          <mxGeometry x="50" y="80" width="10" height="10" as="geometry" />
        </mxCell>
        <mxCell id="qcMehuqhIoSb4eAEawHX-64" value="" style="rounded=0;whiteSpace=wrap;html=1;fillColor=#CFC6AD;strokeColor=#FFF5D6;" vertex="1" parent="qcMehuqhIoSb4eAEawHX-2">
          <mxGeometry x="60" y="80" width="10" height="10" as="geometry" />
        </mxCell>
        <mxCell id="qcMehuqhIoSb4eAEawHX-65" value="" style="rounded=0;whiteSpace=wrap;html=1;fillColor=#CFC6AD;strokeColor=#FFF5D6;" vertex="1" parent="qcMehuqhIoSb4eAEawHX-2">
          <mxGeometry x="70" y="80" width="10" height="10" as="geometry" />
        </mxCell>
        <mxCell id="qcMehuqhIoSb4eAEawHX-66" value="" style="rounded=0;whiteSpace=wrap;html=1;fillColor=#CFC6AD;strokeColor=#FFF5D6;" vertex="1" parent="qcMehuqhIoSb4eAEawHX-2">
          <mxGeometry x="80" y="80" width="10" height="10" as="geometry" />
        </mxCell>
        <mxCell id="qcMehuqhIoSb4eAEawHX-67" value="" style="rounded=0;whiteSpace=wrap;html=1;fillColor=#CFC6AD;strokeColor=#FFF5D6;" vertex="1" parent="qcMehuqhIoSb4eAEawHX-2">
          <mxGeometry x="90" y="80" width="10" height="10" as="geometry" />
        </mxCell>
        <mxCell id="qcMehuqhIoSb4eAEawHX-68" value="" style="rounded=0;whiteSpace=wrap;html=1;fillColor=#CFC6AD;strokeColor=#FFF5D6;" vertex="1" parent="qcMehuqhIoSb4eAEawHX-2">
          <mxGeometry x="100" y="80" width="10" height="10" as="geometry" />
        </mxCell>
        <mxCell id="qcMehuqhIoSb4eAEawHX-69" value="" style="rounded=0;whiteSpace=wrap;html=1;fillColor=#CFC6AD;strokeColor=#FFF5D6;" vertex="1" parent="qcMehuqhIoSb4eAEawHX-2">
          <mxGeometry x="110" y="80" width="10" height="10" as="geometry" />
        </mxCell>
        <mxCell id="qcMehuqhIoSb4eAEawHX-70" value="" style="rounded=0;whiteSpace=wrap;html=1;fillColor=#CFC6AD;strokeColor=#FFF5D6;" vertex="1" parent="qcMehuqhIoSb4eAEawHX-2">
          <mxGeometry x="20" y="70" width="10" height="10" as="geometry" />
        </mxCell>
        <mxCell id="qcMehuqhIoSb4eAEawHX-71" value="" style="rounded=0;whiteSpace=wrap;html=1;fillColor=#CFC6AD;strokeColor=#FFF5D6;" vertex="1" parent="qcMehuqhIoSb4eAEawHX-2">
          <mxGeometry x="30" y="70" width="10" height="10" as="geometry" />
        </mxCell>
        <mxCell id="qcMehuqhIoSb4eAEawHX-72" value="" style="rounded=0;whiteSpace=wrap;html=1;fillColor=#CFC6AD;strokeColor=#FFF5D6;" vertex="1" parent="qcMehuqhIoSb4eAEawHX-2">
          <mxGeometry x="40" y="70" width="10" height="10" as="geometry" />
        </mxCell>
        <mxCell id="qcMehuqhIoSb4eAEawHX-73" value="" style="rounded=0;whiteSpace=wrap;html=1;fillColor=#CFC6AD;strokeColor=#FFF5D6;" vertex="1" parent="qcMehuqhIoSb4eAEawHX-2">
          <mxGeometry x="50" y="70" width="10" height="10" as="geometry" />
        </mxCell>
        <mxCell id="qcMehuqhIoSb4eAEawHX-74" value="" style="rounded=0;whiteSpace=wrap;html=1;fillColor=#CFC6AD;strokeColor=#FFF5D6;" vertex="1" parent="qcMehuqhIoSb4eAEawHX-2">
          <mxGeometry x="60" y="70" width="10" height="10" as="geometry" />
        </mxCell>
        <mxCell id="qcMehuqhIoSb4eAEawHX-75" value="" style="rounded=0;whiteSpace=wrap;html=1;fillColor=#CFC6AD;strokeColor=#FFF5D6;" vertex="1" parent="qcMehuqhIoSb4eAEawHX-2">
          <mxGeometry x="70" y="70" width="10" height="10" as="geometry" />
        </mxCell>
        <mxCell id="qcMehuqhIoSb4eAEawHX-76" value="" style="rounded=0;whiteSpace=wrap;html=1;fillColor=#CFC6AD;strokeColor=#FFF5D6;" vertex="1" parent="qcMehuqhIoSb4eAEawHX-2">
          <mxGeometry x="80" y="70" width="10" height="10" as="geometry" />
        </mxCell>
        <mxCell id="qcMehuqhIoSb4eAEawHX-77" value="" style="rounded=0;whiteSpace=wrap;html=1;fillColor=#CFC6AD;strokeColor=#FFF5D6;" vertex="1" parent="qcMehuqhIoSb4eAEawHX-2">
          <mxGeometry x="90" y="70" width="10" height="10" as="geometry" />
        </mxCell>
        <mxCell id="qcMehuqhIoSb4eAEawHX-78" value="" style="rounded=0;whiteSpace=wrap;html=1;fillColor=#CFC6AD;strokeColor=#FFF5D6;" vertex="1" parent="qcMehuqhIoSb4eAEawHX-2">
          <mxGeometry x="100" y="70" width="10" height="10" as="geometry" />
        </mxCell>
        <mxCell id="qcMehuqhIoSb4eAEawHX-79" value="" style="rounded=0;whiteSpace=wrap;html=1;fillColor=#CFC6AD;strokeColor=#FFF5D6;" vertex="1" parent="qcMehuqhIoSb4eAEawHX-2">
          <mxGeometry x="110" y="70" width="10" height="10" as="geometry" />
        </mxCell>
        <mxCell id="qcMehuqhIoSb4eAEawHX-80" value="" style="rounded=0;whiteSpace=wrap;html=1;fillColor=#CFC6AD;strokeColor=#FFF5D6;" vertex="1" parent="qcMehuqhIoSb4eAEawHX-2">
          <mxGeometry x="120" y="70" width="10" height="10" as="geometry" />
        </mxCell>
        <mxCell id="qcMehuqhIoSb4eAEawHX-81" value="" style="rounded=0;whiteSpace=wrap;html=1;fillColor=#CFC6AD;strokeColor=#FFF5D6;" vertex="1" parent="qcMehuqhIoSb4eAEawHX-2">
          <mxGeometry x="120" y="80" width="10" height="10" as="geometry" />
        </mxCell>
        <mxCell id="qcMehuqhIoSb4eAEawHX-82" value="" style="rounded=0;whiteSpace=wrap;html=1;fillColor=#CFC6AD;strokeColor=#FFF5D6;" vertex="1" parent="qcMehuqhIoSb4eAEawHX-2">
          <mxGeometry x="130" y="70" width="10" height="10" as="geometry" />
        </mxCell>
        <mxCell id="qcMehuqhIoSb4eAEawHX-83" value="" style="rounded=0;whiteSpace=wrap;html=1;fillColor=#CFC6AD;strokeColor=#FFF5D6;" vertex="1" parent="qcMehuqhIoSb4eAEawHX-2">
          <mxGeometry x="130" y="80" width="10" height="10" as="geometry" />
        </mxCell>
        <mxCell id="qcMehuqhIoSb4eAEawHX-84" value="" style="rounded=0;whiteSpace=wrap;html=1;fillColor=#CFC6AD;strokeColor=#FFF5D6;" vertex="1" parent="qcMehuqhIoSb4eAEawHX-2">
          <mxGeometry x="140" y="80" width="10" height="10" as="geometry" />
        </mxCell>
        <mxCell id="qcMehuqhIoSb4eAEawHX-85" value="" style="rounded=0;whiteSpace=wrap;html=1;fillColor=#CFC6AD;strokeColor=#FFF5D6;" vertex="1" parent="qcMehuqhIoSb4eAEawHX-2">
          <mxGeometry x="150" y="80" width="10" height="10" as="geometry" />
        </mxCell>
        <mxCell id="qcMehuqhIoSb4eAEawHX-86" value="" style="rounded=0;whiteSpace=wrap;html=1;fillColor=#CFC6AD;strokeColor=#FFF5D6;" vertex="1" parent="qcMehuqhIoSb4eAEawHX-2">
          <mxGeometry x="160" y="80" width="10" height="10" as="geometry" />
        </mxCell>
        <mxCell id="qcMehuqhIoSb4eAEawHX-87" value="" style="rounded=0;whiteSpace=wrap;html=1;fillColor=#CFC6AD;strokeColor=#FFF5D6;" vertex="1" parent="qcMehuqhIoSb4eAEawHX-2">
          <mxGeometry x="170" y="80" width="10" height="10" as="geometry" />
        </mxCell>
        <mxCell id="qcMehuqhIoSb4eAEawHX-88" value="" style="rounded=0;whiteSpace=wrap;html=1;fillColor=#CFC6AD;strokeColor=#FFF5D6;" vertex="1" parent="qcMehuqhIoSb4eAEawHX-2">
          <mxGeometry x="180" y="80" width="10" height="10" as="geometry" />
        </mxCell>
        <mxCell id="qcMehuqhIoSb4eAEawHX-89" value="" style="rounded=0;whiteSpace=wrap;html=1;fillColor=#CFC6AD;strokeColor=#FFF5D6;" vertex="1" parent="qcMehuqhIoSb4eAEawHX-2">
          <mxGeometry x="190" y="80" width="10" height="10" as="geometry" />
        </mxCell>
        <mxCell id="qcMehuqhIoSb4eAEawHX-90" value="" style="rounded=0;whiteSpace=wrap;html=1;fillColor=#CFC6AD;strokeColor=#FFF5D6;" vertex="1" parent="qcMehuqhIoSb4eAEawHX-2">
          <mxGeometry x="200" y="80" width="10" height="10" as="geometry" />
        </mxCell>
        <mxCell id="qcMehuqhIoSb4eAEawHX-91" value="" style="rounded=0;whiteSpace=wrap;html=1;fillColor=#CFC6AD;strokeColor=#FFF5D6;" vertex="1" parent="qcMehuqhIoSb4eAEawHX-2">
          <mxGeometry x="210" y="80" width="10" height="10" as="geometry" />
        </mxCell>
        <mxCell id="qcMehuqhIoSb4eAEawHX-92" value="" style="rounded=0;whiteSpace=wrap;html=1;fillColor=#CFC6AD;strokeColor=#FFF5D6;" vertex="1" parent="qcMehuqhIoSb4eAEawHX-2">
          <mxGeometry x="220" y="80" width="10" height="10" as="geometry" />
        </mxCell>
        <mxCell id="qcMehuqhIoSb4eAEawHX-93" value="" style="rounded=0;whiteSpace=wrap;html=1;fillColor=#CFC6AD;strokeColor=#FFF5D6;" vertex="1" parent="qcMehuqhIoSb4eAEawHX-2">
          <mxGeometry x="230" y="80" width="10" height="10" as="geometry" />
        </mxCell>
        <mxCell id="qcMehuqhIoSb4eAEawHX-94" value="" style="rounded=0;whiteSpace=wrap;html=1;fillColor=#CFC6AD;strokeColor=#FFF5D6;" vertex="1" parent="qcMehuqhIoSb4eAEawHX-2">
          <mxGeometry x="140" y="70" width="10" height="10" as="geometry" />
        </mxCell>
        <mxCell id="qcMehuqhIoSb4eAEawHX-95" value="" style="rounded=0;whiteSpace=wrap;html=1;fillColor=#CFC6AD;strokeColor=#FFF5D6;" vertex="1" parent="qcMehuqhIoSb4eAEawHX-2">
          <mxGeometry x="150" y="70" width="10" height="10" as="geometry" />
        </mxCell>
        <mxCell id="qcMehuqhIoSb4eAEawHX-96" value="" style="rounded=0;whiteSpace=wrap;html=1;fillColor=#CFC6AD;strokeColor=#FFF5D6;" vertex="1" parent="qcMehuqhIoSb4eAEawHX-2">
          <mxGeometry x="160" y="70" width="10" height="10" as="geometry" />
        </mxCell>
        <mxCell id="qcMehuqhIoSb4eAEawHX-97" value="" style="rounded=0;whiteSpace=wrap;html=1;fillColor=#CFC6AD;strokeColor=#FFF5D6;" vertex="1" parent="qcMehuqhIoSb4eAEawHX-2">
          <mxGeometry x="170" y="70" width="10" height="10" as="geometry" />
        </mxCell>
        <mxCell id="qcMehuqhIoSb4eAEawHX-98" value="" style="rounded=0;whiteSpace=wrap;html=1;fillColor=#CFC6AD;strokeColor=#FFF5D6;" vertex="1" parent="qcMehuqhIoSb4eAEawHX-2">
          <mxGeometry x="180" y="70" width="10" height="10" as="geometry" />
        </mxCell>
        <mxCell id="qcMehuqhIoSb4eAEawHX-99" value="" style="rounded=0;whiteSpace=wrap;html=1;fillColor=#CFC6AD;strokeColor=#FFF5D6;" vertex="1" parent="qcMehuqhIoSb4eAEawHX-2">
          <mxGeometry x="190" y="70" width="10" height="10" as="geometry" />
        </mxCell>
        <mxCell id="qcMehuqhIoSb4eAEawHX-100" value="" style="rounded=0;whiteSpace=wrap;html=1;fillColor=#CFC6AD;strokeColor=#FFF5D6;" vertex="1" parent="qcMehuqhIoSb4eAEawHX-2">
          <mxGeometry x="200" y="70" width="10" height="10" as="geometry" />
        </mxCell>
        <mxCell id="qcMehuqhIoSb4eAEawHX-101" value="" style="rounded=0;whiteSpace=wrap;html=1;fillColor=#CFC6AD;strokeColor=#FFF5D6;" vertex="1" parent="qcMehuqhIoSb4eAEawHX-2">
          <mxGeometry x="210" y="70" width="10" height="10" as="geometry" />
        </mxCell>
        <mxCell id="qcMehuqhIoSb4eAEawHX-102" value="" style="rounded=0;whiteSpace=wrap;html=1;fillColor=#CFC6AD;strokeColor=#FFF5D6;" vertex="1" parent="qcMehuqhIoSb4eAEawHX-2">
          <mxGeometry x="220" y="70" width="10" height="10" as="geometry" />
        </mxCell>
        <mxCell id="qcMehuqhIoSb4eAEawHX-103" value="" style="rounded=0;whiteSpace=wrap;html=1;fillColor=#CFC6AD;strokeColor=#FFF5D6;" vertex="1" parent="qcMehuqhIoSb4eAEawHX-2">
          <mxGeometry x="230" y="70" width="10" height="10" as="geometry" />
        </mxCell>
        <mxCell id="qcMehuqhIoSb4eAEawHX-104" value="" style="rounded=0;whiteSpace=wrap;html=1;fillColor=#CFC6AD;strokeColor=#FFF5D6;" vertex="1" parent="qcMehuqhIoSb4eAEawHX-2">
          <mxGeometry x="240" y="70" width="10" height="10" as="geometry" />
        </mxCell>
        <mxCell id="qcMehuqhIoSb4eAEawHX-105" value="" style="rounded=0;whiteSpace=wrap;html=1;fillColor=#CFC6AD;strokeColor=#FFF5D6;" vertex="1" parent="qcMehuqhIoSb4eAEawHX-2">
          <mxGeometry x="240" y="80" width="10" height="10" as="geometry" />
        </mxCell>
        <mxCell id="qcMehuqhIoSb4eAEawHX-106" value="" style="rounded=0;whiteSpace=wrap;html=1;fillColor=#CFC6AD;strokeColor=#FFF5D6;" vertex="1" parent="qcMehuqhIoSb4eAEawHX-2">
          <mxGeometry x="250" y="80" width="10" height="10" as="geometry" />
        </mxCell>
        <mxCell id="qcMehuqhIoSb4eAEawHX-107" value="" style="rounded=0;whiteSpace=wrap;html=1;fillColor=#CFC6AD;strokeColor=#FFF5D6;" vertex="1" parent="qcMehuqhIoSb4eAEawHX-2">
          <mxGeometry x="250" y="70" width="10" height="10" as="geometry" />
        </mxCell>
        <mxCell id="qcMehuqhIoSb4eAEawHX-108" value="" style="rounded=0;whiteSpace=wrap;html=1;fillColor=#CFC6AD;strokeColor=#FFF5D6;" vertex="1" parent="qcMehuqhIoSb4eAEawHX-2">
          <mxGeometry x="260" y="70" width="10" height="10" as="geometry" />
        </mxCell>
        <mxCell id="qcMehuqhIoSb4eAEawHX-109" value="" style="rounded=0;whiteSpace=wrap;html=1;fillColor=#CFC6AD;strokeColor=#FFF5D6;" vertex="1" parent="qcMehuqhIoSb4eAEawHX-2">
          <mxGeometry x="260" y="80" width="10" height="10" as="geometry" />
        </mxCell>
        <mxCell id="qcMehuqhIoSb4eAEawHX-110" value="" style="rounded=0;whiteSpace=wrap;html=1;fillColor=#CFC6AD;strokeColor=#FFF5D6;" vertex="1" parent="qcMehuqhIoSb4eAEawHX-2">
          <mxGeometry x="10" y="90" width="10" height="10" as="geometry" />
        </mxCell>
        <mxCell id="qcMehuqhIoSb4eAEawHX-111" value="" style="rounded=0;whiteSpace=wrap;html=1;fillColor=#CFC6AD;strokeColor=#FFF5D6;" vertex="1" parent="qcMehuqhIoSb4eAEawHX-2">
          <mxGeometry x="10" y="100" width="10" height="10" as="geometry" />
        </mxCell>
        <mxCell id="qcMehuqhIoSb4eAEawHX-112" value="" style="rounded=0;whiteSpace=wrap;html=1;fillColor=#CFC6AD;strokeColor=#FFF5D6;" vertex="1" parent="qcMehuqhIoSb4eAEawHX-2">
          <mxGeometry x="20" y="90" width="10" height="10" as="geometry" />
        </mxCell>
        <mxCell id="qcMehuqhIoSb4eAEawHX-113" value="" style="rounded=0;whiteSpace=wrap;html=1;fillColor=#CFC6AD;strokeColor=#FFF5D6;" vertex="1" parent="qcMehuqhIoSb4eAEawHX-2">
          <mxGeometry x="20" y="100" width="10" height="10" as="geometry" />
        </mxCell>
        <mxCell id="qcMehuqhIoSb4eAEawHX-114" value="" style="rounded=0;whiteSpace=wrap;html=1;fillColor=#CFC6AD;strokeColor=#FFF5D6;" vertex="1" parent="qcMehuqhIoSb4eAEawHX-2">
          <mxGeometry x="30" y="100" width="10" height="10" as="geometry" />
        </mxCell>
        <mxCell id="qcMehuqhIoSb4eAEawHX-115" value="" style="rounded=0;whiteSpace=wrap;html=1;fillColor=#CFC6AD;strokeColor=#FFF5D6;" vertex="1" parent="qcMehuqhIoSb4eAEawHX-2">
          <mxGeometry x="40" y="100" width="10" height="10" as="geometry" />
        </mxCell>
        <mxCell id="qcMehuqhIoSb4eAEawHX-116" value="" style="rounded=0;whiteSpace=wrap;html=1;fillColor=#CFC6AD;strokeColor=#FFF5D6;" vertex="1" parent="qcMehuqhIoSb4eAEawHX-2">
          <mxGeometry x="40" y="100" width="10" height="10" as="geometry" />
        </mxCell>
        <mxCell id="qcMehuqhIoSb4eAEawHX-117" value="" style="rounded=0;whiteSpace=wrap;html=1;fillColor=#CFC6AD;strokeColor=#FFF5D6;" vertex="1" parent="qcMehuqhIoSb4eAEawHX-2">
          <mxGeometry x="50" y="100" width="10" height="10" as="geometry" />
        </mxCell>
        <mxCell id="qcMehuqhIoSb4eAEawHX-118" value="" style="rounded=0;whiteSpace=wrap;html=1;fillColor=#CFC6AD;strokeColor=#FFF5D6;" vertex="1" parent="qcMehuqhIoSb4eAEawHX-2">
          <mxGeometry x="60" y="100" width="10" height="10" as="geometry" />
        </mxCell>
        <mxCell id="qcMehuqhIoSb4eAEawHX-119" value="" style="rounded=0;whiteSpace=wrap;html=1;fillColor=#CFC6AD;strokeColor=#FFF5D6;" vertex="1" parent="qcMehuqhIoSb4eAEawHX-2">
          <mxGeometry x="70" y="100" width="10" height="10" as="geometry" />
        </mxCell>
        <mxCell id="qcMehuqhIoSb4eAEawHX-120" value="" style="rounded=0;whiteSpace=wrap;html=1;fillColor=#CFC6AD;strokeColor=#FFF5D6;" vertex="1" parent="qcMehuqhIoSb4eAEawHX-2">
          <mxGeometry x="80" y="100" width="10" height="10" as="geometry" />
        </mxCell>
        <mxCell id="qcMehuqhIoSb4eAEawHX-121" value="" style="rounded=0;whiteSpace=wrap;html=1;fillColor=#CFC6AD;strokeColor=#FFF5D6;" vertex="1" parent="qcMehuqhIoSb4eAEawHX-2">
          <mxGeometry x="90" y="100" width="10" height="10" as="geometry" />
        </mxCell>
        <mxCell id="qcMehuqhIoSb4eAEawHX-122" value="" style="rounded=0;whiteSpace=wrap;html=1;fillColor=#CFC6AD;strokeColor=#FFF5D6;" vertex="1" parent="qcMehuqhIoSb4eAEawHX-2">
          <mxGeometry x="100" y="100" width="10" height="10" as="geometry" />
        </mxCell>
        <mxCell id="qcMehuqhIoSb4eAEawHX-123" value="" style="rounded=0;whiteSpace=wrap;html=1;fillColor=#CFC6AD;strokeColor=#FFF5D6;" vertex="1" parent="qcMehuqhIoSb4eAEawHX-2">
          <mxGeometry x="110" y="100" width="10" height="10" as="geometry" />
        </mxCell>
        <mxCell id="qcMehuqhIoSb4eAEawHX-124" value="" style="rounded=0;whiteSpace=wrap;html=1;fillColor=#CFC6AD;strokeColor=#FFF5D6;" vertex="1" parent="qcMehuqhIoSb4eAEawHX-2">
          <mxGeometry x="20" y="90" width="10" height="10" as="geometry" />
        </mxCell>
        <mxCell id="qcMehuqhIoSb4eAEawHX-125" value="" style="rounded=0;whiteSpace=wrap;html=1;fillColor=#CFC6AD;strokeColor=#FFF5D6;" vertex="1" parent="qcMehuqhIoSb4eAEawHX-2">
          <mxGeometry x="30" y="90" width="10" height="10" as="geometry" />
        </mxCell>
        <mxCell id="qcMehuqhIoSb4eAEawHX-126" value="" style="rounded=0;whiteSpace=wrap;html=1;fillColor=#CFC6AD;strokeColor=#FFF5D6;" vertex="1" parent="qcMehuqhIoSb4eAEawHX-2">
          <mxGeometry x="40" y="90" width="10" height="10" as="geometry" />
        </mxCell>
        <mxCell id="qcMehuqhIoSb4eAEawHX-127" value="" style="rounded=0;whiteSpace=wrap;html=1;fillColor=#CFC6AD;strokeColor=#FFF5D6;" vertex="1" parent="qcMehuqhIoSb4eAEawHX-2">
          <mxGeometry x="50" y="90" width="10" height="10" as="geometry" />
        </mxCell>
        <mxCell id="qcMehuqhIoSb4eAEawHX-128" value="" style="rounded=0;whiteSpace=wrap;html=1;fillColor=#CFC6AD;strokeColor=#FFF5D6;" vertex="1" parent="qcMehuqhIoSb4eAEawHX-2">
          <mxGeometry x="60" y="90" width="10" height="10" as="geometry" />
        </mxCell>
        <mxCell id="qcMehuqhIoSb4eAEawHX-129" value="" style="rounded=0;whiteSpace=wrap;html=1;fillColor=#CFC6AD;strokeColor=#FFF5D6;" vertex="1" parent="qcMehuqhIoSb4eAEawHX-2">
          <mxGeometry x="70" y="90" width="10" height="10" as="geometry" />
        </mxCell>
        <mxCell id="qcMehuqhIoSb4eAEawHX-130" value="" style="rounded=0;whiteSpace=wrap;html=1;fillColor=#CFC6AD;strokeColor=#FFF5D6;" vertex="1" parent="qcMehuqhIoSb4eAEawHX-2">
          <mxGeometry x="80" y="90" width="10" height="10" as="geometry" />
        </mxCell>
        <mxCell id="qcMehuqhIoSb4eAEawHX-131" value="" style="rounded=0;whiteSpace=wrap;html=1;fillColor=#CFC6AD;strokeColor=#FFF5D6;" vertex="1" parent="qcMehuqhIoSb4eAEawHX-2">
          <mxGeometry x="90" y="90" width="10" height="10" as="geometry" />
        </mxCell>
        <mxCell id="qcMehuqhIoSb4eAEawHX-132" value="" style="rounded=0;whiteSpace=wrap;html=1;fillColor=#CFC6AD;strokeColor=#FFF5D6;" vertex="1" parent="qcMehuqhIoSb4eAEawHX-2">
          <mxGeometry x="100" y="90" width="10" height="10" as="geometry" />
        </mxCell>
        <mxCell id="qcMehuqhIoSb4eAEawHX-133" value="" style="rounded=0;whiteSpace=wrap;html=1;fillColor=#CFC6AD;strokeColor=#FFF5D6;" vertex="1" parent="qcMehuqhIoSb4eAEawHX-2">
          <mxGeometry x="110" y="90" width="10" height="10" as="geometry" />
        </mxCell>
        <mxCell id="qcMehuqhIoSb4eAEawHX-134" value="" style="rounded=0;whiteSpace=wrap;html=1;fillColor=#CFC6AD;strokeColor=#FFF5D6;" vertex="1" parent="qcMehuqhIoSb4eAEawHX-2">
          <mxGeometry x="120" y="90" width="10" height="10" as="geometry" />
        </mxCell>
        <mxCell id="qcMehuqhIoSb4eAEawHX-135" value="" style="rounded=0;whiteSpace=wrap;html=1;fillColor=#CFC6AD;strokeColor=#FFF5D6;" vertex="1" parent="qcMehuqhIoSb4eAEawHX-2">
          <mxGeometry x="120" y="100" width="10" height="10" as="geometry" />
        </mxCell>
        <mxCell id="qcMehuqhIoSb4eAEawHX-136" value="" style="rounded=0;whiteSpace=wrap;html=1;fillColor=#CFC6AD;strokeColor=#FFF5D6;" vertex="1" parent="qcMehuqhIoSb4eAEawHX-2">
          <mxGeometry x="130" y="90" width="10" height="10" as="geometry" />
        </mxCell>
        <mxCell id="qcMehuqhIoSb4eAEawHX-137" value="" style="rounded=0;whiteSpace=wrap;html=1;fillColor=#CFC6AD;strokeColor=#FFF5D6;" vertex="1" parent="qcMehuqhIoSb4eAEawHX-2">
          <mxGeometry x="130" y="100" width="10" height="10" as="geometry" />
        </mxCell>
        <mxCell id="qcMehuqhIoSb4eAEawHX-138" value="" style="rounded=0;whiteSpace=wrap;html=1;fillColor=#CFC6AD;strokeColor=#FFF5D6;" vertex="1" parent="qcMehuqhIoSb4eAEawHX-2">
          <mxGeometry x="140" y="100" width="10" height="10" as="geometry" />
        </mxCell>
        <mxCell id="qcMehuqhIoSb4eAEawHX-139" value="" style="rounded=0;whiteSpace=wrap;html=1;fillColor=#CFC6AD;strokeColor=#FFF5D6;" vertex="1" parent="qcMehuqhIoSb4eAEawHX-2">
          <mxGeometry x="150" y="100" width="10" height="10" as="geometry" />
        </mxCell>
        <mxCell id="qcMehuqhIoSb4eAEawHX-140" value="" style="rounded=0;whiteSpace=wrap;html=1;fillColor=#CFC6AD;strokeColor=#FFF5D6;" vertex="1" parent="qcMehuqhIoSb4eAEawHX-2">
          <mxGeometry x="160" y="100" width="10" height="10" as="geometry" />
        </mxCell>
        <mxCell id="qcMehuqhIoSb4eAEawHX-141" value="" style="rounded=0;whiteSpace=wrap;html=1;fillColor=#CFC6AD;strokeColor=#FFF5D6;" vertex="1" parent="qcMehuqhIoSb4eAEawHX-2">
          <mxGeometry x="170" y="100" width="10" height="10" as="geometry" />
        </mxCell>
        <mxCell id="qcMehuqhIoSb4eAEawHX-142" value="" style="rounded=0;whiteSpace=wrap;html=1;fillColor=#CFC6AD;strokeColor=#FFF5D6;" vertex="1" parent="qcMehuqhIoSb4eAEawHX-2">
          <mxGeometry x="180" y="100" width="10" height="10" as="geometry" />
        </mxCell>
        <mxCell id="qcMehuqhIoSb4eAEawHX-143" value="" style="rounded=0;whiteSpace=wrap;html=1;fillColor=#CFC6AD;strokeColor=#FFF5D6;" vertex="1" parent="qcMehuqhIoSb4eAEawHX-2">
          <mxGeometry x="190" y="100" width="10" height="10" as="geometry" />
        </mxCell>
        <mxCell id="qcMehuqhIoSb4eAEawHX-144" value="" style="rounded=0;whiteSpace=wrap;html=1;fillColor=#CFC6AD;strokeColor=#FFF5D6;" vertex="1" parent="qcMehuqhIoSb4eAEawHX-2">
          <mxGeometry x="200" y="100" width="10" height="10" as="geometry" />
        </mxCell>
        <mxCell id="qcMehuqhIoSb4eAEawHX-145" value="" style="rounded=0;whiteSpace=wrap;html=1;fillColor=#CFC6AD;strokeColor=#FFF5D6;" vertex="1" parent="qcMehuqhIoSb4eAEawHX-2">
          <mxGeometry x="210" y="100" width="10" height="10" as="geometry" />
        </mxCell>
        <mxCell id="qcMehuqhIoSb4eAEawHX-146" value="" style="rounded=0;whiteSpace=wrap;html=1;fillColor=#CFC6AD;strokeColor=#FFF5D6;" vertex="1" parent="qcMehuqhIoSb4eAEawHX-2">
          <mxGeometry x="220" y="100" width="10" height="10" as="geometry" />
        </mxCell>
        <mxCell id="qcMehuqhIoSb4eAEawHX-147" value="" style="rounded=0;whiteSpace=wrap;html=1;fillColor=#CFC6AD;strokeColor=#FFF5D6;" vertex="1" parent="qcMehuqhIoSb4eAEawHX-2">
          <mxGeometry x="230" y="100" width="10" height="10" as="geometry" />
        </mxCell>
        <mxCell id="qcMehuqhIoSb4eAEawHX-148" value="" style="rounded=0;whiteSpace=wrap;html=1;fillColor=#CFC6AD;strokeColor=#FFF5D6;" vertex="1" parent="qcMehuqhIoSb4eAEawHX-2">
          <mxGeometry x="140" y="90" width="10" height="10" as="geometry" />
        </mxCell>
        <mxCell id="qcMehuqhIoSb4eAEawHX-149" value="" style="rounded=0;whiteSpace=wrap;html=1;fillColor=#CFC6AD;strokeColor=#FFF5D6;" vertex="1" parent="qcMehuqhIoSb4eAEawHX-2">
          <mxGeometry x="150" y="90" width="10" height="10" as="geometry" />
        </mxCell>
        <mxCell id="qcMehuqhIoSb4eAEawHX-150" value="" style="rounded=0;whiteSpace=wrap;html=1;fillColor=#CFC6AD;strokeColor=#FFF5D6;" vertex="1" parent="qcMehuqhIoSb4eAEawHX-2">
          <mxGeometry x="160" y="90" width="10" height="10" as="geometry" />
        </mxCell>
        <mxCell id="qcMehuqhIoSb4eAEawHX-151" value="" style="rounded=0;whiteSpace=wrap;html=1;fillColor=#CFC6AD;strokeColor=#FFF5D6;" vertex="1" parent="qcMehuqhIoSb4eAEawHX-2">
          <mxGeometry x="170" y="90" width="10" height="10" as="geometry" />
        </mxCell>
        <mxCell id="qcMehuqhIoSb4eAEawHX-152" value="" style="rounded=0;whiteSpace=wrap;html=1;fillColor=#CFC6AD;strokeColor=#FFF5D6;" vertex="1" parent="qcMehuqhIoSb4eAEawHX-2">
          <mxGeometry x="180" y="90" width="10" height="10" as="geometry" />
        </mxCell>
        <mxCell id="qcMehuqhIoSb4eAEawHX-153" value="" style="rounded=0;whiteSpace=wrap;html=1;fillColor=#CFC6AD;strokeColor=#FFF5D6;" vertex="1" parent="qcMehuqhIoSb4eAEawHX-2">
          <mxGeometry x="190" y="90" width="10" height="10" as="geometry" />
        </mxCell>
        <mxCell id="qcMehuqhIoSb4eAEawHX-154" value="" style="rounded=0;whiteSpace=wrap;html=1;fillColor=#CFC6AD;strokeColor=#FFF5D6;" vertex="1" parent="qcMehuqhIoSb4eAEawHX-2">
          <mxGeometry x="200" y="90" width="10" height="10" as="geometry" />
        </mxCell>
        <mxCell id="qcMehuqhIoSb4eAEawHX-155" value="" style="rounded=0;whiteSpace=wrap;html=1;fillColor=#CFC6AD;strokeColor=#FFF5D6;" vertex="1" parent="qcMehuqhIoSb4eAEawHX-2">
          <mxGeometry x="210" y="90" width="10" height="10" as="geometry" />
        </mxCell>
        <mxCell id="qcMehuqhIoSb4eAEawHX-156" value="" style="rounded=0;whiteSpace=wrap;html=1;fillColor=#CFC6AD;strokeColor=#FFF5D6;" vertex="1" parent="qcMehuqhIoSb4eAEawHX-2">
          <mxGeometry x="220" y="90" width="10" height="10" as="geometry" />
        </mxCell>
        <mxCell id="qcMehuqhIoSb4eAEawHX-157" value="" style="rounded=0;whiteSpace=wrap;html=1;fillColor=#CFC6AD;strokeColor=#FFF5D6;" vertex="1" parent="qcMehuqhIoSb4eAEawHX-2">
          <mxGeometry x="230" y="90" width="10" height="10" as="geometry" />
        </mxCell>
        <mxCell id="qcMehuqhIoSb4eAEawHX-158" value="" style="rounded=0;whiteSpace=wrap;html=1;fillColor=#CFC6AD;strokeColor=#FFF5D6;" vertex="1" parent="qcMehuqhIoSb4eAEawHX-2">
          <mxGeometry x="240" y="90" width="10" height="10" as="geometry" />
        </mxCell>
        <mxCell id="qcMehuqhIoSb4eAEawHX-159" value="" style="rounded=0;whiteSpace=wrap;html=1;fillColor=#CFC6AD;strokeColor=#FFF5D6;" vertex="1" parent="qcMehuqhIoSb4eAEawHX-2">
          <mxGeometry x="240" y="100" width="10" height="10" as="geometry" />
        </mxCell>
        <mxCell id="qcMehuqhIoSb4eAEawHX-160" value="" style="rounded=0;whiteSpace=wrap;html=1;fillColor=#CFC6AD;strokeColor=#FFF5D6;" vertex="1" parent="qcMehuqhIoSb4eAEawHX-2">
          <mxGeometry x="250" y="100" width="10" height="10" as="geometry" />
        </mxCell>
        <mxCell id="qcMehuqhIoSb4eAEawHX-161" value="" style="rounded=0;whiteSpace=wrap;html=1;fillColor=#CFC6AD;strokeColor=#FFF5D6;" vertex="1" parent="qcMehuqhIoSb4eAEawHX-2">
          <mxGeometry x="250" y="90" width="10" height="10" as="geometry" />
        </mxCell>
        <mxCell id="qcMehuqhIoSb4eAEawHX-162" value="" style="rounded=0;whiteSpace=wrap;html=1;fillColor=#CFC6AD;strokeColor=#FFF5D6;" vertex="1" parent="qcMehuqhIoSb4eAEawHX-2">
          <mxGeometry x="260" y="90" width="10" height="10" as="geometry" />
        </mxCell>
        <mxCell id="qcMehuqhIoSb4eAEawHX-163" value="" style="rounded=0;whiteSpace=wrap;html=1;fillColor=#CFC6AD;strokeColor=#FFF5D6;" vertex="1" parent="qcMehuqhIoSb4eAEawHX-2">
          <mxGeometry x="260" y="100" width="10" height="10" as="geometry" />
        </mxCell>
        <mxCell id="qcMehuqhIoSb4eAEawHX-164" value="" style="rounded=0;whiteSpace=wrap;html=1;fillColor=#CFC6AD;strokeColor=#FFF5D6;" vertex="1" parent="qcMehuqhIoSb4eAEawHX-2">
          <mxGeometry x="10" y="110" width="10" height="10" as="geometry" />
        </mxCell>
        <mxCell id="qcMehuqhIoSb4eAEawHX-165" value="" style="rounded=0;whiteSpace=wrap;html=1;fillColor=#CFC6AD;strokeColor=#FFF5D6;" vertex="1" parent="qcMehuqhIoSb4eAEawHX-2">
          <mxGeometry x="20" y="110" width="10" height="10" as="geometry" />
        </mxCell>
        <mxCell id="qcMehuqhIoSb4eAEawHX-166" value="" style="rounded=0;whiteSpace=wrap;html=1;fillColor=#CFC6AD;strokeColor=#FFF5D6;" vertex="1" parent="qcMehuqhIoSb4eAEawHX-2">
          <mxGeometry x="20" y="110" width="10" height="10" as="geometry" />
        </mxCell>
        <mxCell id="qcMehuqhIoSb4eAEawHX-167" value="" style="rounded=0;whiteSpace=wrap;html=1;fillColor=#CFC6AD;strokeColor=#FFF5D6;" vertex="1" parent="qcMehuqhIoSb4eAEawHX-2">
          <mxGeometry x="30" y="110" width="10" height="10" as="geometry" />
        </mxCell>
        <mxCell id="qcMehuqhIoSb4eAEawHX-168" value="" style="rounded=0;whiteSpace=wrap;html=1;fillColor=#CFC6AD;strokeColor=#FFF5D6;" vertex="1" parent="qcMehuqhIoSb4eAEawHX-2">
          <mxGeometry x="40" y="110" width="10" height="10" as="geometry" />
        </mxCell>
        <mxCell id="qcMehuqhIoSb4eAEawHX-169" value="" style="rounded=0;whiteSpace=wrap;html=1;fillColor=#CFC6AD;strokeColor=#FFF5D6;" vertex="1" parent="qcMehuqhIoSb4eAEawHX-2">
          <mxGeometry x="50" y="110" width="10" height="10" as="geometry" />
        </mxCell>
        <mxCell id="qcMehuqhIoSb4eAEawHX-170" value="" style="rounded=0;whiteSpace=wrap;html=1;fillColor=#CFC6AD;strokeColor=#FFF5D6;" vertex="1" parent="qcMehuqhIoSb4eAEawHX-2">
          <mxGeometry x="60" y="110" width="10" height="10" as="geometry" />
        </mxCell>
        <mxCell id="qcMehuqhIoSb4eAEawHX-171" value="" style="rounded=0;whiteSpace=wrap;html=1;fillColor=#CFC6AD;strokeColor=#FFF5D6;" vertex="1" parent="qcMehuqhIoSb4eAEawHX-2">
          <mxGeometry x="70" y="110" width="10" height="10" as="geometry" />
        </mxCell>
        <mxCell id="qcMehuqhIoSb4eAEawHX-172" value="" style="rounded=0;whiteSpace=wrap;html=1;fillColor=#CFC6AD;strokeColor=#FFF5D6;" vertex="1" parent="qcMehuqhIoSb4eAEawHX-2">
          <mxGeometry x="80" y="110" width="10" height="10" as="geometry" />
        </mxCell>
        <mxCell id="qcMehuqhIoSb4eAEawHX-173" value="" style="rounded=0;whiteSpace=wrap;html=1;fillColor=#CFC6AD;strokeColor=#FFF5D6;" vertex="1" parent="qcMehuqhIoSb4eAEawHX-2">
          <mxGeometry x="90" y="110" width="10" height="10" as="geometry" />
        </mxCell>
        <mxCell id="qcMehuqhIoSb4eAEawHX-174" value="" style="rounded=0;whiteSpace=wrap;html=1;fillColor=#CFC6AD;strokeColor=#FFF5D6;" vertex="1" parent="qcMehuqhIoSb4eAEawHX-2">
          <mxGeometry x="100" y="110" width="10" height="10" as="geometry" />
        </mxCell>
        <mxCell id="qcMehuqhIoSb4eAEawHX-175" value="" style="rounded=0;whiteSpace=wrap;html=1;fillColor=#CFC6AD;strokeColor=#FFF5D6;" vertex="1" parent="qcMehuqhIoSb4eAEawHX-2">
          <mxGeometry x="110" y="110" width="10" height="10" as="geometry" />
        </mxCell>
        <mxCell id="qcMehuqhIoSb4eAEawHX-176" value="" style="rounded=0;whiteSpace=wrap;html=1;fillColor=#CFC6AD;strokeColor=#FFF5D6;" vertex="1" parent="qcMehuqhIoSb4eAEawHX-2">
          <mxGeometry x="120" y="110" width="10" height="10" as="geometry" />
        </mxCell>
        <mxCell id="qcMehuqhIoSb4eAEawHX-177" value="" style="rounded=0;whiteSpace=wrap;html=1;fillColor=#CFC6AD;strokeColor=#FFF5D6;" vertex="1" parent="qcMehuqhIoSb4eAEawHX-2">
          <mxGeometry x="130" y="110" width="10" height="10" as="geometry" />
        </mxCell>
        <mxCell id="qcMehuqhIoSb4eAEawHX-178" value="" style="rounded=0;whiteSpace=wrap;html=1;fillColor=#CFC6AD;strokeColor=#FFF5D6;" vertex="1" parent="qcMehuqhIoSb4eAEawHX-2">
          <mxGeometry x="140" y="110" width="10" height="10" as="geometry" />
        </mxCell>
        <mxCell id="qcMehuqhIoSb4eAEawHX-179" value="" style="rounded=0;whiteSpace=wrap;html=1;fillColor=#CFC6AD;strokeColor=#FFF5D6;" vertex="1" parent="qcMehuqhIoSb4eAEawHX-2">
          <mxGeometry x="150" y="110" width="10" height="10" as="geometry" />
        </mxCell>
        <mxCell id="qcMehuqhIoSb4eAEawHX-180" value="" style="rounded=0;whiteSpace=wrap;html=1;fillColor=#CFC6AD;strokeColor=#FFF5D6;" vertex="1" parent="qcMehuqhIoSb4eAEawHX-2">
          <mxGeometry x="160" y="110" width="10" height="10" as="geometry" />
        </mxCell>
        <mxCell id="qcMehuqhIoSb4eAEawHX-181" value="" style="rounded=0;whiteSpace=wrap;html=1;fillColor=#CFC6AD;strokeColor=#FFF5D6;" vertex="1" parent="qcMehuqhIoSb4eAEawHX-2">
          <mxGeometry x="170" y="110" width="10" height="10" as="geometry" />
        </mxCell>
        <mxCell id="qcMehuqhIoSb4eAEawHX-182" value="" style="rounded=0;whiteSpace=wrap;html=1;fillColor=#CFC6AD;strokeColor=#FFF5D6;" vertex="1" parent="qcMehuqhIoSb4eAEawHX-2">
          <mxGeometry x="180" y="110" width="10" height="10" as="geometry" />
        </mxCell>
        <mxCell id="qcMehuqhIoSb4eAEawHX-183" value="" style="rounded=0;whiteSpace=wrap;html=1;fillColor=#CFC6AD;strokeColor=#FFF5D6;" vertex="1" parent="qcMehuqhIoSb4eAEawHX-2">
          <mxGeometry x="190" y="110" width="10" height="10" as="geometry" />
        </mxCell>
        <mxCell id="qcMehuqhIoSb4eAEawHX-184" value="" style="rounded=0;whiteSpace=wrap;html=1;fillColor=#CFC6AD;strokeColor=#FFF5D6;" vertex="1" parent="qcMehuqhIoSb4eAEawHX-2">
          <mxGeometry x="200" y="110" width="10" height="10" as="geometry" />
        </mxCell>
        <mxCell id="qcMehuqhIoSb4eAEawHX-185" value="" style="rounded=0;whiteSpace=wrap;html=1;fillColor=#CFC6AD;strokeColor=#FFF5D6;" vertex="1" parent="qcMehuqhIoSb4eAEawHX-2">
          <mxGeometry x="210" y="110" width="10" height="10" as="geometry" />
        </mxCell>
        <mxCell id="qcMehuqhIoSb4eAEawHX-186" value="" style="rounded=0;whiteSpace=wrap;html=1;fillColor=#CFC6AD;strokeColor=#FFF5D6;" vertex="1" parent="qcMehuqhIoSb4eAEawHX-2">
          <mxGeometry x="220" y="110" width="10" height="10" as="geometry" />
        </mxCell>
        <mxCell id="qcMehuqhIoSb4eAEawHX-187" value="" style="rounded=0;whiteSpace=wrap;html=1;fillColor=#CFC6AD;strokeColor=#FFF5D6;" vertex="1" parent="qcMehuqhIoSb4eAEawHX-2">
          <mxGeometry x="230" y="110" width="10" height="10" as="geometry" />
        </mxCell>
        <mxCell id="qcMehuqhIoSb4eAEawHX-188" value="" style="rounded=0;whiteSpace=wrap;html=1;fillColor=#CFC6AD;strokeColor=#FFF5D6;" vertex="1" parent="qcMehuqhIoSb4eAEawHX-2">
          <mxGeometry x="240" y="110" width="10" height="10" as="geometry" />
        </mxCell>
        <mxCell id="qcMehuqhIoSb4eAEawHX-189" value="" style="rounded=0;whiteSpace=wrap;html=1;fillColor=#CFC6AD;strokeColor=#FFF5D6;" vertex="1" parent="qcMehuqhIoSb4eAEawHX-2">
          <mxGeometry x="250" y="110" width="10" height="10" as="geometry" />
        </mxCell>
        <mxCell id="qcMehuqhIoSb4eAEawHX-190" value="" style="rounded=0;whiteSpace=wrap;html=1;fillColor=#CFC6AD;strokeColor=#FFF5D6;" vertex="1" parent="qcMehuqhIoSb4eAEawHX-2">
          <mxGeometry x="260" y="110" width="10" height="10" as="geometry" />
        </mxCell>
        <mxCell id="qcMehuqhIoSb4eAEawHX-191" value="" style="rounded=0;whiteSpace=wrap;html=1;fillColor=#CFC6AD;strokeColor=#FFF5D6;" vertex="1" parent="qcMehuqhIoSb4eAEawHX-2">
          <mxGeometry x="270" y="70" width="10" height="10" as="geometry" />
        </mxCell>
        <mxCell id="qcMehuqhIoSb4eAEawHX-192" value="" style="rounded=0;whiteSpace=wrap;html=1;fillColor=#CFC6AD;strokeColor=#FFF5D6;" vertex="1" parent="qcMehuqhIoSb4eAEawHX-2">
          <mxGeometry x="270" y="80" width="10" height="10" as="geometry" />
        </mxCell>
        <mxCell id="qcMehuqhIoSb4eAEawHX-193" value="" style="rounded=0;whiteSpace=wrap;html=1;fillColor=#CFC6AD;strokeColor=#FFF5D6;" vertex="1" parent="qcMehuqhIoSb4eAEawHX-2">
          <mxGeometry x="270" y="90" width="10" height="10" as="geometry" />
        </mxCell>
        <mxCell id="qcMehuqhIoSb4eAEawHX-194" value="" style="rounded=0;whiteSpace=wrap;html=1;fillColor=#CFC6AD;strokeColor=#FFF5D6;" vertex="1" parent="qcMehuqhIoSb4eAEawHX-2">
          <mxGeometry x="270" y="100" width="10" height="10" as="geometry" />
        </mxCell>
        <mxCell id="qcMehuqhIoSb4eAEawHX-195" value="" style="rounded=0;whiteSpace=wrap;html=1;fillColor=#CFC6AD;strokeColor=#FFF5D6;" vertex="1" parent="qcMehuqhIoSb4eAEawHX-2">
          <mxGeometry x="270" y="110" width="10" height="10" as="geometry" />
        </mxCell>
        <mxCell id="qcMehuqhIoSb4eAEawHX-196" value="" style="rounded=0;whiteSpace=wrap;html=1;fillColor=#CFC6AD;strokeColor=#FFF5D6;" vertex="1" parent="qcMehuqhIoSb4eAEawHX-2">
          <mxGeometry x="280" y="70" width="10" height="10" as="geometry" />
        </mxCell>
        <mxCell id="qcMehuqhIoSb4eAEawHX-197" value="" style="rounded=0;whiteSpace=wrap;html=1;fillColor=#CFC6AD;strokeColor=#FFF5D6;" vertex="1" parent="qcMehuqhIoSb4eAEawHX-2">
          <mxGeometry x="280" y="80" width="10" height="10" as="geometry" />
        </mxCell>
        <mxCell id="qcMehuqhIoSb4eAEawHX-198" value="" style="rounded=0;whiteSpace=wrap;html=1;fillColor=#CFC6AD;strokeColor=#FFF5D6;" vertex="1" parent="qcMehuqhIoSb4eAEawHX-2">
          <mxGeometry x="280" y="90" width="10" height="10" as="geometry" />
        </mxCell>
        <mxCell id="qcMehuqhIoSb4eAEawHX-199" value="" style="rounded=0;whiteSpace=wrap;html=1;fillColor=#CFC6AD;strokeColor=#FFF5D6;" vertex="1" parent="qcMehuqhIoSb4eAEawHX-2">
          <mxGeometry x="280" y="100" width="10" height="10" as="geometry" />
        </mxCell>
        <mxCell id="qcMehuqhIoSb4eAEawHX-200" value="" style="rounded=0;whiteSpace=wrap;html=1;fillColor=#CFC6AD;strokeColor=#FFF5D6;" vertex="1" parent="qcMehuqhIoSb4eAEawHX-2">
          <mxGeometry x="280" y="110" width="10" height="10" as="geometry" />
        </mxCell>
        <mxCell id="qcMehuqhIoSb4eAEawHX-201" value="" style="rounded=0;whiteSpace=wrap;html=1;fillColor=#CFC6AD;strokeColor=#FFF5D6;" vertex="1" parent="qcMehuqhIoSb4eAEawHX-2">
          <mxGeometry x="290" y="70" width="10" height="10" as="geometry" />
        </mxCell>
        <mxCell id="qcMehuqhIoSb4eAEawHX-202" value="" style="rounded=0;whiteSpace=wrap;html=1;fillColor=#CFC6AD;strokeColor=#FFF5D6;" vertex="1" parent="qcMehuqhIoSb4eAEawHX-2">
          <mxGeometry x="290" y="80" width="10" height="10" as="geometry" />
        </mxCell>
        <mxCell id="qcMehuqhIoSb4eAEawHX-203" value="" style="rounded=0;whiteSpace=wrap;html=1;fillColor=#CFC6AD;strokeColor=#FFF5D6;" vertex="1" parent="qcMehuqhIoSb4eAEawHX-2">
          <mxGeometry x="290" y="90" width="10" height="10" as="geometry" />
        </mxCell>
        <mxCell id="qcMehuqhIoSb4eAEawHX-204" value="" style="rounded=0;whiteSpace=wrap;html=1;fillColor=#CFC6AD;strokeColor=#FFF5D6;" vertex="1" parent="qcMehuqhIoSb4eAEawHX-2">
          <mxGeometry x="290" y="100" width="10" height="10" as="geometry" />
        </mxCell>
        <mxCell id="qcMehuqhIoSb4eAEawHX-205" value="" style="rounded=0;whiteSpace=wrap;html=1;fillColor=#CFC6AD;strokeColor=#FFF5D6;" vertex="1" parent="qcMehuqhIoSb4eAEawHX-2">
          <mxGeometry x="290" y="110" width="10" height="10" as="geometry" />
        </mxCell>
        <mxCell id="qcMehuqhIoSb4eAEawHX-206" value="" style="rounded=0;whiteSpace=wrap;html=1;fillColor=#CFC6AD;strokeColor=#FFF5D6;" vertex="1" parent="qcMehuqhIoSb4eAEawHX-2">
          <mxGeometry x="300" y="70" width="10" height="10" as="geometry" />
        </mxCell>
        <mxCell id="qcMehuqhIoSb4eAEawHX-207" value="" style="rounded=0;whiteSpace=wrap;html=1;fillColor=#CFC6AD;strokeColor=#FFF5D6;" vertex="1" parent="qcMehuqhIoSb4eAEawHX-2">
          <mxGeometry x="300" y="80" width="10" height="10" as="geometry" />
        </mxCell>
        <mxCell id="qcMehuqhIoSb4eAEawHX-208" value="" style="rounded=0;whiteSpace=wrap;html=1;fillColor=#CFC6AD;strokeColor=#FFF5D6;" vertex="1" parent="qcMehuqhIoSb4eAEawHX-2">
          <mxGeometry x="300" y="90" width="10" height="10" as="geometry" />
        </mxCell>
        <mxCell id="qcMehuqhIoSb4eAEawHX-209" value="" style="rounded=0;whiteSpace=wrap;html=1;fillColor=#CFC6AD;strokeColor=#FFF5D6;" vertex="1" parent="qcMehuqhIoSb4eAEawHX-2">
          <mxGeometry x="300" y="100" width="10" height="10" as="geometry" />
        </mxCell>
        <mxCell id="qcMehuqhIoSb4eAEawHX-210" value="" style="rounded=0;whiteSpace=wrap;html=1;fillColor=#CFC6AD;strokeColor=#FFF5D6;" vertex="1" parent="qcMehuqhIoSb4eAEawHX-2">
          <mxGeometry x="300" y="110" width="10" height="10" as="geometry" />
        </mxCell>
        <mxCell id="qcMehuqhIoSb4eAEawHX-211" value="" style="rounded=0;whiteSpace=wrap;html=1;strokeColor=#FFF5D6;fillColor=#CFC6AD;" vertex="1" parent="qcMehuqhIoSb4eAEawHX-2">
          <mxGeometry x="280" y="20" width="10" height="10" as="geometry" />
        </mxCell>
        <mxCell id="qcMehuqhIoSb4eAEawHX-212" value="" style="rounded=0;whiteSpace=wrap;html=1;strokeColor=#FFF5D6;fillColor=#CFC6AD;" vertex="1" parent="qcMehuqhIoSb4eAEawHX-2">
          <mxGeometry x="280" y="30" width="10" height="10" as="geometry" />
        </mxCell>
        <mxCell id="qcMehuqhIoSb4eAEawHX-213" value="" style="rounded=0;whiteSpace=wrap;html=1;strokeColor=#FFF5D6;fillColor=#CFC6AD;" vertex="1" parent="qcMehuqhIoSb4eAEawHX-2">
          <mxGeometry x="290" y="20" width="10" height="10" as="geometry" />
        </mxCell>
        <mxCell id="qcMehuqhIoSb4eAEawHX-214" value="" style="rounded=0;whiteSpace=wrap;html=1;strokeColor=#FFF5D6;fillColor=#CFC6AD;" vertex="1" parent="qcMehuqhIoSb4eAEawHX-2">
          <mxGeometry x="290" y="30" width="10" height="10" as="geometry" />
        </mxCell>
        <mxCell id="qcMehuqhIoSb4eAEawHX-215" value="" style="rounded=0;whiteSpace=wrap;html=1;strokeColor=#FFF5D6;fillColor=#CFC6AD;" vertex="1" parent="qcMehuqhIoSb4eAEawHX-2">
          <mxGeometry x="10" y="130" width="10" height="10" as="geometry" />
        </mxCell>
        <mxCell id="qcMehuqhIoSb4eAEawHX-216" value="" style="rounded=0;whiteSpace=wrap;html=1;strokeColor=#FFF5D6;fillColor=#CFC6AD;" vertex="1" parent="qcMehuqhIoSb4eAEawHX-2">
          <mxGeometry x="10" y="140" width="10" height="10" as="geometry" />
        </mxCell>
        <mxCell id="qcMehuqhIoSb4eAEawHX-217" value="" style="rounded=0;whiteSpace=wrap;html=1;strokeColor=#FFF5D6;fillColor=#CFC6AD;" vertex="1" parent="qcMehuqhIoSb4eAEawHX-2">
          <mxGeometry x="20" y="130" width="10" height="10" as="geometry" />
        </mxCell>
        <mxCell id="qcMehuqhIoSb4eAEawHX-218" value="" style="rounded=0;whiteSpace=wrap;html=1;strokeColor=#FFF5D6;fillColor=#CFC6AD;" vertex="1" parent="qcMehuqhIoSb4eAEawHX-2">
          <mxGeometry x="20" y="140" width="10" height="10" as="geometry" />
        </mxCell>
        <mxCell id="qcMehuqhIoSb4eAEawHX-219" value="" style="rounded=0;whiteSpace=wrap;html=1;strokeColor=#FFF5D6;fillColor=#CFC6AD;" vertex="1" parent="qcMehuqhIoSb4eAEawHX-2">
          <mxGeometry x="30" y="140" width="10" height="10" as="geometry" />
        </mxCell>
        <mxCell id="qcMehuqhIoSb4eAEawHX-220" value="" style="rounded=0;whiteSpace=wrap;html=1;strokeColor=#FFF5D6;fillColor=#CFC6AD;" vertex="1" parent="qcMehuqhIoSb4eAEawHX-2">
          <mxGeometry x="40" y="140" width="10" height="10" as="geometry" />
        </mxCell>
        <mxCell id="qcMehuqhIoSb4eAEawHX-221" value="" style="rounded=0;whiteSpace=wrap;html=1;strokeColor=#FFF5D6;fillColor=#CFC6AD;" vertex="1" parent="qcMehuqhIoSb4eAEawHX-2">
          <mxGeometry x="40" y="140" width="10" height="10" as="geometry" />
        </mxCell>
        <mxCell id="qcMehuqhIoSb4eAEawHX-222" value="" style="rounded=0;whiteSpace=wrap;html=1;strokeColor=#FFF5D6;fillColor=#CFC6AD;" vertex="1" parent="qcMehuqhIoSb4eAEawHX-2">
          <mxGeometry x="50" y="140" width="10" height="10" as="geometry" />
        </mxCell>
        <mxCell id="qcMehuqhIoSb4eAEawHX-223" value="" style="rounded=0;whiteSpace=wrap;html=1;strokeColor=#FFF5D6;fillColor=#CFC6AD;" vertex="1" parent="qcMehuqhIoSb4eAEawHX-2">
          <mxGeometry x="60" y="140" width="10" height="10" as="geometry" />
        </mxCell>
        <mxCell id="qcMehuqhIoSb4eAEawHX-224" value="" style="rounded=0;whiteSpace=wrap;html=1;strokeColor=#FFF5D6;fillColor=#CFC6AD;" vertex="1" parent="qcMehuqhIoSb4eAEawHX-2">
          <mxGeometry x="70" y="140" width="10" height="10" as="geometry" />
        </mxCell>
        <mxCell id="qcMehuqhIoSb4eAEawHX-225" value="" style="rounded=0;whiteSpace=wrap;html=1;strokeColor=#FFF5D6;fillColor=#CFC6AD;" vertex="1" parent="qcMehuqhIoSb4eAEawHX-2">
          <mxGeometry x="80" y="140" width="10" height="10" as="geometry" />
        </mxCell>
        <mxCell id="qcMehuqhIoSb4eAEawHX-226" value="" style="rounded=0;whiteSpace=wrap;html=1;strokeColor=#FFF5D6;fillColor=#CFC6AD;" vertex="1" parent="qcMehuqhIoSb4eAEawHX-2">
          <mxGeometry x="90" y="140" width="10" height="10" as="geometry" />
        </mxCell>
        <mxCell id="qcMehuqhIoSb4eAEawHX-227" value="" style="rounded=0;whiteSpace=wrap;html=1;strokeColor=#FFF5D6;fillColor=#CFC6AD;" vertex="1" parent="qcMehuqhIoSb4eAEawHX-2">
          <mxGeometry x="100" y="140" width="10" height="10" as="geometry" />
        </mxCell>
        <mxCell id="qcMehuqhIoSb4eAEawHX-228" value="" style="rounded=0;whiteSpace=wrap;html=1;strokeColor=#FFF5D6;fillColor=#CFC6AD;" vertex="1" parent="qcMehuqhIoSb4eAEawHX-2">
          <mxGeometry x="110" y="140" width="10" height="10" as="geometry" />
        </mxCell>
        <mxCell id="qcMehuqhIoSb4eAEawHX-229" value="" style="rounded=0;whiteSpace=wrap;html=1;strokeColor=#FFF5D6;fillColor=#CFC6AD;" vertex="1" parent="qcMehuqhIoSb4eAEawHX-2">
          <mxGeometry x="20" y="130" width="10" height="10" as="geometry" />
        </mxCell>
        <mxCell id="qcMehuqhIoSb4eAEawHX-230" value="" style="rounded=0;whiteSpace=wrap;html=1;strokeColor=#FFF5D6;fillColor=#CFC6AD;" vertex="1" parent="qcMehuqhIoSb4eAEawHX-2">
          <mxGeometry x="30" y="130" width="10" height="10" as="geometry" />
        </mxCell>
        <mxCell id="qcMehuqhIoSb4eAEawHX-231" value="" style="rounded=0;whiteSpace=wrap;html=1;strokeColor=#FFF5D6;fillColor=#CFC6AD;" vertex="1" parent="qcMehuqhIoSb4eAEawHX-2">
          <mxGeometry x="40" y="130" width="10" height="10" as="geometry" />
        </mxCell>
        <mxCell id="qcMehuqhIoSb4eAEawHX-232" value="" style="rounded=0;whiteSpace=wrap;html=1;strokeColor=#FFF5D6;fillColor=#CFC6AD;" vertex="1" parent="qcMehuqhIoSb4eAEawHX-2">
          <mxGeometry x="50" y="130" width="10" height="10" as="geometry" />
        </mxCell>
        <mxCell id="qcMehuqhIoSb4eAEawHX-233" value="" style="rounded=0;whiteSpace=wrap;html=1;strokeColor=#FFF5D6;fillColor=#CFC6AD;" vertex="1" parent="qcMehuqhIoSb4eAEawHX-2">
          <mxGeometry x="60" y="130" width="10" height="10" as="geometry" />
        </mxCell>
        <mxCell id="qcMehuqhIoSb4eAEawHX-234" value="" style="rounded=0;whiteSpace=wrap;html=1;strokeColor=#FFF5D6;fillColor=#CFC6AD;" vertex="1" parent="qcMehuqhIoSb4eAEawHX-2">
          <mxGeometry x="70" y="130" width="10" height="10" as="geometry" />
        </mxCell>
        <mxCell id="qcMehuqhIoSb4eAEawHX-235" value="" style="rounded=0;whiteSpace=wrap;html=1;strokeColor=#FFF5D6;fillColor=#CFC6AD;" vertex="1" parent="qcMehuqhIoSb4eAEawHX-2">
          <mxGeometry x="80" y="130" width="10" height="10" as="geometry" />
        </mxCell>
        <mxCell id="qcMehuqhIoSb4eAEawHX-236" value="" style="rounded=0;whiteSpace=wrap;html=1;strokeColor=#FFF5D6;fillColor=#CFC6AD;" vertex="1" parent="qcMehuqhIoSb4eAEawHX-2">
          <mxGeometry x="90" y="130" width="10" height="10" as="geometry" />
        </mxCell>
        <mxCell id="qcMehuqhIoSb4eAEawHX-237" value="" style="rounded=0;whiteSpace=wrap;html=1;strokeColor=#FFF5D6;fillColor=#CFC6AD;" vertex="1" parent="qcMehuqhIoSb4eAEawHX-2">
          <mxGeometry x="100" y="130" width="10" height="10" as="geometry" />
        </mxCell>
        <mxCell id="qcMehuqhIoSb4eAEawHX-238" value="" style="rounded=0;whiteSpace=wrap;html=1;strokeColor=#FFF5D6;fillColor=#CFC6AD;" vertex="1" parent="qcMehuqhIoSb4eAEawHX-2">
          <mxGeometry x="110" y="130" width="10" height="10" as="geometry" />
        </mxCell>
        <mxCell id="qcMehuqhIoSb4eAEawHX-239" value="" style="rounded=0;whiteSpace=wrap;html=1;strokeColor=#FFF5D6;fillColor=#CFC6AD;" vertex="1" parent="qcMehuqhIoSb4eAEawHX-2">
          <mxGeometry x="120" y="130" width="10" height="10" as="geometry" />
        </mxCell>
        <mxCell id="qcMehuqhIoSb4eAEawHX-240" value="" style="rounded=0;whiteSpace=wrap;html=1;strokeColor=#FFF5D6;fillColor=#CFC6AD;" vertex="1" parent="qcMehuqhIoSb4eAEawHX-2">
          <mxGeometry x="120" y="140" width="10" height="10" as="geometry" />
        </mxCell>
        <mxCell id="qcMehuqhIoSb4eAEawHX-241" value="" style="rounded=0;whiteSpace=wrap;html=1;strokeColor=#FFF5D6;fillColor=#CFC6AD;" vertex="1" parent="qcMehuqhIoSb4eAEawHX-2">
          <mxGeometry x="130" y="130" width="10" height="10" as="geometry" />
        </mxCell>
        <mxCell id="qcMehuqhIoSb4eAEawHX-242" value="" style="rounded=0;whiteSpace=wrap;html=1;strokeColor=#FFF5D6;fillColor=#CFC6AD;" vertex="1" parent="qcMehuqhIoSb4eAEawHX-2">
          <mxGeometry x="130" y="140" width="10" height="10" as="geometry" />
        </mxCell>
        <mxCell id="qcMehuqhIoSb4eAEawHX-243" value="" style="rounded=0;whiteSpace=wrap;html=1;strokeColor=#FFF5D6;fillColor=#CFC6AD;" vertex="1" parent="qcMehuqhIoSb4eAEawHX-2">
          <mxGeometry x="140" y="140" width="10" height="10" as="geometry" />
        </mxCell>
        <mxCell id="qcMehuqhIoSb4eAEawHX-244" value="" style="rounded=0;whiteSpace=wrap;html=1;strokeColor=#FFF5D6;fillColor=#CFC6AD;" vertex="1" parent="qcMehuqhIoSb4eAEawHX-2">
          <mxGeometry x="150" y="140" width="10" height="10" as="geometry" />
        </mxCell>
        <mxCell id="qcMehuqhIoSb4eAEawHX-245" value="" style="rounded=0;whiteSpace=wrap;html=1;strokeColor=#FFF5D6;fillColor=#CFC6AD;" vertex="1" parent="qcMehuqhIoSb4eAEawHX-2">
          <mxGeometry x="160" y="140" width="10" height="10" as="geometry" />
        </mxCell>
        <mxCell id="qcMehuqhIoSb4eAEawHX-246" value="" style="rounded=0;whiteSpace=wrap;html=1;strokeColor=#FFF5D6;fillColor=#CFC6AD;" vertex="1" parent="qcMehuqhIoSb4eAEawHX-2">
          <mxGeometry x="170" y="140" width="10" height="10" as="geometry" />
        </mxCell>
        <mxCell id="qcMehuqhIoSb4eAEawHX-247" value="" style="rounded=0;whiteSpace=wrap;html=1;strokeColor=#FFF5D6;fillColor=#CFC6AD;" vertex="1" parent="qcMehuqhIoSb4eAEawHX-2">
          <mxGeometry x="180" y="140" width="10" height="10" as="geometry" />
        </mxCell>
        <mxCell id="qcMehuqhIoSb4eAEawHX-248" value="" style="rounded=0;whiteSpace=wrap;html=1;strokeColor=#FFF5D6;fillColor=#CFC6AD;" vertex="1" parent="qcMehuqhIoSb4eAEawHX-2">
          <mxGeometry x="190" y="140" width="10" height="10" as="geometry" />
        </mxCell>
        <mxCell id="qcMehuqhIoSb4eAEawHX-249" value="" style="rounded=0;whiteSpace=wrap;html=1;strokeColor=#FFF5D6;fillColor=#CFC6AD;" vertex="1" parent="qcMehuqhIoSb4eAEawHX-2">
          <mxGeometry x="200" y="140" width="10" height="10" as="geometry" />
        </mxCell>
        <mxCell id="qcMehuqhIoSb4eAEawHX-250" value="" style="rounded=0;whiteSpace=wrap;html=1;strokeColor=#FFF5D6;fillColor=#CFC6AD;" vertex="1" parent="qcMehuqhIoSb4eAEawHX-2">
          <mxGeometry x="210" y="140" width="10" height="10" as="geometry" />
        </mxCell>
        <mxCell id="qcMehuqhIoSb4eAEawHX-251" value="" style="rounded=0;whiteSpace=wrap;html=1;strokeColor=#FFF5D6;fillColor=#CFC6AD;" vertex="1" parent="qcMehuqhIoSb4eAEawHX-2">
          <mxGeometry x="220" y="140" width="10" height="10" as="geometry" />
        </mxCell>
        <mxCell id="qcMehuqhIoSb4eAEawHX-252" value="" style="rounded=0;whiteSpace=wrap;html=1;strokeColor=#FFF5D6;fillColor=#CFC6AD;" vertex="1" parent="qcMehuqhIoSb4eAEawHX-2">
          <mxGeometry x="230" y="140" width="10" height="10" as="geometry" />
        </mxCell>
        <mxCell id="qcMehuqhIoSb4eAEawHX-253" value="" style="rounded=0;whiteSpace=wrap;html=1;strokeColor=#FFF5D6;fillColor=#CFC6AD;" vertex="1" parent="qcMehuqhIoSb4eAEawHX-2">
          <mxGeometry x="140" y="130" width="10" height="10" as="geometry" />
        </mxCell>
        <mxCell id="qcMehuqhIoSb4eAEawHX-254" value="" style="rounded=0;whiteSpace=wrap;html=1;strokeColor=#FFF5D6;fillColor=#CFC6AD;" vertex="1" parent="qcMehuqhIoSb4eAEawHX-2">
          <mxGeometry x="150" y="130" width="10" height="10" as="geometry" />
        </mxCell>
        <mxCell id="qcMehuqhIoSb4eAEawHX-255" value="" style="rounded=0;whiteSpace=wrap;html=1;strokeColor=#FFF5D6;fillColor=#CFC6AD;" vertex="1" parent="qcMehuqhIoSb4eAEawHX-2">
          <mxGeometry x="160" y="130" width="10" height="10" as="geometry" />
        </mxCell>
        <mxCell id="qcMehuqhIoSb4eAEawHX-256" value="" style="rounded=0;whiteSpace=wrap;html=1;strokeColor=#FFF5D6;fillColor=#CFC6AD;" vertex="1" parent="qcMehuqhIoSb4eAEawHX-2">
          <mxGeometry x="170" y="130" width="10" height="10" as="geometry" />
        </mxCell>
        <mxCell id="qcMehuqhIoSb4eAEawHX-257" value="" style="rounded=0;whiteSpace=wrap;html=1;strokeColor=#FFF5D6;fillColor=#CFC6AD;" vertex="1" parent="qcMehuqhIoSb4eAEawHX-2">
          <mxGeometry x="180" y="130" width="10" height="10" as="geometry" />
        </mxCell>
        <mxCell id="qcMehuqhIoSb4eAEawHX-258" value="" style="rounded=0;whiteSpace=wrap;html=1;strokeColor=#FFF5D6;fillColor=#CFC6AD;" vertex="1" parent="qcMehuqhIoSb4eAEawHX-2">
          <mxGeometry x="190" y="130" width="10" height="10" as="geometry" />
        </mxCell>
        <mxCell id="qcMehuqhIoSb4eAEawHX-259" value="" style="rounded=0;whiteSpace=wrap;html=1;strokeColor=#FFF5D6;fillColor=#CFC6AD;" vertex="1" parent="qcMehuqhIoSb4eAEawHX-2">
          <mxGeometry x="200" y="130" width="10" height="10" as="geometry" />
        </mxCell>
        <mxCell id="qcMehuqhIoSb4eAEawHX-260" value="" style="rounded=0;whiteSpace=wrap;html=1;strokeColor=#FFF5D6;fillColor=#CFC6AD;" vertex="1" parent="qcMehuqhIoSb4eAEawHX-2">
          <mxGeometry x="210" y="130" width="10" height="10" as="geometry" />
        </mxCell>
        <mxCell id="qcMehuqhIoSb4eAEawHX-261" value="" style="rounded=0;whiteSpace=wrap;html=1;strokeColor=#FFF5D6;fillColor=#CFC6AD;" vertex="1" parent="qcMehuqhIoSb4eAEawHX-2">
          <mxGeometry x="220" y="130" width="10" height="10" as="geometry" />
        </mxCell>
        <mxCell id="qcMehuqhIoSb4eAEawHX-262" value="" style="rounded=0;whiteSpace=wrap;html=1;strokeColor=#FFF5D6;fillColor=#CFC6AD;" vertex="1" parent="qcMehuqhIoSb4eAEawHX-2">
          <mxGeometry x="230" y="130" width="10" height="10" as="geometry" />
        </mxCell>
        <mxCell id="qcMehuqhIoSb4eAEawHX-263" value="" style="rounded=0;whiteSpace=wrap;html=1;strokeColor=#FFF5D6;fillColor=#CFC6AD;" vertex="1" parent="qcMehuqhIoSb4eAEawHX-2">
          <mxGeometry x="240" y="130" width="10" height="10" as="geometry" />
        </mxCell>
        <mxCell id="qcMehuqhIoSb4eAEawHX-264" value="" style="rounded=0;whiteSpace=wrap;html=1;strokeColor=#FFF5D6;fillColor=#CFC6AD;" vertex="1" parent="qcMehuqhIoSb4eAEawHX-2">
          <mxGeometry x="240" y="140" width="10" height="10" as="geometry" />
        </mxCell>
        <mxCell id="qcMehuqhIoSb4eAEawHX-265" value="" style="rounded=0;whiteSpace=wrap;html=1;strokeColor=#FFF5D6;fillColor=#CFC6AD;" vertex="1" parent="qcMehuqhIoSb4eAEawHX-2">
          <mxGeometry x="250" y="140" width="10" height="10" as="geometry" />
        </mxCell>
        <mxCell id="qcMehuqhIoSb4eAEawHX-266" value="" style="rounded=0;whiteSpace=wrap;html=1;strokeColor=#FFF5D6;fillColor=#CFC6AD;" vertex="1" parent="qcMehuqhIoSb4eAEawHX-2">
          <mxGeometry x="250" y="130" width="10" height="10" as="geometry" />
        </mxCell>
        <mxCell id="qcMehuqhIoSb4eAEawHX-267" value="" style="rounded=0;whiteSpace=wrap;html=1;strokeColor=#FFF5D6;fillColor=#CFC6AD;" vertex="1" parent="qcMehuqhIoSb4eAEawHX-2">
          <mxGeometry x="260" y="130" width="10" height="10" as="geometry" />
        </mxCell>
        <mxCell id="qcMehuqhIoSb4eAEawHX-268" value="" style="rounded=0;whiteSpace=wrap;html=1;strokeColor=#FFF5D6;fillColor=#CFC6AD;" vertex="1" parent="qcMehuqhIoSb4eAEawHX-2">
          <mxGeometry x="260" y="140" width="10" height="10" as="geometry" />
        </mxCell>
        <mxCell id="qcMehuqhIoSb4eAEawHX-269" value="" style="rounded=0;whiteSpace=wrap;html=1;strokeColor=#FFF5D6;fillColor=#CFC6AD;" vertex="1" parent="qcMehuqhIoSb4eAEawHX-2">
          <mxGeometry x="10" y="150" width="10" height="10" as="geometry" />
        </mxCell>
        <mxCell id="qcMehuqhIoSb4eAEawHX-270" value="" style="rounded=0;whiteSpace=wrap;html=1;strokeColor=#FFF5D6;fillColor=#CFC6AD;" vertex="1" parent="qcMehuqhIoSb4eAEawHX-2">
          <mxGeometry x="10" y="160" width="10" height="10" as="geometry" />
        </mxCell>
        <mxCell id="qcMehuqhIoSb4eAEawHX-271" value="" style="rounded=0;whiteSpace=wrap;html=1;strokeColor=#FFF5D6;fillColor=#CFC6AD;" vertex="1" parent="qcMehuqhIoSb4eAEawHX-2">
          <mxGeometry x="20" y="150" width="10" height="10" as="geometry" />
        </mxCell>
        <mxCell id="qcMehuqhIoSb4eAEawHX-272" value="" style="rounded=0;whiteSpace=wrap;html=1;strokeColor=#FFF5D6;fillColor=#CFC6AD;" vertex="1" parent="qcMehuqhIoSb4eAEawHX-2">
          <mxGeometry x="20" y="160" width="10" height="10" as="geometry" />
        </mxCell>
        <mxCell id="qcMehuqhIoSb4eAEawHX-273" value="" style="rounded=0;whiteSpace=wrap;html=1;strokeColor=#FFF5D6;fillColor=#CFC6AD;" vertex="1" parent="qcMehuqhIoSb4eAEawHX-2">
          <mxGeometry x="30" y="160" width="10" height="10" as="geometry" />
        </mxCell>
        <mxCell id="qcMehuqhIoSb4eAEawHX-274" value="" style="rounded=0;whiteSpace=wrap;html=1;strokeColor=#FFF5D6;fillColor=#CFC6AD;" vertex="1" parent="qcMehuqhIoSb4eAEawHX-2">
          <mxGeometry x="40" y="160" width="10" height="10" as="geometry" />
        </mxCell>
        <mxCell id="qcMehuqhIoSb4eAEawHX-275" value="" style="rounded=0;whiteSpace=wrap;html=1;strokeColor=#FFF5D6;fillColor=#CFC6AD;" vertex="1" parent="qcMehuqhIoSb4eAEawHX-2">
          <mxGeometry x="40" y="160" width="10" height="10" as="geometry" />
        </mxCell>
        <mxCell id="qcMehuqhIoSb4eAEawHX-276" value="" style="rounded=0;whiteSpace=wrap;html=1;strokeColor=#FFF5D6;fillColor=#CFC6AD;" vertex="1" parent="qcMehuqhIoSb4eAEawHX-2">
          <mxGeometry x="50" y="160" width="10" height="10" as="geometry" />
        </mxCell>
        <mxCell id="qcMehuqhIoSb4eAEawHX-277" value="" style="rounded=0;whiteSpace=wrap;html=1;strokeColor=#FFF5D6;fillColor=#CFC6AD;" vertex="1" parent="qcMehuqhIoSb4eAEawHX-2">
          <mxGeometry x="60" y="160" width="10" height="10" as="geometry" />
        </mxCell>
        <mxCell id="qcMehuqhIoSb4eAEawHX-278" value="" style="rounded=0;whiteSpace=wrap;html=1;strokeColor=#FFF5D6;fillColor=#CFC6AD;" vertex="1" parent="qcMehuqhIoSb4eAEawHX-2">
          <mxGeometry x="70" y="160" width="10" height="10" as="geometry" />
        </mxCell>
        <mxCell id="qcMehuqhIoSb4eAEawHX-279" value="" style="rounded=0;whiteSpace=wrap;html=1;strokeColor=#FFF5D6;fillColor=#CFC6AD;" vertex="1" parent="qcMehuqhIoSb4eAEawHX-2">
          <mxGeometry x="80" y="160" width="10" height="10" as="geometry" />
        </mxCell>
        <mxCell id="qcMehuqhIoSb4eAEawHX-280" value="" style="rounded=0;whiteSpace=wrap;html=1;strokeColor=#FFF5D6;fillColor=#CFC6AD;" vertex="1" parent="qcMehuqhIoSb4eAEawHX-2">
          <mxGeometry x="90" y="160" width="10" height="10" as="geometry" />
        </mxCell>
        <mxCell id="qcMehuqhIoSb4eAEawHX-281" value="" style="rounded=0;whiteSpace=wrap;html=1;strokeColor=#FFF5D6;fillColor=#CFC6AD;" vertex="1" parent="qcMehuqhIoSb4eAEawHX-2">
          <mxGeometry x="100" y="160" width="10" height="10" as="geometry" />
        </mxCell>
        <mxCell id="qcMehuqhIoSb4eAEawHX-282" value="" style="rounded=0;whiteSpace=wrap;html=1;strokeColor=#FFF5D6;fillColor=#CFC6AD;" vertex="1" parent="qcMehuqhIoSb4eAEawHX-2">
          <mxGeometry x="110" y="160" width="10" height="10" as="geometry" />
        </mxCell>
        <mxCell id="qcMehuqhIoSb4eAEawHX-283" value="" style="rounded=0;whiteSpace=wrap;html=1;strokeColor=#FFF5D6;fillColor=#CFC6AD;" vertex="1" parent="qcMehuqhIoSb4eAEawHX-2">
          <mxGeometry x="20" y="150" width="10" height="10" as="geometry" />
        </mxCell>
        <mxCell id="qcMehuqhIoSb4eAEawHX-284" value="" style="rounded=0;whiteSpace=wrap;html=1;strokeColor=#FFF5D6;fillColor=#CFC6AD;" vertex="1" parent="qcMehuqhIoSb4eAEawHX-2">
          <mxGeometry x="30" y="150" width="10" height="10" as="geometry" />
        </mxCell>
        <mxCell id="qcMehuqhIoSb4eAEawHX-285" value="" style="rounded=0;whiteSpace=wrap;html=1;strokeColor=#FFF5D6;fillColor=#CFC6AD;" vertex="1" parent="qcMehuqhIoSb4eAEawHX-2">
          <mxGeometry x="40" y="150" width="10" height="10" as="geometry" />
        </mxCell>
        <mxCell id="qcMehuqhIoSb4eAEawHX-286" value="" style="rounded=0;whiteSpace=wrap;html=1;strokeColor=#FFF5D6;fillColor=#CFC6AD;" vertex="1" parent="qcMehuqhIoSb4eAEawHX-2">
          <mxGeometry x="50" y="150" width="10" height="10" as="geometry" />
        </mxCell>
        <mxCell id="qcMehuqhIoSb4eAEawHX-287" value="" style="rounded=0;whiteSpace=wrap;html=1;strokeColor=#FFF5D6;fillColor=#CFC6AD;" vertex="1" parent="qcMehuqhIoSb4eAEawHX-2">
          <mxGeometry x="60" y="150" width="10" height="10" as="geometry" />
        </mxCell>
        <mxCell id="qcMehuqhIoSb4eAEawHX-288" value="" style="rounded=0;whiteSpace=wrap;html=1;strokeColor=#FFF5D6;fillColor=#CFC6AD;" vertex="1" parent="qcMehuqhIoSb4eAEawHX-2">
          <mxGeometry x="70" y="150" width="10" height="10" as="geometry" />
        </mxCell>
        <mxCell id="qcMehuqhIoSb4eAEawHX-289" value="" style="rounded=0;whiteSpace=wrap;html=1;strokeColor=#FFF5D6;fillColor=#CFC6AD;" vertex="1" parent="qcMehuqhIoSb4eAEawHX-2">
          <mxGeometry x="80" y="150" width="10" height="10" as="geometry" />
        </mxCell>
        <mxCell id="qcMehuqhIoSb4eAEawHX-290" value="" style="rounded=0;whiteSpace=wrap;html=1;strokeColor=#FFF5D6;fillColor=#CFC6AD;" vertex="1" parent="qcMehuqhIoSb4eAEawHX-2">
          <mxGeometry x="90" y="150" width="10" height="10" as="geometry" />
        </mxCell>
        <mxCell id="qcMehuqhIoSb4eAEawHX-291" value="" style="rounded=0;whiteSpace=wrap;html=1;strokeColor=#FFF5D6;fillColor=#CFC6AD;" vertex="1" parent="qcMehuqhIoSb4eAEawHX-2">
          <mxGeometry x="100" y="150" width="10" height="10" as="geometry" />
        </mxCell>
        <mxCell id="qcMehuqhIoSb4eAEawHX-292" value="" style="rounded=0;whiteSpace=wrap;html=1;strokeColor=#FFF5D6;fillColor=#CFC6AD;" vertex="1" parent="qcMehuqhIoSb4eAEawHX-2">
          <mxGeometry x="110" y="150" width="10" height="10" as="geometry" />
        </mxCell>
        <mxCell id="qcMehuqhIoSb4eAEawHX-293" value="" style="rounded=0;whiteSpace=wrap;html=1;strokeColor=#FFF5D6;fillColor=#CFC6AD;" vertex="1" parent="qcMehuqhIoSb4eAEawHX-2">
          <mxGeometry x="120" y="150" width="10" height="10" as="geometry" />
        </mxCell>
        <mxCell id="qcMehuqhIoSb4eAEawHX-294" value="" style="rounded=0;whiteSpace=wrap;html=1;strokeColor=#FFF5D6;fillColor=#CFC6AD;" vertex="1" parent="qcMehuqhIoSb4eAEawHX-2">
          <mxGeometry x="120" y="160" width="10" height="10" as="geometry" />
        </mxCell>
        <mxCell id="qcMehuqhIoSb4eAEawHX-295" value="" style="rounded=0;whiteSpace=wrap;html=1;strokeColor=#FFF5D6;fillColor=#CFC6AD;" vertex="1" parent="qcMehuqhIoSb4eAEawHX-2">
          <mxGeometry x="130" y="150" width="10" height="10" as="geometry" />
        </mxCell>
        <mxCell id="qcMehuqhIoSb4eAEawHX-296" value="" style="rounded=0;whiteSpace=wrap;html=1;strokeColor=#FFF5D6;fillColor=#CFC6AD;" vertex="1" parent="qcMehuqhIoSb4eAEawHX-2">
          <mxGeometry x="130" y="160" width="10" height="10" as="geometry" />
        </mxCell>
        <mxCell id="qcMehuqhIoSb4eAEawHX-297" value="" style="rounded=0;whiteSpace=wrap;html=1;strokeColor=#FFF5D6;fillColor=#CFC6AD;" vertex="1" parent="qcMehuqhIoSb4eAEawHX-2">
          <mxGeometry x="140" y="160" width="10" height="10" as="geometry" />
        </mxCell>
        <mxCell id="qcMehuqhIoSb4eAEawHX-298" value="" style="rounded=0;whiteSpace=wrap;html=1;strokeColor=#FFF5D6;fillColor=#CFC6AD;" vertex="1" parent="qcMehuqhIoSb4eAEawHX-2">
          <mxGeometry x="150" y="160" width="10" height="10" as="geometry" />
        </mxCell>
        <mxCell id="qcMehuqhIoSb4eAEawHX-299" value="" style="rounded=0;whiteSpace=wrap;html=1;strokeColor=#FFF5D6;fillColor=#CFC6AD;" vertex="1" parent="qcMehuqhIoSb4eAEawHX-2">
          <mxGeometry x="160" y="160" width="10" height="10" as="geometry" />
        </mxCell>
        <mxCell id="qcMehuqhIoSb4eAEawHX-300" value="" style="rounded=0;whiteSpace=wrap;html=1;strokeColor=#FFF5D6;fillColor=#CFC6AD;" vertex="1" parent="qcMehuqhIoSb4eAEawHX-2">
          <mxGeometry x="170" y="160" width="10" height="10" as="geometry" />
        </mxCell>
        <mxCell id="qcMehuqhIoSb4eAEawHX-301" value="" style="rounded=0;whiteSpace=wrap;html=1;strokeColor=#FFF5D6;fillColor=#CFC6AD;" vertex="1" parent="qcMehuqhIoSb4eAEawHX-2">
          <mxGeometry x="180" y="160" width="10" height="10" as="geometry" />
        </mxCell>
        <mxCell id="qcMehuqhIoSb4eAEawHX-302" value="" style="rounded=0;whiteSpace=wrap;html=1;strokeColor=#FFF5D6;fillColor=#CFC6AD;" vertex="1" parent="qcMehuqhIoSb4eAEawHX-2">
          <mxGeometry x="190" y="160" width="10" height="10" as="geometry" />
        </mxCell>
        <mxCell id="qcMehuqhIoSb4eAEawHX-303" value="" style="rounded=0;whiteSpace=wrap;html=1;strokeColor=#FFF5D6;fillColor=#CFC6AD;" vertex="1" parent="qcMehuqhIoSb4eAEawHX-2">
          <mxGeometry x="200" y="160" width="10" height="10" as="geometry" />
        </mxCell>
        <mxCell id="qcMehuqhIoSb4eAEawHX-304" value="" style="rounded=0;whiteSpace=wrap;html=1;strokeColor=#FFF5D6;fillColor=#CFC6AD;" vertex="1" parent="qcMehuqhIoSb4eAEawHX-2">
          <mxGeometry x="210" y="160" width="10" height="10" as="geometry" />
        </mxCell>
        <mxCell id="qcMehuqhIoSb4eAEawHX-305" value="" style="rounded=0;whiteSpace=wrap;html=1;strokeColor=#FFF5D6;fillColor=#CFC6AD;" vertex="1" parent="qcMehuqhIoSb4eAEawHX-2">
          <mxGeometry x="220" y="160" width="10" height="10" as="geometry" />
        </mxCell>
        <mxCell id="qcMehuqhIoSb4eAEawHX-306" value="" style="rounded=0;whiteSpace=wrap;html=1;strokeColor=#FFF5D6;fillColor=#CFC6AD;" vertex="1" parent="qcMehuqhIoSb4eAEawHX-2">
          <mxGeometry x="230" y="160" width="10" height="10" as="geometry" />
        </mxCell>
        <mxCell id="qcMehuqhIoSb4eAEawHX-307" value="" style="rounded=0;whiteSpace=wrap;html=1;strokeColor=#FFF5D6;fillColor=#CFC6AD;" vertex="1" parent="qcMehuqhIoSb4eAEawHX-2">
          <mxGeometry x="140" y="150" width="10" height="10" as="geometry" />
        </mxCell>
        <mxCell id="qcMehuqhIoSb4eAEawHX-308" value="" style="rounded=0;whiteSpace=wrap;html=1;strokeColor=#FFF5D6;fillColor=#CFC6AD;" vertex="1" parent="qcMehuqhIoSb4eAEawHX-2">
          <mxGeometry x="150" y="150" width="10" height="10" as="geometry" />
        </mxCell>
        <mxCell id="qcMehuqhIoSb4eAEawHX-309" value="" style="rounded=0;whiteSpace=wrap;html=1;strokeColor=#FFF5D6;fillColor=#CFC6AD;" vertex="1" parent="qcMehuqhIoSb4eAEawHX-2">
          <mxGeometry x="160" y="150" width="10" height="10" as="geometry" />
        </mxCell>
        <mxCell id="qcMehuqhIoSb4eAEawHX-310" value="" style="rounded=0;whiteSpace=wrap;html=1;strokeColor=#FFF5D6;fillColor=#CFC6AD;" vertex="1" parent="qcMehuqhIoSb4eAEawHX-2">
          <mxGeometry x="170" y="150" width="10" height="10" as="geometry" />
        </mxCell>
        <mxCell id="qcMehuqhIoSb4eAEawHX-311" value="" style="rounded=0;whiteSpace=wrap;html=1;strokeColor=#FFF5D6;fillColor=#CFC6AD;" vertex="1" parent="qcMehuqhIoSb4eAEawHX-2">
          <mxGeometry x="180" y="150" width="10" height="10" as="geometry" />
        </mxCell>
        <mxCell id="qcMehuqhIoSb4eAEawHX-312" value="" style="rounded=0;whiteSpace=wrap;html=1;strokeColor=#FFF5D6;fillColor=#CFC6AD;" vertex="1" parent="qcMehuqhIoSb4eAEawHX-2">
          <mxGeometry x="190" y="150" width="10" height="10" as="geometry" />
        </mxCell>
        <mxCell id="qcMehuqhIoSb4eAEawHX-313" value="" style="rounded=0;whiteSpace=wrap;html=1;strokeColor=#FFF5D6;fillColor=#CFC6AD;" vertex="1" parent="qcMehuqhIoSb4eAEawHX-2">
          <mxGeometry x="200" y="150" width="10" height="10" as="geometry" />
        </mxCell>
        <mxCell id="qcMehuqhIoSb4eAEawHX-314" value="" style="rounded=0;whiteSpace=wrap;html=1;strokeColor=#FFF5D6;fillColor=#CFC6AD;" vertex="1" parent="qcMehuqhIoSb4eAEawHX-2">
          <mxGeometry x="210" y="150" width="10" height="10" as="geometry" />
        </mxCell>
        <mxCell id="qcMehuqhIoSb4eAEawHX-315" value="" style="rounded=0;whiteSpace=wrap;html=1;strokeColor=#FFF5D6;fillColor=#CFC6AD;" vertex="1" parent="qcMehuqhIoSb4eAEawHX-2">
          <mxGeometry x="220" y="150" width="10" height="10" as="geometry" />
        </mxCell>
        <mxCell id="qcMehuqhIoSb4eAEawHX-316" value="" style="rounded=0;whiteSpace=wrap;html=1;strokeColor=#FFF5D6;fillColor=#CFC6AD;" vertex="1" parent="qcMehuqhIoSb4eAEawHX-2">
          <mxGeometry x="230" y="150" width="10" height="10" as="geometry" />
        </mxCell>
        <mxCell id="qcMehuqhIoSb4eAEawHX-317" value="" style="rounded=0;whiteSpace=wrap;html=1;strokeColor=#FFF5D6;fillColor=#CFC6AD;" vertex="1" parent="qcMehuqhIoSb4eAEawHX-2">
          <mxGeometry x="240" y="150" width="10" height="10" as="geometry" />
        </mxCell>
        <mxCell id="qcMehuqhIoSb4eAEawHX-318" value="" style="rounded=0;whiteSpace=wrap;html=1;strokeColor=#FFF5D6;fillColor=#CFC6AD;" vertex="1" parent="qcMehuqhIoSb4eAEawHX-2">
          <mxGeometry x="240" y="160" width="10" height="10" as="geometry" />
        </mxCell>
        <mxCell id="qcMehuqhIoSb4eAEawHX-319" value="" style="rounded=0;whiteSpace=wrap;html=1;strokeColor=#FFF5D6;fillColor=#CFC6AD;" vertex="1" parent="qcMehuqhIoSb4eAEawHX-2">
          <mxGeometry x="250" y="160" width="10" height="10" as="geometry" />
        </mxCell>
        <mxCell id="qcMehuqhIoSb4eAEawHX-320" value="" style="rounded=0;whiteSpace=wrap;html=1;strokeColor=#FFF5D6;fillColor=#CFC6AD;" vertex="1" parent="qcMehuqhIoSb4eAEawHX-2">
          <mxGeometry x="250" y="150" width="10" height="10" as="geometry" />
        </mxCell>
        <mxCell id="qcMehuqhIoSb4eAEawHX-321" value="" style="rounded=0;whiteSpace=wrap;html=1;strokeColor=#FFF5D6;fillColor=#CFC6AD;" vertex="1" parent="qcMehuqhIoSb4eAEawHX-2">
          <mxGeometry x="260" y="150" width="10" height="10" as="geometry" />
        </mxCell>
        <mxCell id="qcMehuqhIoSb4eAEawHX-322" value="" style="rounded=0;whiteSpace=wrap;html=1;strokeColor=#FFF5D6;fillColor=#CFC6AD;" vertex="1" parent="qcMehuqhIoSb4eAEawHX-2">
          <mxGeometry x="260" y="160" width="10" height="10" as="geometry" />
        </mxCell>
        <mxCell id="qcMehuqhIoSb4eAEawHX-323" value="" style="rounded=0;whiteSpace=wrap;html=1;strokeColor=#FFF5D6;fillColor=#CFC6AD;" vertex="1" parent="qcMehuqhIoSb4eAEawHX-2">
          <mxGeometry x="10" y="170" width="10" height="10" as="geometry" />
        </mxCell>
        <mxCell id="qcMehuqhIoSb4eAEawHX-324" value="" style="rounded=0;whiteSpace=wrap;html=1;strokeColor=#FFF5D6;fillColor=#CFC6AD;" vertex="1" parent="qcMehuqhIoSb4eAEawHX-2">
          <mxGeometry x="20" y="170" width="10" height="10" as="geometry" />
        </mxCell>
        <mxCell id="qcMehuqhIoSb4eAEawHX-325" value="" style="rounded=0;whiteSpace=wrap;html=1;strokeColor=#FFF5D6;fillColor=#CFC6AD;" vertex="1" parent="qcMehuqhIoSb4eAEawHX-2">
          <mxGeometry x="20" y="170" width="10" height="10" as="geometry" />
        </mxCell>
        <mxCell id="qcMehuqhIoSb4eAEawHX-326" value="" style="rounded=0;whiteSpace=wrap;html=1;strokeColor=#FFF5D6;fillColor=#CFC6AD;" vertex="1" parent="qcMehuqhIoSb4eAEawHX-2">
          <mxGeometry x="30" y="170" width="10" height="10" as="geometry" />
        </mxCell>
        <mxCell id="qcMehuqhIoSb4eAEawHX-327" value="" style="rounded=0;whiteSpace=wrap;html=1;strokeColor=#FFF5D6;fillColor=#CFC6AD;" vertex="1" parent="qcMehuqhIoSb4eAEawHX-2">
          <mxGeometry x="40" y="170" width="10" height="10" as="geometry" />
        </mxCell>
        <mxCell id="qcMehuqhIoSb4eAEawHX-328" value="" style="rounded=0;whiteSpace=wrap;html=1;strokeColor=#FFF5D6;fillColor=#CFC6AD;" vertex="1" parent="qcMehuqhIoSb4eAEawHX-2">
          <mxGeometry x="50" y="170" width="10" height="10" as="geometry" />
        </mxCell>
        <mxCell id="qcMehuqhIoSb4eAEawHX-329" value="" style="rounded=0;whiteSpace=wrap;html=1;strokeColor=#FFF5D6;fillColor=#CFC6AD;" vertex="1" parent="qcMehuqhIoSb4eAEawHX-2">
          <mxGeometry x="60" y="170" width="10" height="10" as="geometry" />
        </mxCell>
        <mxCell id="qcMehuqhIoSb4eAEawHX-330" value="" style="rounded=0;whiteSpace=wrap;html=1;strokeColor=#FFF5D6;fillColor=#CFC6AD;" vertex="1" parent="qcMehuqhIoSb4eAEawHX-2">
          <mxGeometry x="70" y="170" width="10" height="10" as="geometry" />
        </mxCell>
        <mxCell id="qcMehuqhIoSb4eAEawHX-331" value="" style="rounded=0;whiteSpace=wrap;html=1;strokeColor=#FFF5D6;fillColor=#CFC6AD;" vertex="1" parent="qcMehuqhIoSb4eAEawHX-2">
          <mxGeometry x="80" y="170" width="10" height="10" as="geometry" />
        </mxCell>
        <mxCell id="qcMehuqhIoSb4eAEawHX-332" value="" style="rounded=0;whiteSpace=wrap;html=1;strokeColor=#FFF5D6;fillColor=#CFC6AD;" vertex="1" parent="qcMehuqhIoSb4eAEawHX-2">
          <mxGeometry x="90" y="170" width="10" height="10" as="geometry" />
        </mxCell>
        <mxCell id="qcMehuqhIoSb4eAEawHX-333" value="" style="rounded=0;whiteSpace=wrap;html=1;strokeColor=#FFF5D6;fillColor=#CFC6AD;" vertex="1" parent="qcMehuqhIoSb4eAEawHX-2">
          <mxGeometry x="100" y="170" width="10" height="10" as="geometry" />
        </mxCell>
        <mxCell id="qcMehuqhIoSb4eAEawHX-334" value="" style="rounded=0;whiteSpace=wrap;html=1;strokeColor=#FFF5D6;fillColor=#CFC6AD;" vertex="1" parent="qcMehuqhIoSb4eAEawHX-2">
          <mxGeometry x="110" y="170" width="10" height="10" as="geometry" />
        </mxCell>
        <mxCell id="qcMehuqhIoSb4eAEawHX-335" value="" style="rounded=0;whiteSpace=wrap;html=1;strokeColor=#FFF5D6;fillColor=#CFC6AD;" vertex="1" parent="qcMehuqhIoSb4eAEawHX-2">
          <mxGeometry x="120" y="170" width="10" height="10" as="geometry" />
        </mxCell>
        <mxCell id="qcMehuqhIoSb4eAEawHX-336" value="" style="rounded=0;whiteSpace=wrap;html=1;strokeColor=#FFF5D6;fillColor=#CFC6AD;" vertex="1" parent="qcMehuqhIoSb4eAEawHX-2">
          <mxGeometry x="130" y="170" width="10" height="10" as="geometry" />
        </mxCell>
        <mxCell id="qcMehuqhIoSb4eAEawHX-337" value="" style="rounded=0;whiteSpace=wrap;html=1;strokeColor=#FFF5D6;fillColor=#CFC6AD;" vertex="1" parent="qcMehuqhIoSb4eAEawHX-2">
          <mxGeometry x="140" y="170" width="10" height="10" as="geometry" />
        </mxCell>
        <mxCell id="qcMehuqhIoSb4eAEawHX-338" value="" style="rounded=0;whiteSpace=wrap;html=1;strokeColor=#FFF5D6;fillColor=#CFC6AD;" vertex="1" parent="qcMehuqhIoSb4eAEawHX-2">
          <mxGeometry x="150" y="170" width="10" height="10" as="geometry" />
        </mxCell>
        <mxCell id="qcMehuqhIoSb4eAEawHX-339" value="" style="rounded=0;whiteSpace=wrap;html=1;strokeColor=#FFF5D6;fillColor=#CFC6AD;" vertex="1" parent="qcMehuqhIoSb4eAEawHX-2">
          <mxGeometry x="160" y="170" width="10" height="10" as="geometry" />
        </mxCell>
        <mxCell id="qcMehuqhIoSb4eAEawHX-340" value="" style="rounded=0;whiteSpace=wrap;html=1;strokeColor=#FFF5D6;fillColor=#CFC6AD;" vertex="1" parent="qcMehuqhIoSb4eAEawHX-2">
          <mxGeometry x="170" y="170" width="10" height="10" as="geometry" />
        </mxCell>
        <mxCell id="qcMehuqhIoSb4eAEawHX-341" value="" style="rounded=0;whiteSpace=wrap;html=1;strokeColor=#FFF5D6;fillColor=#CFC6AD;" vertex="1" parent="qcMehuqhIoSb4eAEawHX-2">
          <mxGeometry x="180" y="170" width="10" height="10" as="geometry" />
        </mxCell>
        <mxCell id="qcMehuqhIoSb4eAEawHX-342" value="" style="rounded=0;whiteSpace=wrap;html=1;strokeColor=#FFF5D6;fillColor=#CFC6AD;" vertex="1" parent="qcMehuqhIoSb4eAEawHX-2">
          <mxGeometry x="190" y="170" width="10" height="10" as="geometry" />
        </mxCell>
        <mxCell id="qcMehuqhIoSb4eAEawHX-343" value="" style="rounded=0;whiteSpace=wrap;html=1;strokeColor=#FFF5D6;fillColor=#CFC6AD;" vertex="1" parent="qcMehuqhIoSb4eAEawHX-2">
          <mxGeometry x="200" y="170" width="10" height="10" as="geometry" />
        </mxCell>
        <mxCell id="qcMehuqhIoSb4eAEawHX-344" value="" style="rounded=0;whiteSpace=wrap;html=1;strokeColor=#FFF5D6;fillColor=#CFC6AD;" vertex="1" parent="qcMehuqhIoSb4eAEawHX-2">
          <mxGeometry x="210" y="170" width="10" height="10" as="geometry" />
        </mxCell>
        <mxCell id="qcMehuqhIoSb4eAEawHX-345" value="" style="rounded=0;whiteSpace=wrap;html=1;strokeColor=#FFF5D6;fillColor=#CFC6AD;" vertex="1" parent="qcMehuqhIoSb4eAEawHX-2">
          <mxGeometry x="220" y="170" width="10" height="10" as="geometry" />
        </mxCell>
        <mxCell id="qcMehuqhIoSb4eAEawHX-346" value="" style="rounded=0;whiteSpace=wrap;html=1;strokeColor=#FFF5D6;fillColor=#CFC6AD;" vertex="1" parent="qcMehuqhIoSb4eAEawHX-2">
          <mxGeometry x="230" y="170" width="10" height="10" as="geometry" />
        </mxCell>
        <mxCell id="qcMehuqhIoSb4eAEawHX-347" value="" style="rounded=0;whiteSpace=wrap;html=1;strokeColor=#FFF5D6;fillColor=#CFC6AD;" vertex="1" parent="qcMehuqhIoSb4eAEawHX-2">
          <mxGeometry x="240" y="170" width="10" height="10" as="geometry" />
        </mxCell>
        <mxCell id="qcMehuqhIoSb4eAEawHX-348" value="" style="rounded=0;whiteSpace=wrap;html=1;strokeColor=#FFF5D6;fillColor=#CFC6AD;" vertex="1" parent="qcMehuqhIoSb4eAEawHX-2">
          <mxGeometry x="250" y="170" width="10" height="10" as="geometry" />
        </mxCell>
        <mxCell id="qcMehuqhIoSb4eAEawHX-349" value="" style="rounded=0;whiteSpace=wrap;html=1;strokeColor=#FFF5D6;fillColor=#CFC6AD;" vertex="1" parent="qcMehuqhIoSb4eAEawHX-2">
          <mxGeometry x="260" y="170" width="10" height="10" as="geometry" />
        </mxCell>
        <mxCell id="qcMehuqhIoSb4eAEawHX-350" value="" style="rounded=0;whiteSpace=wrap;html=1;strokeColor=#FFF5D6;fillColor=#CFC6AD;" vertex="1" parent="qcMehuqhIoSb4eAEawHX-2">
          <mxGeometry x="270" y="130" width="10" height="10" as="geometry" />
        </mxCell>
        <mxCell id="qcMehuqhIoSb4eAEawHX-351" value="" style="rounded=0;whiteSpace=wrap;html=1;strokeColor=#FFF5D6;fillColor=#CFC6AD;" vertex="1" parent="qcMehuqhIoSb4eAEawHX-2">
          <mxGeometry x="270" y="140" width="10" height="10" as="geometry" />
        </mxCell>
        <mxCell id="qcMehuqhIoSb4eAEawHX-352" value="" style="rounded=0;whiteSpace=wrap;html=1;strokeColor=#FFF5D6;fillColor=#CFC6AD;" vertex="1" parent="qcMehuqhIoSb4eAEawHX-2">
          <mxGeometry x="270" y="150" width="10" height="10" as="geometry" />
        </mxCell>
        <mxCell id="qcMehuqhIoSb4eAEawHX-353" value="" style="rounded=0;whiteSpace=wrap;html=1;strokeColor=#FFF5D6;fillColor=#CFC6AD;" vertex="1" parent="qcMehuqhIoSb4eAEawHX-2">
          <mxGeometry x="270" y="160" width="10" height="10" as="geometry" />
        </mxCell>
        <mxCell id="qcMehuqhIoSb4eAEawHX-354" value="" style="rounded=0;whiteSpace=wrap;html=1;strokeColor=#FFF5D6;fillColor=#CFC6AD;" vertex="1" parent="qcMehuqhIoSb4eAEawHX-2">
          <mxGeometry x="270" y="170" width="10" height="10" as="geometry" />
        </mxCell>
        <mxCell id="qcMehuqhIoSb4eAEawHX-355" value="" style="rounded=0;whiteSpace=wrap;html=1;strokeColor=#FFF5D6;fillColor=#CFC6AD;" vertex="1" parent="qcMehuqhIoSb4eAEawHX-2">
          <mxGeometry x="280" y="130" width="10" height="10" as="geometry" />
        </mxCell>
        <mxCell id="qcMehuqhIoSb4eAEawHX-356" value="" style="rounded=0;whiteSpace=wrap;html=1;strokeColor=#FFF5D6;fillColor=#CFC6AD;" vertex="1" parent="qcMehuqhIoSb4eAEawHX-2">
          <mxGeometry x="280" y="140" width="10" height="10" as="geometry" />
        </mxCell>
        <mxCell id="qcMehuqhIoSb4eAEawHX-357" value="" style="rounded=0;whiteSpace=wrap;html=1;strokeColor=#FFF5D6;fillColor=#CFC6AD;" vertex="1" parent="qcMehuqhIoSb4eAEawHX-2">
          <mxGeometry x="280" y="150" width="10" height="10" as="geometry" />
        </mxCell>
        <mxCell id="qcMehuqhIoSb4eAEawHX-358" value="" style="rounded=0;whiteSpace=wrap;html=1;strokeColor=#FFF5D6;fillColor=#CFC6AD;" vertex="1" parent="qcMehuqhIoSb4eAEawHX-2">
          <mxGeometry x="280" y="160" width="10" height="10" as="geometry" />
        </mxCell>
        <mxCell id="qcMehuqhIoSb4eAEawHX-359" value="" style="rounded=0;whiteSpace=wrap;html=1;strokeColor=#FFF5D6;fillColor=#CFC6AD;" vertex="1" parent="qcMehuqhIoSb4eAEawHX-2">
          <mxGeometry x="280" y="170" width="10" height="10" as="geometry" />
        </mxCell>
        <mxCell id="qcMehuqhIoSb4eAEawHX-360" value="" style="rounded=0;whiteSpace=wrap;html=1;strokeColor=#FFF5D6;fillColor=#CFC6AD;" vertex="1" parent="qcMehuqhIoSb4eAEawHX-2">
          <mxGeometry x="290" y="130" width="10" height="10" as="geometry" />
        </mxCell>
        <mxCell id="qcMehuqhIoSb4eAEawHX-361" value="" style="rounded=0;whiteSpace=wrap;html=1;strokeColor=#FFF5D6;fillColor=#CFC6AD;" vertex="1" parent="qcMehuqhIoSb4eAEawHX-2">
          <mxGeometry x="290" y="140" width="10" height="10" as="geometry" />
        </mxCell>
        <mxCell id="qcMehuqhIoSb4eAEawHX-362" value="" style="rounded=0;whiteSpace=wrap;html=1;strokeColor=#FFF5D6;fillColor=#CFC6AD;" vertex="1" parent="qcMehuqhIoSb4eAEawHX-2">
          <mxGeometry x="290" y="150" width="10" height="10" as="geometry" />
        </mxCell>
        <mxCell id="qcMehuqhIoSb4eAEawHX-363" value="" style="rounded=0;whiteSpace=wrap;html=1;strokeColor=#FFF5D6;fillColor=#CFC6AD;" vertex="1" parent="qcMehuqhIoSb4eAEawHX-2">
          <mxGeometry x="290" y="160" width="10" height="10" as="geometry" />
        </mxCell>
        <mxCell id="qcMehuqhIoSb4eAEawHX-364" value="" style="rounded=0;whiteSpace=wrap;html=1;strokeColor=#FFF5D6;fillColor=#CFC6AD;" vertex="1" parent="qcMehuqhIoSb4eAEawHX-2">
          <mxGeometry x="290" y="170" width="10" height="10" as="geometry" />
        </mxCell>
        <mxCell id="qcMehuqhIoSb4eAEawHX-365" value="" style="rounded=0;whiteSpace=wrap;html=1;strokeColor=#FFF5D6;fillColor=#CFC6AD;" vertex="1" parent="qcMehuqhIoSb4eAEawHX-2">
          <mxGeometry x="300" y="130" width="10" height="10" as="geometry" />
        </mxCell>
        <mxCell id="qcMehuqhIoSb4eAEawHX-366" value="" style="rounded=0;whiteSpace=wrap;html=1;strokeColor=#FFF5D6;fillColor=#CFC6AD;" vertex="1" parent="qcMehuqhIoSb4eAEawHX-2">
          <mxGeometry x="300" y="140" width="10" height="10" as="geometry" />
        </mxCell>
        <mxCell id="qcMehuqhIoSb4eAEawHX-367" value="" style="rounded=0;whiteSpace=wrap;html=1;strokeColor=#FFF5D6;fillColor=#CFC6AD;" vertex="1" parent="qcMehuqhIoSb4eAEawHX-2">
          <mxGeometry x="300" y="150" width="10" height="10" as="geometry" />
        </mxCell>
        <mxCell id="qcMehuqhIoSb4eAEawHX-368" value="" style="rounded=0;whiteSpace=wrap;html=1;strokeColor=#FFF5D6;fillColor=#CFC6AD;" vertex="1" parent="qcMehuqhIoSb4eAEawHX-2">
          <mxGeometry x="300" y="160" width="10" height="10" as="geometry" />
        </mxCell>
        <mxCell id="qcMehuqhIoSb4eAEawHX-369" value="" style="rounded=0;whiteSpace=wrap;html=1;strokeColor=#FFF5D6;fillColor=#CFC6AD;" vertex="1" parent="qcMehuqhIoSb4eAEawHX-2">
          <mxGeometry x="300" y="170" width="10" height="10" as="geometry" />
        </mxCell>
        <mxCell id="qcMehuqhIoSb4eAEawHX-370" value="" style="endArrow=none;html=1;rounded=0;strokeColor=#0000FF;" edge="1" parent="qcMehuqhIoSb4eAEawHX-2">
          <mxGeometry width="50" height="50" relative="1" as="geometry">
            <mxPoint x="20" y="240" as="sourcePoint" />
            <mxPoint x="300" y="240" as="targetPoint" />
          </mxGeometry>
        </mxCell>
        <mxCell id="qcMehuqhIoSb4eAEawHX-371" value="-" style="edgeLabel;html=1;align=center;verticalAlign=middle;resizable=0;points=[];labelBackgroundColor=none;" vertex="1" connectable="0" parent="qcMehuqhIoSb4eAEawHX-370">
          <mxGeometry x="-0.9707" y="1" relative="1" as="geometry">
            <mxPoint x="-9" as="offset" />
          </mxGeometry>
        </mxCell>
        <mxCell id="qcMehuqhIoSb4eAEawHX-372" value="-" style="edgeLabel;html=1;align=center;verticalAlign=middle;resizable=0;points=[];labelBackgroundColor=none;" vertex="1" connectable="0" parent="qcMehuqhIoSb4eAEawHX-370">
          <mxGeometry x="0.9689" relative="1" as="geometry">
            <mxPoint x="14" as="offset" />
          </mxGeometry>
        </mxCell>
        <mxCell id="qcMehuqhIoSb4eAEawHX-373" value="" style="rounded=0;whiteSpace=wrap;html=1;strokeColor=#FFF5D6;fillColor=#CFC6AD;" vertex="1" parent="qcMehuqhIoSb4eAEawHX-2">
          <mxGeometry x="20" y="210" width="10" height="10" as="geometry" />
        </mxCell>
        <mxCell id="qcMehuqhIoSb4eAEawHX-374" value="" style="rounded=0;whiteSpace=wrap;html=1;strokeColor=#FFF5D6;fillColor=#CFC6AD;" vertex="1" parent="qcMehuqhIoSb4eAEawHX-2">
          <mxGeometry x="20" y="220" width="10" height="10" as="geometry" />
        </mxCell>
        <mxCell id="qcMehuqhIoSb4eAEawHX-375" value="" style="rounded=0;whiteSpace=wrap;html=1;strokeColor=#FFF5D6;fillColor=#CFC6AD;" vertex="1" parent="qcMehuqhIoSb4eAEawHX-2">
          <mxGeometry x="30" y="210" width="10" height="10" as="geometry" />
        </mxCell>
        <mxCell id="qcMehuqhIoSb4eAEawHX-376" value="" style="rounded=0;whiteSpace=wrap;html=1;strokeColor=#FFF5D6;fillColor=#CFC6AD;" vertex="1" parent="qcMehuqhIoSb4eAEawHX-2">
          <mxGeometry x="30" y="220" width="10" height="10" as="geometry" />
        </mxCell>
        <mxCell id="qcMehuqhIoSb4eAEawHX-377" value="" style="rounded=0;whiteSpace=wrap;html=1;strokeColor=#FFF5D6;fillColor=#CFC6AD;" vertex="1" parent="qcMehuqhIoSb4eAEawHX-2">
          <mxGeometry x="40" y="220" width="10" height="10" as="geometry" />
        </mxCell>
        <mxCell id="qcMehuqhIoSb4eAEawHX-378" value="" style="rounded=0;whiteSpace=wrap;html=1;strokeColor=#FFF5D6;fillColor=#CFC6AD;" vertex="1" parent="qcMehuqhIoSb4eAEawHX-2">
          <mxGeometry x="50" y="220" width="10" height="10" as="geometry" />
        </mxCell>
        <mxCell id="qcMehuqhIoSb4eAEawHX-379" value="" style="endArrow=none;html=1;rounded=0;strokeColor=#CC0000;" edge="1" parent="qcMehuqhIoSb4eAEawHX-2">
          <mxGeometry width="50" height="50" relative="1" as="geometry">
            <mxPoint x="20" y="200" as="sourcePoint" />
            <mxPoint x="300" y="200" as="targetPoint" />
          </mxGeometry>
        </mxCell>
        <mxCell id="qcMehuqhIoSb4eAEawHX-380" value="+" style="edgeLabel;html=1;align=center;verticalAlign=middle;resizable=0;points=[];labelBackgroundColor=none;" vertex="1" connectable="0" parent="qcMehuqhIoSb4eAEawHX-379">
          <mxGeometry x="-0.9828" relative="1" as="geometry">
            <mxPoint x="-8" as="offset" />
          </mxGeometry>
        </mxCell>
        <mxCell id="qcMehuqhIoSb4eAEawHX-381" value="+" style="edgeLabel;html=1;align=center;verticalAlign=middle;resizable=0;points=[];labelBackgroundColor=none;" vertex="1" connectable="0" parent="qcMehuqhIoSb4eAEawHX-379">
          <mxGeometry x="0.9729" y="1" relative="1" as="geometry">
            <mxPoint x="14" as="offset" />
          </mxGeometry>
        </mxCell>
        <mxCell id="qcMehuqhIoSb4eAEawHX-382" value="" style="rounded=0;whiteSpace=wrap;html=1;strokeColor=#FFF5D6;fillColor=#CFC6AD;" vertex="1" parent="qcMehuqhIoSb4eAEawHX-2">
          <mxGeometry x="50" y="220" width="10" height="10" as="geometry" />
        </mxCell>
        <mxCell id="qcMehuqhIoSb4eAEawHX-383" value="" style="rounded=0;whiteSpace=wrap;html=1;strokeColor=#FFF5D6;fillColor=#CFC6AD;" vertex="1" parent="qcMehuqhIoSb4eAEawHX-2">
          <mxGeometry x="60" y="220" width="10" height="10" as="geometry" />
        </mxCell>
        <mxCell id="qcMehuqhIoSb4eAEawHX-384" value="" style="rounded=0;whiteSpace=wrap;html=1;strokeColor=#FFF5D6;fillColor=#CFC6AD;" vertex="1" parent="qcMehuqhIoSb4eAEawHX-2">
          <mxGeometry x="70" y="220" width="10" height="10" as="geometry" />
        </mxCell>
        <mxCell id="qcMehuqhIoSb4eAEawHX-385" value="" style="rounded=0;whiteSpace=wrap;html=1;strokeColor=#FFF5D6;fillColor=#CFC6AD;" vertex="1" parent="qcMehuqhIoSb4eAEawHX-2">
          <mxGeometry x="80" y="220" width="10" height="10" as="geometry" />
        </mxCell>
        <mxCell id="qcMehuqhIoSb4eAEawHX-386" value="" style="rounded=0;whiteSpace=wrap;html=1;strokeColor=#FFF5D6;fillColor=#CFC6AD;" vertex="1" parent="qcMehuqhIoSb4eAEawHX-2">
          <mxGeometry x="90" y="220" width="10" height="10" as="geometry" />
        </mxCell>
        <mxCell id="qcMehuqhIoSb4eAEawHX-387" value="" style="rounded=0;whiteSpace=wrap;html=1;strokeColor=#FFF5D6;fillColor=#CFC6AD;" vertex="1" parent="qcMehuqhIoSb4eAEawHX-2">
          <mxGeometry x="100" y="220" width="10" height="10" as="geometry" />
        </mxCell>
        <mxCell id="qcMehuqhIoSb4eAEawHX-388" value="" style="rounded=0;whiteSpace=wrap;html=1;strokeColor=#FFF5D6;fillColor=#CFC6AD;" vertex="1" parent="qcMehuqhIoSb4eAEawHX-2">
          <mxGeometry x="110" y="220" width="10" height="10" as="geometry" />
        </mxCell>
        <mxCell id="qcMehuqhIoSb4eAEawHX-389" value="" style="rounded=0;whiteSpace=wrap;html=1;strokeColor=#FFF5D6;fillColor=#CFC6AD;" vertex="1" parent="qcMehuqhIoSb4eAEawHX-2">
          <mxGeometry x="120" y="220" width="10" height="10" as="geometry" />
        </mxCell>
        <mxCell id="qcMehuqhIoSb4eAEawHX-390" value="" style="rounded=0;whiteSpace=wrap;html=1;strokeColor=#FFF5D6;fillColor=#CFC6AD;" vertex="1" parent="qcMehuqhIoSb4eAEawHX-2">
          <mxGeometry x="30" y="210" width="10" height="10" as="geometry" />
        </mxCell>
        <mxCell id="qcMehuqhIoSb4eAEawHX-391" value="" style="rounded=0;whiteSpace=wrap;html=1;strokeColor=#FFF5D6;fillColor=#CFC6AD;" vertex="1" parent="qcMehuqhIoSb4eAEawHX-2">
          <mxGeometry x="40" y="210" width="10" height="10" as="geometry" />
        </mxCell>
        <mxCell id="qcMehuqhIoSb4eAEawHX-392" value="" style="rounded=0;whiteSpace=wrap;html=1;strokeColor=#FFF5D6;fillColor=#CFC6AD;" vertex="1" parent="qcMehuqhIoSb4eAEawHX-2">
          <mxGeometry x="50" y="210" width="10" height="10" as="geometry" />
        </mxCell>
        <mxCell id="qcMehuqhIoSb4eAEawHX-393" value="" style="rounded=0;whiteSpace=wrap;html=1;strokeColor=#FFF5D6;fillColor=#CFC6AD;" vertex="1" parent="qcMehuqhIoSb4eAEawHX-2">
          <mxGeometry x="60" y="210" width="10" height="10" as="geometry" />
        </mxCell>
        <mxCell id="qcMehuqhIoSb4eAEawHX-394" value="" style="rounded=0;whiteSpace=wrap;html=1;strokeColor=#FFF5D6;fillColor=#CFC6AD;" vertex="1" parent="qcMehuqhIoSb4eAEawHX-2">
          <mxGeometry x="70" y="210" width="10" height="10" as="geometry" />
        </mxCell>
        <mxCell id="qcMehuqhIoSb4eAEawHX-395" value="" style="rounded=0;whiteSpace=wrap;html=1;strokeColor=#FFF5D6;fillColor=#CFC6AD;" vertex="1" parent="qcMehuqhIoSb4eAEawHX-2">
          <mxGeometry x="80" y="210" width="10" height="10" as="geometry" />
        </mxCell>
        <mxCell id="qcMehuqhIoSb4eAEawHX-396" value="" style="rounded=0;whiteSpace=wrap;html=1;strokeColor=#FFF5D6;fillColor=#CFC6AD;" vertex="1" parent="qcMehuqhIoSb4eAEawHX-2">
          <mxGeometry x="90" y="210" width="10" height="10" as="geometry" />
        </mxCell>
        <mxCell id="qcMehuqhIoSb4eAEawHX-397" value="" style="rounded=0;whiteSpace=wrap;html=1;strokeColor=#FFF5D6;fillColor=#CFC6AD;" vertex="1" parent="qcMehuqhIoSb4eAEawHX-2">
          <mxGeometry x="100" y="210" width="10" height="10" as="geometry" />
        </mxCell>
        <mxCell id="qcMehuqhIoSb4eAEawHX-398" value="" style="rounded=0;whiteSpace=wrap;html=1;strokeColor=#FFF5D6;fillColor=#CFC6AD;" vertex="1" parent="qcMehuqhIoSb4eAEawHX-2">
          <mxGeometry x="110" y="210" width="10" height="10" as="geometry" />
        </mxCell>
        <mxCell id="qcMehuqhIoSb4eAEawHX-399" value="" style="rounded=0;whiteSpace=wrap;html=1;strokeColor=#FFF5D6;fillColor=#CFC6AD;" vertex="1" parent="qcMehuqhIoSb4eAEawHX-2">
          <mxGeometry x="120" y="210" width="10" height="10" as="geometry" />
        </mxCell>
        <mxCell id="qcMehuqhIoSb4eAEawHX-400" value="" style="rounded=0;whiteSpace=wrap;html=1;strokeColor=#FFF5D6;fillColor=#CFC6AD;" vertex="1" parent="qcMehuqhIoSb4eAEawHX-2">
          <mxGeometry x="130" y="210" width="10" height="10" as="geometry" />
        </mxCell>
        <mxCell id="qcMehuqhIoSb4eAEawHX-401" value="" style="rounded=0;whiteSpace=wrap;html=1;strokeColor=#FFF5D6;fillColor=#CFC6AD;" vertex="1" parent="qcMehuqhIoSb4eAEawHX-2">
          <mxGeometry x="130" y="220" width="10" height="10" as="geometry" />
        </mxCell>
        <mxCell id="qcMehuqhIoSb4eAEawHX-402" value="" style="rounded=0;whiteSpace=wrap;html=1;strokeColor=#FFF5D6;fillColor=#CFC6AD;" vertex="1" parent="qcMehuqhIoSb4eAEawHX-2">
          <mxGeometry x="140" y="210" width="10" height="10" as="geometry" />
        </mxCell>
        <mxCell id="qcMehuqhIoSb4eAEawHX-403" value="" style="rounded=0;whiteSpace=wrap;html=1;strokeColor=#FFF5D6;fillColor=#CFC6AD;" vertex="1" parent="qcMehuqhIoSb4eAEawHX-2">
          <mxGeometry x="140" y="220" width="10" height="10" as="geometry" />
        </mxCell>
        <mxCell id="qcMehuqhIoSb4eAEawHX-404" value="" style="rounded=0;whiteSpace=wrap;html=1;strokeColor=#FFF5D6;fillColor=#CFC6AD;" vertex="1" parent="qcMehuqhIoSb4eAEawHX-2">
          <mxGeometry x="150" y="220" width="10" height="10" as="geometry" />
        </mxCell>
        <mxCell id="qcMehuqhIoSb4eAEawHX-405" value="" style="rounded=0;whiteSpace=wrap;html=1;strokeColor=#FFF5D6;fillColor=#CFC6AD;" vertex="1" parent="qcMehuqhIoSb4eAEawHX-2">
          <mxGeometry x="160" y="220" width="10" height="10" as="geometry" />
        </mxCell>
        <mxCell id="qcMehuqhIoSb4eAEawHX-406" value="" style="rounded=0;whiteSpace=wrap;html=1;strokeColor=#FFF5D6;fillColor=#CFC6AD;" vertex="1" parent="qcMehuqhIoSb4eAEawHX-2">
          <mxGeometry x="170" y="220" width="10" height="10" as="geometry" />
        </mxCell>
        <mxCell id="qcMehuqhIoSb4eAEawHX-407" value="" style="rounded=0;whiteSpace=wrap;html=1;strokeColor=#FFF5D6;fillColor=#CFC6AD;" vertex="1" parent="qcMehuqhIoSb4eAEawHX-2">
          <mxGeometry x="180" y="220" width="10" height="10" as="geometry" />
        </mxCell>
        <mxCell id="qcMehuqhIoSb4eAEawHX-408" value="" style="rounded=0;whiteSpace=wrap;html=1;strokeColor=#FFF5D6;fillColor=#CFC6AD;" vertex="1" parent="qcMehuqhIoSb4eAEawHX-2">
          <mxGeometry x="190" y="220" width="10" height="10" as="geometry" />
        </mxCell>
        <mxCell id="qcMehuqhIoSb4eAEawHX-409" value="" style="rounded=0;whiteSpace=wrap;html=1;strokeColor=#FFF5D6;fillColor=#CFC6AD;" vertex="1" parent="qcMehuqhIoSb4eAEawHX-2">
          <mxGeometry x="200" y="220" width="10" height="10" as="geometry" />
        </mxCell>
        <mxCell id="qcMehuqhIoSb4eAEawHX-410" value="" style="rounded=0;whiteSpace=wrap;html=1;strokeColor=#FFF5D6;fillColor=#CFC6AD;" vertex="1" parent="qcMehuqhIoSb4eAEawHX-2">
          <mxGeometry x="210" y="220" width="10" height="10" as="geometry" />
        </mxCell>
        <mxCell id="qcMehuqhIoSb4eAEawHX-411" value="" style="rounded=0;whiteSpace=wrap;html=1;strokeColor=#FFF5D6;fillColor=#CFC6AD;" vertex="1" parent="qcMehuqhIoSb4eAEawHX-2">
          <mxGeometry x="220" y="220" width="10" height="10" as="geometry" />
        </mxCell>
        <mxCell id="qcMehuqhIoSb4eAEawHX-412" value="" style="rounded=0;whiteSpace=wrap;html=1;strokeColor=#FFF5D6;fillColor=#CFC6AD;" vertex="1" parent="qcMehuqhIoSb4eAEawHX-2">
          <mxGeometry x="230" y="220" width="10" height="10" as="geometry" />
        </mxCell>
        <mxCell id="qcMehuqhIoSb4eAEawHX-413" value="" style="rounded=0;whiteSpace=wrap;html=1;strokeColor=#FFF5D6;fillColor=#CFC6AD;" vertex="1" parent="qcMehuqhIoSb4eAEawHX-2">
          <mxGeometry x="240" y="220" width="10" height="10" as="geometry" />
        </mxCell>
        <mxCell id="qcMehuqhIoSb4eAEawHX-414" value="" style="rounded=0;whiteSpace=wrap;html=1;strokeColor=#FFF5D6;fillColor=#CFC6AD;" vertex="1" parent="qcMehuqhIoSb4eAEawHX-2">
          <mxGeometry x="150" y="210" width="10" height="10" as="geometry" />
        </mxCell>
        <mxCell id="qcMehuqhIoSb4eAEawHX-415" value="" style="rounded=0;whiteSpace=wrap;html=1;strokeColor=#FFF5D6;fillColor=#CFC6AD;" vertex="1" parent="qcMehuqhIoSb4eAEawHX-2">
          <mxGeometry x="160" y="210" width="10" height="10" as="geometry" />
        </mxCell>
        <mxCell id="qcMehuqhIoSb4eAEawHX-416" value="" style="rounded=0;whiteSpace=wrap;html=1;strokeColor=#FFF5D6;fillColor=#CFC6AD;" vertex="1" parent="qcMehuqhIoSb4eAEawHX-2">
          <mxGeometry x="170" y="210" width="10" height="10" as="geometry" />
        </mxCell>
        <mxCell id="qcMehuqhIoSb4eAEawHX-417" value="" style="rounded=0;whiteSpace=wrap;html=1;strokeColor=#FFF5D6;fillColor=#CFC6AD;" vertex="1" parent="qcMehuqhIoSb4eAEawHX-2">
          <mxGeometry x="180" y="210" width="10" height="10" as="geometry" />
        </mxCell>
        <mxCell id="qcMehuqhIoSb4eAEawHX-418" value="" style="rounded=0;whiteSpace=wrap;html=1;strokeColor=#FFF5D6;fillColor=#CFC6AD;" vertex="1" parent="qcMehuqhIoSb4eAEawHX-2">
          <mxGeometry x="190" y="210" width="10" height="10" as="geometry" />
        </mxCell>
        <mxCell id="qcMehuqhIoSb4eAEawHX-419" value="" style="rounded=0;whiteSpace=wrap;html=1;strokeColor=#FFF5D6;fillColor=#CFC6AD;" vertex="1" parent="qcMehuqhIoSb4eAEawHX-2">
          <mxGeometry x="200" y="210" width="10" height="10" as="geometry" />
        </mxCell>
        <mxCell id="qcMehuqhIoSb4eAEawHX-420" value="" style="rounded=0;whiteSpace=wrap;html=1;strokeColor=#FFF5D6;fillColor=#CFC6AD;" vertex="1" parent="qcMehuqhIoSb4eAEawHX-2">
          <mxGeometry x="210" y="210" width="10" height="10" as="geometry" />
        </mxCell>
        <mxCell id="qcMehuqhIoSb4eAEawHX-421" value="" style="rounded=0;whiteSpace=wrap;html=1;strokeColor=#FFF5D6;fillColor=#CFC6AD;" vertex="1" parent="qcMehuqhIoSb4eAEawHX-2">
          <mxGeometry x="220" y="210" width="10" height="10" as="geometry" />
        </mxCell>
        <mxCell id="qcMehuqhIoSb4eAEawHX-422" value="" style="rounded=0;whiteSpace=wrap;html=1;strokeColor=#FFF5D6;fillColor=#CFC6AD;" vertex="1" parent="qcMehuqhIoSb4eAEawHX-2">
          <mxGeometry x="230" y="210" width="10" height="10" as="geometry" />
        </mxCell>
        <mxCell id="qcMehuqhIoSb4eAEawHX-423" value="" style="rounded=0;whiteSpace=wrap;html=1;strokeColor=#FFF5D6;fillColor=#CFC6AD;" vertex="1" parent="qcMehuqhIoSb4eAEawHX-2">
          <mxGeometry x="240" y="210" width="10" height="10" as="geometry" />
        </mxCell>
        <mxCell id="qcMehuqhIoSb4eAEawHX-424" value="" style="rounded=0;whiteSpace=wrap;html=1;strokeColor=#FFF5D6;fillColor=#CFC6AD;" vertex="1" parent="qcMehuqhIoSb4eAEawHX-2">
          <mxGeometry x="250" y="210" width="10" height="10" as="geometry" />
        </mxCell>
        <mxCell id="qcMehuqhIoSb4eAEawHX-425" value="" style="rounded=0;whiteSpace=wrap;html=1;strokeColor=#FFF5D6;fillColor=#CFC6AD;" vertex="1" parent="qcMehuqhIoSb4eAEawHX-2">
          <mxGeometry x="250" y="220" width="10" height="10" as="geometry" />
        </mxCell>
        <mxCell id="qcMehuqhIoSb4eAEawHX-426" value="" style="rounded=0;whiteSpace=wrap;html=1;strokeColor=#FFF5D6;fillColor=#CFC6AD;" vertex="1" parent="qcMehuqhIoSb4eAEawHX-2">
          <mxGeometry x="260" y="220" width="10" height="10" as="geometry" />
        </mxCell>
        <mxCell id="qcMehuqhIoSb4eAEawHX-427" value="" style="rounded=0;whiteSpace=wrap;html=1;strokeColor=#FFF5D6;fillColor=#CFC6AD;" vertex="1" parent="qcMehuqhIoSb4eAEawHX-2">
          <mxGeometry x="260" y="210" width="10" height="10" as="geometry" />
        </mxCell>
        <mxCell id="qcMehuqhIoSb4eAEawHX-428" value="" style="rounded=0;whiteSpace=wrap;html=1;strokeColor=#FFF5D6;fillColor=#CFC6AD;" vertex="1" parent="qcMehuqhIoSb4eAEawHX-2">
          <mxGeometry x="270" y="210" width="10" height="10" as="geometry" />
        </mxCell>
        <mxCell id="qcMehuqhIoSb4eAEawHX-429" value="" style="rounded=0;whiteSpace=wrap;html=1;strokeColor=#FFF5D6;fillColor=#CFC6AD;" vertex="1" parent="qcMehuqhIoSb4eAEawHX-2">
          <mxGeometry x="270" y="220" width="10" height="10" as="geometry" />
        </mxCell>
        <mxCell id="qcMehuqhIoSb4eAEawHX-430" value="" style="rounded=0;whiteSpace=wrap;html=1;strokeColor=#FFF5D6;fillColor=#CFC6AD;" vertex="1" parent="qcMehuqhIoSb4eAEawHX-2">
          <mxGeometry x="280" y="210" width="10" height="10" as="geometry" />
        </mxCell>
        <mxCell id="qcMehuqhIoSb4eAEawHX-431" value="" style="rounded=0;whiteSpace=wrap;html=1;strokeColor=#FFF5D6;fillColor=#CFC6AD;" vertex="1" parent="qcMehuqhIoSb4eAEawHX-2">
          <mxGeometry x="280" y="220" width="10" height="10" as="geometry" />
        </mxCell>
        <mxCell id="qcMehuqhIoSb4eAEawHX-432" value="" style="rounded=0;whiteSpace=wrap;html=1;strokeColor=#FFF5D6;fillColor=#CFC6AD;" vertex="1" parent="qcMehuqhIoSb4eAEawHX-2">
          <mxGeometry x="290" y="210" width="10" height="10" as="geometry" />
        </mxCell>
        <mxCell id="qcMehuqhIoSb4eAEawHX-433" value="" style="rounded=0;whiteSpace=wrap;html=1;strokeColor=#FFF5D6;fillColor=#CFC6AD;" vertex="1" parent="qcMehuqhIoSb4eAEawHX-2">
          <mxGeometry x="290" y="220" width="10" height="10" as="geometry" />
        </mxCell>
        <mxCell id="qcMehuqhIoSb4eAEawHX-434" value="" style="rounded=0;whiteSpace=wrap;html=1;strokeColor=#FFF5D6;fillColor=#CFC6AD;" vertex="1" parent="qcMehuqhIoSb4eAEawHX-2">
          <mxGeometry x="10" y="20" width="10" height="10" as="geometry" />
        </mxCell>
        <mxCell id="qcMehuqhIoSb4eAEawHX-435" value="" style="rounded=0;whiteSpace=wrap;html=1;strokeColor=#FFF5D6;fillColor=#CFC6AD;" vertex="1" parent="qcMehuqhIoSb4eAEawHX-2">
          <mxGeometry x="10" y="30" width="10" height="10" as="geometry" />
        </mxCell>
        <mxCell id="qcMehuqhIoSb4eAEawHX-436" value="" style="rounded=0;whiteSpace=wrap;html=1;strokeColor=#FFF5D6;fillColor=#CFC6AD;" vertex="1" parent="qcMehuqhIoSb4eAEawHX-2">
          <mxGeometry x="10" y="210" width="10" height="10" as="geometry" />
        </mxCell>
        <mxCell id="qcMehuqhIoSb4eAEawHX-437" value="" style="rounded=0;whiteSpace=wrap;html=1;strokeColor=#FFF5D6;fillColor=#CFC6AD;" vertex="1" parent="qcMehuqhIoSb4eAEawHX-2">
          <mxGeometry x="10" y="220" width="10" height="10" as="geometry" />
        </mxCell>
        <mxCell id="qcMehuqhIoSb4eAEawHX-438" value="30" style="rounded=0;whiteSpace=wrap;html=1;fontSize=7;fillColor=none;strokeColor=none;" vertex="1" parent="qcMehuqhIoSb4eAEawHX-2">
          <mxGeometry x="10" y="180" width="10" height="10" as="geometry" />
        </mxCell>
        <mxCell id="qcMehuqhIoSb4eAEawHX-439" value="" style="rounded=0;whiteSpace=wrap;html=1;fontSize=7;fillColor=none;strokeColor=none;" vertex="1" parent="qcMehuqhIoSb4eAEawHX-2">
          <mxGeometry x="20" y="180" width="10" height="10" as="geometry" />
        </mxCell>
        <mxCell id="qcMehuqhIoSb4eAEawHX-440" value="29" style="rounded=0;whiteSpace=wrap;html=1;fontSize=7;fillColor=none;strokeColor=none;" vertex="1" parent="qcMehuqhIoSb4eAEawHX-2">
          <mxGeometry x="20" y="180" width="10" height="10" as="geometry" />
        </mxCell>
        <mxCell id="qcMehuqhIoSb4eAEawHX-441" value="28" style="rounded=0;whiteSpace=wrap;html=1;fontSize=7;fillColor=none;strokeColor=none;" vertex="1" parent="qcMehuqhIoSb4eAEawHX-2">
          <mxGeometry x="30" y="180" width="10" height="10" as="geometry" />
        </mxCell>
        <mxCell id="qcMehuqhIoSb4eAEawHX-442" value="27" style="rounded=0;whiteSpace=wrap;html=1;fontSize=7;fillColor=none;strokeColor=none;" vertex="1" parent="qcMehuqhIoSb4eAEawHX-2">
          <mxGeometry x="40" y="180" width="10" height="10" as="geometry" />
        </mxCell>
        <mxCell id="qcMehuqhIoSb4eAEawHX-443" value="26" style="rounded=0;whiteSpace=wrap;html=1;fontSize=7;fillColor=none;strokeColor=none;" vertex="1" parent="qcMehuqhIoSb4eAEawHX-2">
          <mxGeometry x="50" y="180" width="10" height="10" as="geometry" />
        </mxCell>
        <mxCell id="qcMehuqhIoSb4eAEawHX-444" value="24" style="rounded=0;whiteSpace=wrap;html=1;fontSize=7;fillColor=none;strokeColor=none;" vertex="1" parent="qcMehuqhIoSb4eAEawHX-2">
          <mxGeometry x="60" y="180" width="10" height="10" as="geometry" />
        </mxCell>
        <mxCell id="qcMehuqhIoSb4eAEawHX-445" value="24" style="rounded=0;whiteSpace=wrap;html=1;fontSize=7;fillColor=none;strokeColor=none;" vertex="1" parent="qcMehuqhIoSb4eAEawHX-2">
          <mxGeometry x="70" y="180" width="10" height="10" as="geometry" />
        </mxCell>
        <mxCell id="qcMehuqhIoSb4eAEawHX-446" value="23" style="rounded=0;whiteSpace=wrap;html=1;fontSize=7;fillColor=none;strokeColor=none;" vertex="1" parent="qcMehuqhIoSb4eAEawHX-2">
          <mxGeometry x="80" y="180" width="10" height="10" as="geometry" />
        </mxCell>
        <mxCell id="qcMehuqhIoSb4eAEawHX-447" value="22" style="rounded=0;whiteSpace=wrap;html=1;fontSize=7;fillColor=none;strokeColor=none;" vertex="1" parent="qcMehuqhIoSb4eAEawHX-2">
          <mxGeometry x="90" y="180" width="10" height="10" as="geometry" />
        </mxCell>
        <mxCell id="qcMehuqhIoSb4eAEawHX-448" value="21" style="rounded=0;whiteSpace=wrap;html=1;fontSize=7;fillColor=none;strokeColor=none;" vertex="1" parent="qcMehuqhIoSb4eAEawHX-2">
          <mxGeometry x="100" y="180" width="10" height="10" as="geometry" />
        </mxCell>
        <mxCell id="qcMehuqhIoSb4eAEawHX-449" value="20" style="rounded=0;whiteSpace=wrap;html=1;fontSize=7;fillColor=none;strokeColor=none;" vertex="1" parent="qcMehuqhIoSb4eAEawHX-2">
          <mxGeometry x="110" y="180" width="10" height="10" as="geometry" />
        </mxCell>
        <mxCell id="qcMehuqhIoSb4eAEawHX-450" value="19" style="rounded=0;whiteSpace=wrap;html=1;fontSize=7;fillColor=none;strokeColor=none;" vertex="1" parent="qcMehuqhIoSb4eAEawHX-2">
          <mxGeometry x="120" y="180" width="10" height="10" as="geometry" />
        </mxCell>
        <mxCell id="qcMehuqhIoSb4eAEawHX-451" value="18" style="rounded=0;whiteSpace=wrap;html=1;fontSize=7;fillColor=none;strokeColor=none;" vertex="1" parent="qcMehuqhIoSb4eAEawHX-2">
          <mxGeometry x="130" y="180" width="10" height="10" as="geometry" />
        </mxCell>
        <mxCell id="qcMehuqhIoSb4eAEawHX-452" value="17" style="rounded=0;whiteSpace=wrap;html=1;fontSize=7;fillColor=none;strokeColor=none;" vertex="1" parent="qcMehuqhIoSb4eAEawHX-2">
          <mxGeometry x="140" y="180" width="10" height="10" as="geometry" />
        </mxCell>
        <mxCell id="qcMehuqhIoSb4eAEawHX-453" value="16" style="rounded=0;whiteSpace=wrap;html=1;fontSize=7;fillColor=none;strokeColor=none;" vertex="1" parent="qcMehuqhIoSb4eAEawHX-2">
          <mxGeometry x="150" y="180" width="10" height="10" as="geometry" />
        </mxCell>
        <mxCell id="qcMehuqhIoSb4eAEawHX-454" value="15" style="rounded=0;whiteSpace=wrap;html=1;fontSize=7;fillColor=none;strokeColor=none;" vertex="1" parent="qcMehuqhIoSb4eAEawHX-2">
          <mxGeometry x="160" y="180" width="10" height="10" as="geometry" />
        </mxCell>
        <mxCell id="qcMehuqhIoSb4eAEawHX-455" value="14" style="rounded=0;whiteSpace=wrap;html=1;fontSize=7;fillColor=none;strokeColor=none;" vertex="1" parent="qcMehuqhIoSb4eAEawHX-2">
          <mxGeometry x="170" y="180" width="10" height="10" as="geometry" />
        </mxCell>
        <mxCell id="qcMehuqhIoSb4eAEawHX-456" value="13" style="rounded=0;whiteSpace=wrap;html=1;fontSize=7;fillColor=none;strokeColor=none;" vertex="1" parent="qcMehuqhIoSb4eAEawHX-2">
          <mxGeometry x="180" y="180" width="10" height="10" as="geometry" />
        </mxCell>
        <mxCell id="qcMehuqhIoSb4eAEawHX-457" value="12" style="rounded=0;whiteSpace=wrap;html=1;fontSize=7;fillColor=none;strokeColor=none;" vertex="1" parent="qcMehuqhIoSb4eAEawHX-2">
          <mxGeometry x="190" y="180" width="10" height="10" as="geometry" />
        </mxCell>
        <mxCell id="qcMehuqhIoSb4eAEawHX-458" value="11" style="rounded=0;whiteSpace=wrap;html=1;fontSize=7;fillColor=none;strokeColor=none;" vertex="1" parent="qcMehuqhIoSb4eAEawHX-2">
          <mxGeometry x="200" y="180" width="10" height="10" as="geometry" />
        </mxCell>
        <mxCell id="qcMehuqhIoSb4eAEawHX-459" value="10" style="rounded=0;whiteSpace=wrap;html=1;fontSize=7;fillColor=none;strokeColor=none;" vertex="1" parent="qcMehuqhIoSb4eAEawHX-2">
          <mxGeometry x="210" y="180" width="10" height="10" as="geometry" />
        </mxCell>
        <mxCell id="qcMehuqhIoSb4eAEawHX-460" value="9" style="rounded=0;whiteSpace=wrap;html=1;fontSize=7;fillColor=none;strokeColor=none;" vertex="1" parent="qcMehuqhIoSb4eAEawHX-2">
          <mxGeometry x="220" y="180" width="10" height="10" as="geometry" />
        </mxCell>
        <mxCell id="qcMehuqhIoSb4eAEawHX-461" value="8" style="rounded=0;whiteSpace=wrap;html=1;fontSize=7;fillColor=none;strokeColor=none;" vertex="1" parent="qcMehuqhIoSb4eAEawHX-2">
          <mxGeometry x="230" y="180" width="10" height="10" as="geometry" />
        </mxCell>
        <mxCell id="qcMehuqhIoSb4eAEawHX-462" value="7" style="rounded=0;whiteSpace=wrap;html=1;fontSize=7;fillColor=none;strokeColor=none;" vertex="1" parent="qcMehuqhIoSb4eAEawHX-2">
          <mxGeometry x="240" y="180" width="10" height="10" as="geometry" />
        </mxCell>
        <mxCell id="qcMehuqhIoSb4eAEawHX-463" value="6" style="rounded=0;whiteSpace=wrap;html=1;fontSize=7;fillColor=none;strokeColor=none;" vertex="1" parent="qcMehuqhIoSb4eAEawHX-2">
          <mxGeometry x="250" y="180" width="10" height="10" as="geometry" />
        </mxCell>
        <mxCell id="qcMehuqhIoSb4eAEawHX-464" value="5" style="rounded=0;whiteSpace=wrap;html=1;fontSize=7;fillColor=none;strokeColor=none;" vertex="1" parent="qcMehuqhIoSb4eAEawHX-2">
          <mxGeometry x="260" y="180" width="10" height="10" as="geometry" />
        </mxCell>
        <mxCell id="qcMehuqhIoSb4eAEawHX-465" value="4" style="rounded=0;whiteSpace=wrap;html=1;fontSize=7;fillColor=none;strokeColor=none;" vertex="1" parent="qcMehuqhIoSb4eAEawHX-2">
          <mxGeometry x="270" y="180" width="10" height="10" as="geometry" />
        </mxCell>
        <mxCell id="qcMehuqhIoSb4eAEawHX-466" value="3" style="rounded=0;whiteSpace=wrap;html=1;fontSize=7;fillColor=none;strokeColor=none;" vertex="1" parent="qcMehuqhIoSb4eAEawHX-2">
          <mxGeometry x="280" y="180" width="10" height="10" as="geometry" />
        </mxCell>
        <mxCell id="qcMehuqhIoSb4eAEawHX-467" value="2" style="rounded=0;whiteSpace=wrap;html=1;fontSize=7;fillColor=none;strokeColor=none;" vertex="1" parent="qcMehuqhIoSb4eAEawHX-2">
          <mxGeometry x="290" y="180" width="10" height="10" as="geometry" />
        </mxCell>
        <mxCell id="qcMehuqhIoSb4eAEawHX-468" value="1" style="rounded=0;whiteSpace=wrap;html=1;fontSize=7;fillColor=none;strokeColor=none;" vertex="1" parent="qcMehuqhIoSb4eAEawHX-2">
          <mxGeometry x="300" y="180" width="10" height="10" as="geometry" />
        </mxCell>
        <mxCell id="qcMehuqhIoSb4eAEawHX-469" value="30" style="rounded=0;whiteSpace=wrap;html=1;fontSize=7;fillColor=none;strokeColor=none;" vertex="1" parent="qcMehuqhIoSb4eAEawHX-2">
          <mxGeometry x="10" y="60" width="10" height="10" as="geometry" />
        </mxCell>
        <mxCell id="qcMehuqhIoSb4eAEawHX-470" value="" style="rounded=0;whiteSpace=wrap;html=1;fontSize=7;fillColor=none;strokeColor=none;" vertex="1" parent="qcMehuqhIoSb4eAEawHX-2">
          <mxGeometry x="20" y="60" width="10" height="10" as="geometry" />
        </mxCell>
        <mxCell id="qcMehuqhIoSb4eAEawHX-471" value="29" style="rounded=0;whiteSpace=wrap;html=1;fontSize=7;fillColor=none;strokeColor=none;" vertex="1" parent="qcMehuqhIoSb4eAEawHX-2">
          <mxGeometry x="20" y="60" width="10" height="10" as="geometry" />
        </mxCell>
        <mxCell id="qcMehuqhIoSb4eAEawHX-472" value="28" style="rounded=0;whiteSpace=wrap;html=1;fontSize=7;fillColor=none;strokeColor=none;" vertex="1" parent="qcMehuqhIoSb4eAEawHX-2">
          <mxGeometry x="30" y="60" width="10" height="10" as="geometry" />
        </mxCell>
        <mxCell id="qcMehuqhIoSb4eAEawHX-473" value="27" style="rounded=0;whiteSpace=wrap;html=1;fontSize=7;fillColor=none;strokeColor=none;" vertex="1" parent="qcMehuqhIoSb4eAEawHX-2">
          <mxGeometry x="40" y="60" width="10" height="10" as="geometry" />
        </mxCell>
        <mxCell id="qcMehuqhIoSb4eAEawHX-474" value="26" style="rounded=0;whiteSpace=wrap;html=1;fontSize=7;fillColor=none;strokeColor=none;" vertex="1" parent="qcMehuqhIoSb4eAEawHX-2">
          <mxGeometry x="50" y="60" width="10" height="10" as="geometry" />
        </mxCell>
        <mxCell id="qcMehuqhIoSb4eAEawHX-475" value="25" style="rounded=0;whiteSpace=wrap;html=1;fontSize=7;fillColor=none;strokeColor=none;" vertex="1" parent="qcMehuqhIoSb4eAEawHX-2">
          <mxGeometry x="60" y="60" width="10" height="10" as="geometry" />
        </mxCell>
        <mxCell id="qcMehuqhIoSb4eAEawHX-476" value="24" style="rounded=0;whiteSpace=wrap;html=1;fontSize=7;fillColor=none;strokeColor=none;" vertex="1" parent="qcMehuqhIoSb4eAEawHX-2">
          <mxGeometry x="70" y="60" width="10" height="10" as="geometry" />
        </mxCell>
        <mxCell id="qcMehuqhIoSb4eAEawHX-477" value="23" style="rounded=0;whiteSpace=wrap;html=1;fontSize=7;fillColor=none;strokeColor=none;" vertex="1" parent="qcMehuqhIoSb4eAEawHX-2">
          <mxGeometry x="80" y="60" width="10" height="10" as="geometry" />
        </mxCell>
        <mxCell id="qcMehuqhIoSb4eAEawHX-478" value="22" style="rounded=0;whiteSpace=wrap;html=1;fontSize=7;fillColor=none;strokeColor=none;" vertex="1" parent="qcMehuqhIoSb4eAEawHX-2">
          <mxGeometry x="90" y="60" width="10" height="10" as="geometry" />
        </mxCell>
        <mxCell id="qcMehuqhIoSb4eAEawHX-479" value="21" style="rounded=0;whiteSpace=wrap;html=1;fontSize=7;fillColor=none;strokeColor=none;" vertex="1" parent="qcMehuqhIoSb4eAEawHX-2">
          <mxGeometry x="100" y="60" width="10" height="10" as="geometry" />
        </mxCell>
        <mxCell id="qcMehuqhIoSb4eAEawHX-480" value="20" style="rounded=0;whiteSpace=wrap;html=1;fontSize=7;fillColor=none;strokeColor=none;" vertex="1" parent="qcMehuqhIoSb4eAEawHX-2">
          <mxGeometry x="110" y="60" width="10" height="10" as="geometry" />
        </mxCell>
        <mxCell id="qcMehuqhIoSb4eAEawHX-481" value="19" style="rounded=0;whiteSpace=wrap;html=1;fontSize=7;fillColor=none;strokeColor=none;" vertex="1" parent="qcMehuqhIoSb4eAEawHX-2">
          <mxGeometry x="120" y="60" width="10" height="10" as="geometry" />
        </mxCell>
        <mxCell id="qcMehuqhIoSb4eAEawHX-482" value="18" style="rounded=0;whiteSpace=wrap;html=1;fontSize=7;fillColor=none;strokeColor=none;" vertex="1" parent="qcMehuqhIoSb4eAEawHX-2">
          <mxGeometry x="130" y="60" width="10" height="10" as="geometry" />
        </mxCell>
        <mxCell id="qcMehuqhIoSb4eAEawHX-483" value="17" style="rounded=0;whiteSpace=wrap;html=1;fontSize=7;fillColor=none;strokeColor=none;" vertex="1" parent="qcMehuqhIoSb4eAEawHX-2">
          <mxGeometry x="140" y="60" width="10" height="10" as="geometry" />
        </mxCell>
        <mxCell id="qcMehuqhIoSb4eAEawHX-484" value="16" style="rounded=0;whiteSpace=wrap;html=1;fontSize=7;fillColor=none;strokeColor=none;" vertex="1" parent="qcMehuqhIoSb4eAEawHX-2">
          <mxGeometry x="150" y="60" width="10" height="10" as="geometry" />
        </mxCell>
        <mxCell id="qcMehuqhIoSb4eAEawHX-485" value="15" style="rounded=0;whiteSpace=wrap;html=1;fontSize=7;fillColor=none;strokeColor=none;" vertex="1" parent="qcMehuqhIoSb4eAEawHX-2">
          <mxGeometry x="160" y="60" width="10" height="10" as="geometry" />
        </mxCell>
        <mxCell id="qcMehuqhIoSb4eAEawHX-486" value="14" style="rounded=0;whiteSpace=wrap;html=1;fontSize=7;fillColor=none;strokeColor=none;" vertex="1" parent="qcMehuqhIoSb4eAEawHX-2">
          <mxGeometry x="170" y="60" width="10" height="10" as="geometry" />
        </mxCell>
        <mxCell id="qcMehuqhIoSb4eAEawHX-487" value="13" style="rounded=0;whiteSpace=wrap;html=1;fontSize=7;fillColor=none;strokeColor=none;" vertex="1" parent="qcMehuqhIoSb4eAEawHX-2">
          <mxGeometry x="180" y="60" width="10" height="10" as="geometry" />
        </mxCell>
        <mxCell id="qcMehuqhIoSb4eAEawHX-488" value="12" style="rounded=0;whiteSpace=wrap;html=1;fontSize=7;fillColor=none;strokeColor=none;" vertex="1" parent="qcMehuqhIoSb4eAEawHX-2">
          <mxGeometry x="190" y="60" width="10" height="10" as="geometry" />
        </mxCell>
        <mxCell id="qcMehuqhIoSb4eAEawHX-489" value="11" style="rounded=0;whiteSpace=wrap;html=1;fontSize=7;fillColor=none;strokeColor=none;" vertex="1" parent="qcMehuqhIoSb4eAEawHX-2">
          <mxGeometry x="200" y="60" width="10" height="10" as="geometry" />
        </mxCell>
        <mxCell id="qcMehuqhIoSb4eAEawHX-490" value="10" style="rounded=0;whiteSpace=wrap;html=1;fontSize=7;fillColor=none;strokeColor=none;" vertex="1" parent="qcMehuqhIoSb4eAEawHX-2">
          <mxGeometry x="210" y="60" width="10" height="10" as="geometry" />
        </mxCell>
        <mxCell id="qcMehuqhIoSb4eAEawHX-491" value="9" style="rounded=0;whiteSpace=wrap;html=1;fontSize=7;fillColor=none;strokeColor=none;" vertex="1" parent="qcMehuqhIoSb4eAEawHX-2">
          <mxGeometry x="220" y="60" width="10" height="10" as="geometry" />
        </mxCell>
        <mxCell id="qcMehuqhIoSb4eAEawHX-492" value="8" style="rounded=0;whiteSpace=wrap;html=1;fontSize=7;fillColor=none;strokeColor=none;" vertex="1" parent="qcMehuqhIoSb4eAEawHX-2">
          <mxGeometry x="230" y="60" width="10" height="10" as="geometry" />
        </mxCell>
        <mxCell id="qcMehuqhIoSb4eAEawHX-493" value="7" style="rounded=0;whiteSpace=wrap;html=1;fontSize=7;fillColor=none;strokeColor=none;" vertex="1" parent="qcMehuqhIoSb4eAEawHX-2">
          <mxGeometry x="240" y="60" width="10" height="10" as="geometry" />
        </mxCell>
        <mxCell id="qcMehuqhIoSb4eAEawHX-494" value="6" style="rounded=0;whiteSpace=wrap;html=1;fontSize=7;fillColor=none;strokeColor=none;" vertex="1" parent="qcMehuqhIoSb4eAEawHX-2">
          <mxGeometry x="250" y="60" width="10" height="10" as="geometry" />
        </mxCell>
        <mxCell id="qcMehuqhIoSb4eAEawHX-495" value="5" style="rounded=0;whiteSpace=wrap;html=1;fontSize=7;fillColor=none;strokeColor=none;" vertex="1" parent="qcMehuqhIoSb4eAEawHX-2">
          <mxGeometry x="260" y="60" width="10" height="10" as="geometry" />
        </mxCell>
        <mxCell id="qcMehuqhIoSb4eAEawHX-496" value="4" style="rounded=0;whiteSpace=wrap;html=1;fontSize=7;fillColor=none;strokeColor=none;" vertex="1" parent="qcMehuqhIoSb4eAEawHX-2">
          <mxGeometry x="270" y="60" width="10" height="10" as="geometry" />
        </mxCell>
        <mxCell id="qcMehuqhIoSb4eAEawHX-497" value="3" style="rounded=0;whiteSpace=wrap;html=1;fontSize=7;fillColor=none;strokeColor=none;" vertex="1" parent="qcMehuqhIoSb4eAEawHX-2">
          <mxGeometry x="280" y="60" width="10" height="10" as="geometry" />
        </mxCell>
        <mxCell id="qcMehuqhIoSb4eAEawHX-498" value="2" style="rounded=0;whiteSpace=wrap;html=1;fontSize=7;fillColor=none;strokeColor=none;" vertex="1" parent="qcMehuqhIoSb4eAEawHX-2">
          <mxGeometry x="290" y="60" width="10" height="10" as="geometry" />
        </mxCell>
        <mxCell id="qcMehuqhIoSb4eAEawHX-499" value="1" style="rounded=0;whiteSpace=wrap;html=1;fontSize=7;fillColor=none;strokeColor=none;" vertex="1" parent="qcMehuqhIoSb4eAEawHX-2">
          <mxGeometry x="300" y="60" width="10" height="10" as="geometry" />
        </mxCell>
        <mxCell id="qcMehuqhIoSb4eAEawHX-546" style="edgeStyle=orthogonalEdgeStyle;rounded=0;orthogonalLoop=1;jettySize=auto;html=1;exitX=0.5;exitY=0;exitDx=0;exitDy=0;entryX=0.5;entryY=1;entryDx=0;entryDy=0;curved=1;endArrow=none;startFill=0;strokeWidth=2;" edge="1" parent="qcMehuqhIoSb4eAEawHX-2" source="qcMehuqhIoSb4eAEawHX-359" target="qcMehuqhIoSb4eAEawHX-431">
          <mxGeometry relative="1" as="geometry">
            <Array as="points">
              <mxPoint x="300" y="170" />
              <mxPoint x="300" y="230" />
            </Array>
          </mxGeometry>
        </mxCell>
        <mxCell id="qcMehuqhIoSb4eAEawHX-1603" style="rounded=0;orthogonalLoop=1;jettySize=auto;html=1;exitX=0.145;exitY=1;exitDx=0;exitDy=-4.35;exitPerimeter=0;entryX=0.5;entryY=1;entryDx=0;entryDy=0;endArrow=none;startFill=0;" edge="1" parent="qcMehuqhIoSb4eAEawHX-2" source="qcMehuqhIoSb4eAEawHX-558" target="qcMehuqhIoSb4eAEawHX-73">
          <mxGeometry relative="1" as="geometry" />
        </mxCell>
        <mxCell id="qcMehuqhIoSb4eAEawHX-559" style="rounded=0;orthogonalLoop=1;jettySize=auto;html=1;exitX=0.855;exitY=1;exitDx=0;exitDy=-4.35;exitPerimeter=0;entryX=0.5;entryY=0;entryDx=0;entryDy=0;endArrow=none;startFill=0;strokeColor=#FF0000;" edge="1" parent="qcMehuqhIoSb4eAEawHX-2" source="qcMehuqhIoSb4eAEawHX-558" target="qcMehuqhIoSb4eAEawHX-64">
          <mxGeometry relative="1" as="geometry" />
        </mxCell>
        <mxCell id="qcMehuqhIoSb4eAEawHX-1608" style="edgeStyle=orthogonalEdgeStyle;rounded=1;orthogonalLoop=1;jettySize=auto;html=1;exitX=0.5;exitY=1;exitDx=0;exitDy=0;exitPerimeter=0;entryX=0.5;entryY=1;entryDx=0;entryDy=0;endArrow=none;startFill=0;strokeColor=#FF0000;curved=0;" edge="1" parent="qcMehuqhIoSb4eAEawHX-2" source="qcMehuqhIoSb4eAEawHX-1605" target="qcMehuqhIoSb4eAEawHX-223">
          <mxGeometry relative="1" as="geometry">
            <Array as="points">
              <mxPoint x="75" y="150" />
            </Array>
          </mxGeometry>
        </mxCell>
        <mxCell id="qcMehuqhIoSb4eAEawHX-1609" style="edgeStyle=orthogonalEdgeStyle;rounded=1;orthogonalLoop=1;jettySize=auto;html=1;exitX=0.5;exitY=0;exitDx=0;exitDy=0;exitPerimeter=0;entryX=0.5;entryY=0;entryDx=0;entryDy=0;endArrow=none;startFill=0;fillColor=#f8cecc;strokeColor=#FF0000;curved=0;" edge="1" parent="qcMehuqhIoSb4eAEawHX-2" source="qcMehuqhIoSb4eAEawHX-1605" target="qcMehuqhIoSb4eAEawHX-118">
          <mxGeometry relative="1" as="geometry">
            <Array as="points">
              <mxPoint x="75" y="100" />
            </Array>
          </mxGeometry>
        </mxCell>
        <mxCell id="qcMehuqhIoSb4eAEawHX-1605" value="" style="shape=cylinder3;whiteSpace=wrap;html=1;boundedLbl=1;backgroundOutline=1;size=3.3999999999999773;fillColor=#ffe6cc;strokeColor=#d79b00;rotation=0;" vertex="1" parent="qcMehuqhIoSb4eAEawHX-2">
          <mxGeometry x="70" y="110" width="10" height="27.5" as="geometry" />
        </mxCell>
        <mxCell id="qcMehuqhIoSb4eAEawHX-558" value="" style="shape=cylinder3;whiteSpace=wrap;html=1;boundedLbl=1;backgroundOutline=1;size=7.666666666666686;fillColor=#f8cecc;strokeColor=#b85450;" vertex="1" parent="qcMehuqhIoSb4eAEawHX-2">
          <mxGeometry x="50" y="20" width="20" height="40" as="geometry" />
        </mxCell>
        <mxCell id="qcMehuqhIoSb4eAEawHX-1610" style="edgeStyle=orthogonalEdgeStyle;rounded=0;orthogonalLoop=1;jettySize=auto;html=1;exitX=0.5;exitY=0;exitDx=0;exitDy=0;entryX=0.5;entryY=0;entryDx=0;entryDy=0;endArrow=none;startFill=0;strokeColor=#FF0000;curved=1;strokeWidth=2;" edge="1" parent="qcMehuqhIoSb4eAEawHX-2" source="qcMehuqhIoSb4eAEawHX-342" target="qcMehuqhIoSb4eAEawHX-329">
          <mxGeometry relative="1" as="geometry">
            <Array as="points">
              <mxPoint x="195" y="190" />
              <mxPoint x="65" y="190" />
            </Array>
          </mxGeometry>
        </mxCell>
        <mxCell id="qcMehuqhIoSb4eAEawHX-1612" style="edgeStyle=orthogonalEdgeStyle;rounded=0;orthogonalLoop=1;jettySize=auto;html=1;exitX=0.5;exitY=1;exitDx=0;exitDy=0;entryX=0.5;entryY=0;entryDx=0;entryDy=0;endArrow=none;startFill=0;curved=1;strokeWidth=2;" edge="1" parent="qcMehuqhIoSb4eAEawHX-2" source="qcMehuqhIoSb4eAEawHX-382" target="qcMehuqhIoSb4eAEawHX-169">
          <mxGeometry relative="1" as="geometry">
            <Array as="points">
              <mxPoint x="40" y="230" />
              <mxPoint x="40" y="110" />
            </Array>
          </mxGeometry>
        </mxCell>
        <mxCell id="qcMehuqhIoSb4eAEawHX-500" value="" style="group" vertex="1" connectable="0" parent="qcMehuqhIoSb4eAEawHX-1">
          <mxGeometry x="109" y="90" width="230.00000000000023" height="70" as="geometry" />
        </mxCell>
        <mxCell id="qcMehuqhIoSb4eAEawHX-501" value="" style="rounded=0;whiteSpace=wrap;html=1;fillColor=#336600;fontColor=#ffffff;strokeColor=#009900;container=0;" vertex="1" parent="qcMehuqhIoSb4eAEawHX-500">
          <mxGeometry width="215.88" height="70" as="geometry" />
        </mxCell>
        <mxCell id="qcMehuqhIoSb4eAEawHX-502" value="" style="rounded=0;whiteSpace=wrap;html=1;fillColor=#A8A8A8;strokeColor=#E0E0E0;container=0;" vertex="1" parent="qcMehuqhIoSb4eAEawHX-500">
          <mxGeometry x="201.76470588235316" y="21.66666666666663" width="28.23529411764706" height="26.666666666666664" as="geometry" />
        </mxCell>
        <mxCell id="qcMehuqhIoSb4eAEawHX-503" value="" style="rounded=0;whiteSpace=wrap;html=1;strokeColor=#858585;container=0;fillColor=#333333;" vertex="1" parent="qcMehuqhIoSb4eAEawHX-500">
          <mxGeometry x="91.00000000000023" y="20" width="28.24" height="30" as="geometry" />
        </mxCell>
        <mxCell id="qcMehuqhIoSb4eAEawHX-504" value="" style="rounded=0;whiteSpace=wrap;html=1;fillColor=#e3c800;fontColor=#000000;strokeColor=#B09500;container=0;" vertex="1" parent="qcMehuqhIoSb4eAEawHX-500">
          <mxGeometry x="11.000000000000227" y="60" width="10" height="10" as="geometry" />
        </mxCell>
        <mxCell id="qcMehuqhIoSb4eAEawHX-505" value="" style="rounded=0;whiteSpace=wrap;html=1;fillColor=#e3c800;fontColor=#000000;strokeColor=#B09500;container=0;" vertex="1" parent="qcMehuqhIoSb4eAEawHX-500">
          <mxGeometry x="21.000000000000227" y="60" width="10" height="10" as="geometry" />
        </mxCell>
        <mxCell id="qcMehuqhIoSb4eAEawHX-506" value="" style="rounded=0;whiteSpace=wrap;html=1;fillColor=#e3c800;fontColor=#000000;strokeColor=#B09500;container=0;" vertex="1" parent="qcMehuqhIoSb4eAEawHX-500">
          <mxGeometry x="31.000000000000227" y="60" width="10" height="10" as="geometry" />
        </mxCell>
        <mxCell id="qcMehuqhIoSb4eAEawHX-507" value="" style="rounded=0;whiteSpace=wrap;html=1;fillColor=#e3c800;fontColor=#000000;strokeColor=#B09500;container=0;" vertex="1" parent="qcMehuqhIoSb4eAEawHX-500">
          <mxGeometry x="41.00000000000023" y="60" width="10" height="10" as="geometry" />
        </mxCell>
        <mxCell id="qcMehuqhIoSb4eAEawHX-508" value="" style="rounded=0;whiteSpace=wrap;html=1;fillColor=#e3c800;fontColor=#000000;strokeColor=#B09500;container=0;" vertex="1" parent="qcMehuqhIoSb4eAEawHX-500">
          <mxGeometry x="51.00000000000023" y="60" width="10" height="10" as="geometry" />
        </mxCell>
        <mxCell id="qcMehuqhIoSb4eAEawHX-509" value="" style="rounded=0;whiteSpace=wrap;html=1;fillColor=#e3c800;fontColor=#000000;strokeColor=#B09500;container=0;" vertex="1" parent="qcMehuqhIoSb4eAEawHX-500">
          <mxGeometry x="71.00000000000023" y="60" width="10" height="10" as="geometry" />
        </mxCell>
        <mxCell id="qcMehuqhIoSb4eAEawHX-510" value="" style="rounded=0;whiteSpace=wrap;html=1;fillColor=#e3c800;fontColor=#000000;strokeColor=#B09500;container=0;" vertex="1" parent="qcMehuqhIoSb4eAEawHX-500">
          <mxGeometry x="81.00000000000023" y="60" width="10" height="10" as="geometry" />
        </mxCell>
        <mxCell id="qcMehuqhIoSb4eAEawHX-511" value="" style="rounded=0;whiteSpace=wrap;html=1;fillColor=#e3c800;fontColor=#000000;strokeColor=#B09500;container=0;" vertex="1" parent="qcMehuqhIoSb4eAEawHX-500">
          <mxGeometry x="91.00000000000023" y="60" width="10" height="10" as="geometry" />
        </mxCell>
        <mxCell id="qcMehuqhIoSb4eAEawHX-512" value="" style="rounded=0;whiteSpace=wrap;html=1;fillColor=#e3c800;fontColor=#000000;strokeColor=#B09500;container=0;" vertex="1" parent="qcMehuqhIoSb4eAEawHX-500">
          <mxGeometry x="101.00000000000023" y="60" width="10" height="10" as="geometry" />
        </mxCell>
        <mxCell id="qcMehuqhIoSb4eAEawHX-513" value="" style="rounded=0;whiteSpace=wrap;html=1;fillColor=#e3c800;fontColor=#000000;strokeColor=#B09500;container=0;" vertex="1" parent="qcMehuqhIoSb4eAEawHX-500">
          <mxGeometry x="111.00000000000023" y="60" width="10" height="10" as="geometry" />
        </mxCell>
        <mxCell id="qcMehuqhIoSb4eAEawHX-514" value="" style="rounded=0;whiteSpace=wrap;html=1;fillColor=#e3c800;fontColor=#000000;strokeColor=#B09500;container=0;" vertex="1" parent="qcMehuqhIoSb4eAEawHX-500">
          <mxGeometry x="61.00000000000023" y="60" width="10" height="10" as="geometry" />
        </mxCell>
        <mxCell id="qcMehuqhIoSb4eAEawHX-515" value="" style="rounded=0;whiteSpace=wrap;html=1;fillColor=#e3c800;fontColor=#000000;strokeColor=#B09500;container=0;" vertex="1" parent="qcMehuqhIoSb4eAEawHX-500">
          <mxGeometry x="131.00000000000023" y="60" width="10" height="10" as="geometry" />
        </mxCell>
        <mxCell id="qcMehuqhIoSb4eAEawHX-516" value="" style="rounded=0;whiteSpace=wrap;html=1;fillColor=#e3c800;fontColor=#000000;strokeColor=#B09500;container=0;" vertex="1" parent="qcMehuqhIoSb4eAEawHX-500">
          <mxGeometry x="141.00000000000023" y="60" width="10" height="10" as="geometry" />
        </mxCell>
        <mxCell id="qcMehuqhIoSb4eAEawHX-517" value="" style="rounded=0;whiteSpace=wrap;html=1;fillColor=#e3c800;fontColor=#000000;strokeColor=#B09500;container=0;" vertex="1" parent="qcMehuqhIoSb4eAEawHX-500">
          <mxGeometry x="151.00000000000023" y="60" width="10" height="10" as="geometry" />
        </mxCell>
        <mxCell id="qcMehuqhIoSb4eAEawHX-518" value="" style="rounded=0;whiteSpace=wrap;html=1;fillColor=#e3c800;fontColor=#000000;strokeColor=#B09500;container=0;" vertex="1" parent="qcMehuqhIoSb4eAEawHX-500">
          <mxGeometry x="161.00000000000023" y="60" width="10" height="10" as="geometry" />
        </mxCell>
        <mxCell id="qcMehuqhIoSb4eAEawHX-519" value="" style="rounded=0;whiteSpace=wrap;html=1;fillColor=#e3c800;fontColor=#000000;strokeColor=#B09500;container=0;" vertex="1" parent="qcMehuqhIoSb4eAEawHX-500">
          <mxGeometry x="171.00000000000023" y="60" width="10" height="10" as="geometry" />
        </mxCell>
        <mxCell id="qcMehuqhIoSb4eAEawHX-520" value="" style="rounded=0;whiteSpace=wrap;html=1;fillColor=#e3c800;fontColor=#000000;strokeColor=#B09500;container=0;" vertex="1" parent="qcMehuqhIoSb4eAEawHX-500">
          <mxGeometry x="121.00000000000023" y="60" width="10" height="10" as="geometry" />
        </mxCell>
        <mxCell id="qcMehuqhIoSb4eAEawHX-521" value="" style="rounded=0;whiteSpace=wrap;html=1;fillColor=#e3c800;fontColor=#000000;strokeColor=#B09500;container=0;" vertex="1" parent="qcMehuqhIoSb4eAEawHX-500">
          <mxGeometry x="181.00000000000023" y="60" width="10" height="10" as="geometry" />
        </mxCell>
        <mxCell id="qcMehuqhIoSb4eAEawHX-522" value="" style="rounded=0;whiteSpace=wrap;html=1;fillColor=#e3c800;fontColor=#000000;strokeColor=#B09500;container=0;" vertex="1" parent="qcMehuqhIoSb4eAEawHX-500">
          <mxGeometry x="191.00000000000023" y="60" width="10" height="10" as="geometry" />
        </mxCell>
        <mxCell id="qcMehuqhIoSb4eAEawHX-523" value="" style="rounded=0;whiteSpace=wrap;html=1;fillColor=#e3c800;fontColor=#000000;strokeColor=#B09500;container=0;" vertex="1" parent="qcMehuqhIoSb4eAEawHX-500">
          <mxGeometry x="1.0000000000002274" y="60" width="10" height="10" as="geometry" />
        </mxCell>
        <mxCell id="qcMehuqhIoSb4eAEawHX-524" value="" style="rounded=0;whiteSpace=wrap;html=1;fillColor=#e3c800;fontColor=#000000;strokeColor=#B09500;container=0;" vertex="1" parent="qcMehuqhIoSb4eAEawHX-500">
          <mxGeometry x="1.0000000000002274" width="10" height="10" as="geometry" />
        </mxCell>
        <mxCell id="qcMehuqhIoSb4eAEawHX-525" value="" style="rounded=0;whiteSpace=wrap;html=1;fillColor=#e3c800;fontColor=#000000;strokeColor=#B09500;container=0;" vertex="1" parent="qcMehuqhIoSb4eAEawHX-500">
          <mxGeometry x="11.000000000000227" width="10" height="10" as="geometry" />
        </mxCell>
        <mxCell id="qcMehuqhIoSb4eAEawHX-526" value="" style="rounded=0;whiteSpace=wrap;html=1;fillColor=#e3c800;fontColor=#000000;strokeColor=#B09500;container=0;" vertex="1" parent="qcMehuqhIoSb4eAEawHX-500">
          <mxGeometry x="21.000000000000227" width="10" height="10" as="geometry" />
        </mxCell>
        <mxCell id="qcMehuqhIoSb4eAEawHX-527" value="" style="rounded=0;whiteSpace=wrap;html=1;fillColor=#e3c800;fontColor=#000000;strokeColor=#B09500;container=0;" vertex="1" parent="qcMehuqhIoSb4eAEawHX-500">
          <mxGeometry x="31.000000000000227" width="10" height="10" as="geometry" />
        </mxCell>
        <mxCell id="qcMehuqhIoSb4eAEawHX-528" value="" style="rounded=0;whiteSpace=wrap;html=1;fillColor=#e3c800;fontColor=#000000;strokeColor=#B09500;container=0;" vertex="1" parent="qcMehuqhIoSb4eAEawHX-500">
          <mxGeometry x="41.00000000000023" width="10" height="10" as="geometry" />
        </mxCell>
        <mxCell id="qcMehuqhIoSb4eAEawHX-529" value="" style="rounded=0;whiteSpace=wrap;html=1;fillColor=#e3c800;fontColor=#000000;strokeColor=#B09500;container=0;" vertex="1" parent="qcMehuqhIoSb4eAEawHX-500">
          <mxGeometry x="51.00000000000023" width="10" height="10" as="geometry" />
        </mxCell>
        <mxCell id="qcMehuqhIoSb4eAEawHX-530" value="" style="rounded=0;whiteSpace=wrap;html=1;fillColor=#e3c800;fontColor=#000000;strokeColor=#B09500;container=0;" vertex="1" parent="qcMehuqhIoSb4eAEawHX-500">
          <mxGeometry x="71.00000000000023" width="10" height="10" as="geometry" />
        </mxCell>
        <mxCell id="qcMehuqhIoSb4eAEawHX-531" value="" style="rounded=0;whiteSpace=wrap;html=1;fillColor=#e3c800;fontColor=#000000;strokeColor=#B09500;container=0;" vertex="1" parent="qcMehuqhIoSb4eAEawHX-500">
          <mxGeometry x="81.00000000000023" width="10" height="10" as="geometry" />
        </mxCell>
        <mxCell id="qcMehuqhIoSb4eAEawHX-532" value="" style="rounded=0;whiteSpace=wrap;html=1;fillColor=#e3c800;fontColor=#000000;strokeColor=#B09500;container=0;" vertex="1" parent="qcMehuqhIoSb4eAEawHX-500">
          <mxGeometry x="91.00000000000023" width="10" height="10" as="geometry" />
        </mxCell>
        <mxCell id="qcMehuqhIoSb4eAEawHX-533" value="" style="rounded=0;whiteSpace=wrap;html=1;fillColor=#e3c800;fontColor=#000000;strokeColor=#B09500;container=0;" vertex="1" parent="qcMehuqhIoSb4eAEawHX-500">
          <mxGeometry x="101.00000000000023" width="10" height="10" as="geometry" />
        </mxCell>
        <mxCell id="qcMehuqhIoSb4eAEawHX-534" value="" style="rounded=0;whiteSpace=wrap;html=1;fillColor=#e3c800;fontColor=#000000;strokeColor=#B09500;container=0;" vertex="1" parent="qcMehuqhIoSb4eAEawHX-500">
          <mxGeometry x="111.00000000000023" width="10" height="10" as="geometry" />
        </mxCell>
        <mxCell id="qcMehuqhIoSb4eAEawHX-535" value="" style="rounded=0;whiteSpace=wrap;html=1;fillColor=#e3c800;fontColor=#000000;strokeColor=#B09500;container=0;" vertex="1" parent="qcMehuqhIoSb4eAEawHX-500">
          <mxGeometry x="61.00000000000023" width="10" height="10" as="geometry" />
        </mxCell>
        <mxCell id="qcMehuqhIoSb4eAEawHX-536" value="" style="rounded=0;whiteSpace=wrap;html=1;fillColor=#e3c800;fontColor=#000000;strokeColor=#B09500;container=0;" vertex="1" parent="qcMehuqhIoSb4eAEawHX-500">
          <mxGeometry x="131.00000000000023" width="10" height="10" as="geometry" />
        </mxCell>
        <mxCell id="qcMehuqhIoSb4eAEawHX-537" value="" style="rounded=0;whiteSpace=wrap;html=1;fillColor=#e3c800;fontColor=#000000;strokeColor=#B09500;container=0;" vertex="1" parent="qcMehuqhIoSb4eAEawHX-500">
          <mxGeometry x="141.00000000000023" width="10" height="10" as="geometry" />
        </mxCell>
        <mxCell id="qcMehuqhIoSb4eAEawHX-538" value="" style="rounded=0;whiteSpace=wrap;html=1;fillColor=#e3c800;fontColor=#000000;strokeColor=#B09500;container=0;" vertex="1" parent="qcMehuqhIoSb4eAEawHX-500">
          <mxGeometry x="151.00000000000023" width="10" height="10" as="geometry" />
        </mxCell>
        <mxCell id="qcMehuqhIoSb4eAEawHX-539" value="" style="rounded=0;whiteSpace=wrap;html=1;fillColor=#e3c800;fontColor=#000000;strokeColor=#B09500;container=0;" vertex="1" parent="qcMehuqhIoSb4eAEawHX-500">
          <mxGeometry x="161.00000000000023" width="10" height="10" as="geometry" />
        </mxCell>
        <mxCell id="qcMehuqhIoSb4eAEawHX-540" value="" style="rounded=0;whiteSpace=wrap;html=1;fillColor=#e3c800;fontColor=#000000;strokeColor=#B09500;container=0;" vertex="1" parent="qcMehuqhIoSb4eAEawHX-500">
          <mxGeometry x="171.00000000000023" width="10" height="10" as="geometry" />
        </mxCell>
        <mxCell id="qcMehuqhIoSb4eAEawHX-541" value="" style="rounded=0;whiteSpace=wrap;html=1;fillColor=#e3c800;fontColor=#000000;strokeColor=#B09500;container=0;" vertex="1" parent="qcMehuqhIoSb4eAEawHX-500">
          <mxGeometry x="121.00000000000023" width="10" height="10" as="geometry" />
        </mxCell>
        <mxCell id="qcMehuqhIoSb4eAEawHX-542" value="" style="rounded=0;whiteSpace=wrap;html=1;fillColor=#e3c800;fontColor=#000000;strokeColor=#B09500;container=0;" vertex="1" parent="qcMehuqhIoSb4eAEawHX-500">
          <mxGeometry x="181.00000000000023" width="10" height="10" as="geometry" />
        </mxCell>
        <mxCell id="qcMehuqhIoSb4eAEawHX-543" value="" style="rounded=0;whiteSpace=wrap;html=1;fillColor=#e3c800;fontColor=#000000;strokeColor=#B09500;container=0;" vertex="1" parent="qcMehuqhIoSb4eAEawHX-500">
          <mxGeometry x="191.00000000000023" width="10" height="10" as="geometry" />
        </mxCell>
        <mxCell id="qcMehuqhIoSb4eAEawHX-544" value="" style="rounded=0;whiteSpace=wrap;html=1;fillColor=#e3c800;fontColor=#000000;strokeColor=#B09500;container=0;" vertex="1" parent="qcMehuqhIoSb4eAEawHX-500">
          <mxGeometry x="1.0000000000002274" width="10" height="10" as="geometry" />
        </mxCell>
      </root>
    </mxGraphModel>
  </diagram>
</mxfile>
